<svg width="858" height="348" viewBox="0 0 858 348" fill="none" xmlns="http://www.w3.org/2000/svg">
<rect width="858" height="348" fill="#121212"/>
<path d="M378.92 97.11L229.96 29L81 97.11L229.96 165.22L378.92 97.11ZM229.96 42.1494L350.101 97.0822L229.96 152.043L109.819 97.11L229.96 42.1494ZM342.805 137.309L350.131 140.645L229.96 195.605L109.819 140.645L117.146 137.309L102.736 130.72L81 140.645L229.96 208.755L378.92 140.645L357.214 130.72L342.805 137.309ZM342.805 178.175L350.131 181.511L229.96 236.471L109.819 181.511L117.146 178.175L102.736 171.586L81 181.511L229.96 249.621L378.92 181.511L357.214 171.586L342.805 178.175Z" fill="#3DEFE9"/>
<path d="M125.533 276.565C125.464 275.878 125.172 275.344 124.655 274.963C124.138 274.582 123.436 274.392 122.55 274.392C121.947 274.392 121.439 274.477 121.024 274.648C120.609 274.812 120.291 275.043 120.07 275.338C119.854 275.634 119.746 275.969 119.746 276.344C119.734 276.656 119.8 276.929 119.942 277.162C120.089 277.395 120.291 277.597 120.547 277.767C120.803 277.932 121.098 278.077 121.433 278.202C121.768 278.321 122.126 278.423 122.507 278.509L124.075 278.884C124.837 279.054 125.536 279.281 126.172 279.565C126.808 279.849 127.359 280.199 127.825 280.614C128.291 281.028 128.652 281.517 128.908 282.08C129.169 282.642 129.303 283.287 129.308 284.014C129.303 285.082 129.03 286.009 128.49 286.793C127.956 287.571 127.183 288.176 126.172 288.608C125.166 289.034 123.953 289.247 122.533 289.247C121.124 289.247 119.896 289.031 118.851 288.599C117.811 288.168 116.999 287.528 116.413 286.682C115.834 285.83 115.53 284.776 115.501 283.52H119.072C119.112 284.105 119.28 284.594 119.575 284.986C119.876 285.372 120.277 285.665 120.777 285.864C121.283 286.057 121.854 286.153 122.49 286.153C123.115 286.153 123.658 286.062 124.118 285.881C124.584 285.699 124.945 285.446 125.2 285.122C125.456 284.798 125.584 284.426 125.584 284.006C125.584 283.614 125.467 283.284 125.234 283.017C125.007 282.75 124.672 282.523 124.229 282.335C123.791 282.148 123.254 281.977 122.618 281.824L120.717 281.347C119.246 280.989 118.084 280.429 117.232 279.668C116.379 278.906 115.956 277.881 115.962 276.591C115.956 275.534 116.237 274.611 116.805 273.821C117.379 273.031 118.166 272.415 119.166 271.972C120.166 271.528 121.303 271.307 122.575 271.307C123.871 271.307 125.001 271.528 125.967 271.972C126.939 272.415 127.695 273.031 128.234 273.821C128.774 274.611 129.053 275.526 129.07 276.565H125.533ZM138.685 275.909V278.636H130.802V275.909H138.685ZM132.592 272.773H136.222V284.977C136.222 285.312 136.273 285.574 136.376 285.761C136.478 285.943 136.62 286.071 136.802 286.145C136.989 286.219 137.205 286.256 137.45 286.256C137.62 286.256 137.79 286.241 137.961 286.213C138.131 286.179 138.262 286.153 138.353 286.136L138.924 288.838C138.742 288.895 138.487 288.96 138.157 289.034C137.827 289.114 137.427 289.162 136.955 289.179C136.08 289.213 135.313 289.097 134.654 288.83C134.001 288.562 133.492 288.148 133.129 287.585C132.765 287.023 132.586 286.312 132.592 285.455V272.773ZM144.783 289.247C143.948 289.247 143.204 289.102 142.55 288.812C141.897 288.517 141.38 288.082 140.999 287.509C140.624 286.929 140.437 286.207 140.437 285.344C140.437 284.616 140.57 284.006 140.837 283.511C141.104 283.017 141.468 282.619 141.928 282.318C142.388 282.017 142.911 281.79 143.496 281.636C144.087 281.483 144.707 281.375 145.354 281.312C146.116 281.233 146.729 281.159 147.195 281.091C147.661 281.017 147.999 280.909 148.21 280.767C148.42 280.625 148.525 280.415 148.525 280.136V280.085C148.525 279.545 148.354 279.128 148.013 278.832C147.678 278.537 147.201 278.389 146.582 278.389C145.928 278.389 145.408 278.534 145.022 278.824C144.636 279.108 144.38 279.466 144.255 279.898L140.897 279.625C141.067 278.83 141.403 278.142 141.903 277.562C142.403 276.977 143.048 276.528 143.837 276.216C144.633 275.898 145.553 275.739 146.599 275.739C147.326 275.739 148.022 275.824 148.687 275.994C149.357 276.165 149.951 276.429 150.468 276.787C150.991 277.145 151.403 277.605 151.704 278.168C152.005 278.724 152.156 279.392 152.156 280.17V289H148.712V287.185H148.61C148.4 287.594 148.119 287.955 147.766 288.267C147.414 288.574 146.991 288.815 146.496 288.991C146.002 289.162 145.431 289.247 144.783 289.247ZM145.823 286.741C146.357 286.741 146.829 286.636 147.238 286.426C147.647 286.21 147.968 285.92 148.201 285.557C148.434 285.193 148.55 284.781 148.55 284.321V282.932C148.437 283.006 148.281 283.074 148.082 283.136C147.888 283.193 147.67 283.247 147.425 283.298C147.181 283.344 146.937 283.386 146.692 283.426C146.448 283.46 146.227 283.491 146.028 283.52C145.602 283.582 145.229 283.682 144.911 283.818C144.593 283.955 144.346 284.139 144.17 284.372C143.994 284.599 143.906 284.884 143.906 285.224C143.906 285.719 144.085 286.097 144.442 286.358C144.806 286.614 145.266 286.741 145.823 286.741ZM160.887 289.256C159.546 289.256 158.393 288.972 157.427 288.403C156.467 287.83 155.728 287.034 155.211 286.017C154.7 285 154.444 283.83 154.444 282.506C154.444 281.165 154.702 279.989 155.219 278.977C155.742 277.96 156.484 277.168 157.444 276.599C158.404 276.026 159.546 275.739 160.87 275.739C162.012 275.739 163.012 275.946 163.87 276.361C164.728 276.776 165.407 277.358 165.907 278.108C166.407 278.858 166.683 279.739 166.734 280.75H163.308C163.211 280.097 162.955 279.571 162.54 279.173C162.131 278.77 161.594 278.568 160.93 278.568C160.367 278.568 159.876 278.722 159.455 279.028C159.04 279.33 158.717 279.77 158.484 280.349C158.251 280.929 158.134 281.631 158.134 282.455C158.134 283.29 158.248 284 158.475 284.585C158.708 285.17 159.035 285.616 159.455 285.923C159.876 286.23 160.367 286.384 160.93 286.384C161.344 286.384 161.717 286.298 162.046 286.128C162.381 285.957 162.657 285.71 162.873 285.386C163.094 285.057 163.239 284.662 163.308 284.202H166.734C166.677 285.202 166.404 286.082 165.915 286.844C165.433 287.599 164.765 288.19 163.913 288.616C163.06 289.043 162.052 289.256 160.887 289.256ZM172.348 285.233L172.357 280.878H172.885L177.078 275.909H181.246L175.612 282.489H174.751L172.348 285.233ZM169.058 289V271.545H172.689V289H169.058ZM177.24 289L173.388 283.298L175.808 280.733L181.493 289H177.24ZM188.582 289V275.909H192.212V289H188.582ZM190.406 274.222C189.866 274.222 189.403 274.043 189.016 273.685C188.636 273.321 188.445 272.886 188.445 272.381C188.445 271.881 188.636 271.452 189.016 271.094C189.403 270.73 189.866 270.548 190.406 270.548C190.945 270.548 191.406 270.73 191.786 271.094C192.173 271.452 192.366 271.881 192.366 272.381C192.366 272.886 192.173 273.321 191.786 273.685C191.406 274.043 190.945 274.222 190.406 274.222ZM206.013 279.642L202.689 279.847C202.632 279.562 202.51 279.307 202.322 279.08C202.135 278.847 201.888 278.662 201.581 278.526C201.28 278.384 200.919 278.312 200.499 278.312C199.936 278.312 199.462 278.432 199.075 278.67C198.689 278.903 198.496 279.216 198.496 279.608C198.496 279.92 198.621 280.185 198.871 280.401C199.121 280.616 199.55 280.79 200.158 280.92L202.527 281.398C203.8 281.659 204.749 282.08 205.374 282.659C205.999 283.239 206.311 284 206.311 284.943C206.311 285.801 206.058 286.554 205.553 287.202C205.053 287.849 204.365 288.355 203.49 288.719C202.621 289.077 201.618 289.256 200.482 289.256C198.749 289.256 197.368 288.895 196.339 288.173C195.317 287.446 194.717 286.457 194.541 285.207L198.112 285.02C198.22 285.548 198.482 285.952 198.896 286.23C199.311 286.503 199.842 286.639 200.49 286.639C201.126 286.639 201.638 286.517 202.024 286.273C202.416 286.023 202.615 285.702 202.621 285.31C202.615 284.98 202.476 284.71 202.203 284.5C201.93 284.284 201.51 284.119 200.942 284.006L198.675 283.554C197.396 283.298 196.445 282.855 195.82 282.224C195.2 281.594 194.891 280.79 194.891 279.812C194.891 278.972 195.118 278.247 195.572 277.639C196.033 277.031 196.678 276.562 197.507 276.233C198.342 275.903 199.32 275.739 200.439 275.739C202.092 275.739 203.393 276.088 204.342 276.787C205.297 277.486 205.854 278.437 206.013 279.642ZM217.885 289.247C217.05 289.247 216.305 289.102 215.652 288.812C214.999 288.517 214.482 288.082 214.101 287.509C213.726 286.929 213.538 286.207 213.538 285.344C213.538 284.616 213.672 284.006 213.939 283.511C214.206 283.017 214.57 282.619 215.03 282.318C215.49 282.017 216.013 281.79 216.598 281.636C217.189 281.483 217.808 281.375 218.456 281.312C219.217 281.233 219.831 281.159 220.297 281.091C220.763 281.017 221.101 280.909 221.311 280.767C221.521 280.625 221.626 280.415 221.626 280.136V280.085C221.626 279.545 221.456 279.128 221.115 278.832C220.78 278.537 220.303 278.389 219.683 278.389C219.03 278.389 218.51 278.534 218.124 278.824C217.737 279.108 217.482 279.466 217.357 279.898L213.999 279.625C214.169 278.83 214.504 278.142 215.004 277.562C215.504 276.977 216.149 276.528 216.939 276.216C217.734 275.898 218.655 275.739 219.7 275.739C220.428 275.739 221.124 275.824 221.788 275.994C222.459 276.165 223.053 276.429 223.57 276.787C224.092 277.145 224.504 277.605 224.805 278.168C225.107 278.724 225.257 279.392 225.257 280.17V289H221.814V287.185H221.712C221.501 287.594 221.22 287.955 220.868 288.267C220.516 288.574 220.092 288.815 219.598 288.991C219.104 289.162 218.533 289.247 217.885 289.247ZM218.925 286.741C219.459 286.741 219.93 286.636 220.339 286.426C220.749 286.21 221.07 285.92 221.303 285.557C221.536 285.193 221.652 284.781 221.652 284.321V282.932C221.538 283.006 221.382 283.074 221.183 283.136C220.99 283.193 220.771 283.247 220.527 283.298C220.283 283.344 220.038 283.386 219.794 283.426C219.55 283.46 219.328 283.491 219.129 283.52C218.703 283.582 218.331 283.682 218.013 283.818C217.695 283.955 217.447 284.139 217.271 284.372C217.095 284.599 217.007 284.884 217.007 285.224C217.007 285.719 217.186 286.097 217.544 286.358C217.908 286.614 218.368 286.741 218.925 286.741ZM231.705 281.432V289H228.074V275.909H231.534V278.219H231.688C231.977 277.457 232.463 276.855 233.145 276.412C233.827 275.963 234.653 275.739 235.625 275.739C236.534 275.739 237.327 275.938 238.003 276.335C238.679 276.733 239.205 277.301 239.58 278.04C239.955 278.773 240.142 279.648 240.142 280.665V289H236.511V281.312C236.517 280.511 236.313 279.886 235.898 279.438C235.483 278.983 234.912 278.756 234.185 278.756C233.696 278.756 233.264 278.861 232.889 279.071C232.52 279.281 232.23 279.588 232.02 279.991C231.815 280.389 231.71 280.869 231.705 281.432ZM254.473 289.256C253.149 289.256 252.004 288.974 251.038 288.412C250.078 287.844 249.337 287.054 248.814 286.043C248.291 285.026 248.03 283.847 248.03 282.506C248.03 281.153 248.291 279.972 248.814 278.96C249.337 277.943 250.078 277.153 251.038 276.591C252.004 276.023 253.149 275.739 254.473 275.739C255.797 275.739 256.939 276.023 257.899 276.591C258.865 277.153 259.609 277.943 260.132 278.96C260.655 279.972 260.916 281.153 260.916 282.506C260.916 283.847 260.655 285.026 260.132 286.043C259.609 287.054 258.865 287.844 257.899 288.412C256.939 288.974 255.797 289.256 254.473 289.256ZM254.49 286.443C255.092 286.443 255.595 286.273 255.999 285.932C256.402 285.585 256.706 285.114 256.911 284.517C257.121 283.92 257.226 283.241 257.226 282.48C257.226 281.719 257.121 281.04 256.911 280.443C256.706 279.847 256.402 279.375 255.999 279.028C255.595 278.682 255.092 278.509 254.49 278.509C253.882 278.509 253.371 278.682 252.956 279.028C252.547 279.375 252.237 279.847 252.027 280.443C251.822 281.04 251.72 281.719 251.72 282.48C251.72 283.241 251.822 283.92 252.027 284.517C252.237 285.114 252.547 285.585 252.956 285.932C253.371 286.273 253.882 286.443 254.49 286.443ZM263.277 289V275.909H266.797V278.193H266.933C267.172 277.381 267.572 276.767 268.135 276.352C268.697 275.932 269.345 275.722 270.078 275.722C270.26 275.722 270.456 275.733 270.666 275.756C270.876 275.778 271.061 275.81 271.22 275.849V279.071C271.05 279.02 270.814 278.974 270.513 278.935C270.212 278.895 269.936 278.875 269.686 278.875C269.152 278.875 268.675 278.991 268.254 279.224C267.839 279.452 267.51 279.77 267.266 280.179C267.027 280.588 266.908 281.06 266.908 281.594V289H263.277ZM277.312 289.213C276.317 289.213 275.417 288.957 274.61 288.446C273.809 287.929 273.173 287.17 272.701 286.17C272.235 285.165 272.002 283.932 272.002 282.472C272.002 280.972 272.244 279.724 272.727 278.73C273.21 277.73 273.852 276.983 274.653 276.489C275.46 275.989 276.343 275.739 277.303 275.739C278.036 275.739 278.647 275.864 279.136 276.114C279.63 276.358 280.028 276.665 280.329 277.034C280.636 277.398 280.869 277.756 281.028 278.108H281.138V271.545H284.761V289H281.181V286.903H281.028C280.857 287.267 280.616 287.628 280.303 287.986C279.996 288.338 279.596 288.631 279.102 288.864C278.613 289.097 278.016 289.213 277.312 289.213ZM278.462 286.324C279.048 286.324 279.542 286.165 279.945 285.847C280.354 285.523 280.667 285.071 280.883 284.491C281.104 283.912 281.215 283.233 281.215 282.455C281.215 281.676 281.107 281 280.891 280.426C280.675 279.852 280.363 279.409 279.954 279.097C279.545 278.784 279.048 278.628 278.462 278.628C277.866 278.628 277.363 278.79 276.954 279.114C276.545 279.437 276.235 279.886 276.025 280.46C275.815 281.034 275.71 281.699 275.71 282.455C275.71 283.216 275.815 283.889 276.025 284.474C276.241 285.054 276.55 285.509 276.954 285.838C277.363 286.162 277.866 286.324 278.462 286.324ZM293.712 289.256C292.365 289.256 291.206 288.983 290.234 288.438C289.268 287.886 288.524 287.108 288.001 286.102C287.479 285.091 287.217 283.895 287.217 282.514C287.217 281.168 287.479 279.986 288.001 278.969C288.524 277.952 289.26 277.159 290.209 276.591C291.163 276.023 292.283 275.739 293.567 275.739C294.43 275.739 295.234 275.878 295.979 276.156C296.729 276.429 297.382 276.841 297.939 277.392C298.501 277.943 298.939 278.636 299.251 279.472C299.564 280.301 299.72 281.273 299.72 282.386V283.384H288.666V281.134H296.303C296.303 280.611 296.189 280.148 295.962 279.744C295.734 279.341 295.419 279.026 295.016 278.798C294.618 278.565 294.155 278.449 293.626 278.449C293.075 278.449 292.587 278.577 292.161 278.832C291.74 279.082 291.411 279.42 291.172 279.847C290.933 280.267 290.811 280.736 290.805 281.253V283.392C290.805 284.04 290.925 284.599 291.163 285.071C291.408 285.543 291.751 285.906 292.195 286.162C292.638 286.418 293.163 286.545 293.771 286.545C294.175 286.545 294.544 286.489 294.879 286.375C295.214 286.261 295.501 286.091 295.74 285.864C295.979 285.636 296.161 285.358 296.286 285.028L299.643 285.25C299.473 286.057 299.124 286.761 298.595 287.364C298.072 287.96 297.396 288.426 296.567 288.761C295.743 289.091 294.791 289.256 293.712 289.256ZM302.089 289V275.909H305.609V278.193H305.746C305.984 277.381 306.385 276.767 306.947 276.352C307.51 275.932 308.158 275.722 308.891 275.722C309.072 275.722 309.268 275.733 309.479 275.756C309.689 275.778 309.874 275.81 310.033 275.849V279.071C309.862 279.02 309.626 278.974 309.325 278.935C309.024 278.895 308.749 278.875 308.499 278.875C307.964 278.875 307.487 278.991 307.067 279.224C306.652 279.452 306.322 279.77 306.078 280.179C305.839 280.588 305.72 281.06 305.72 281.594V289H302.089ZM317.266 289.256C315.92 289.256 314.761 288.983 313.789 288.438C312.823 287.886 312.079 287.108 311.556 286.102C311.033 285.091 310.772 283.895 310.772 282.514C310.772 281.168 311.033 279.986 311.556 278.969C312.079 277.952 312.815 277.159 313.763 276.591C314.718 276.023 315.837 275.739 317.121 275.739C317.985 275.739 318.789 275.878 319.533 276.156C320.283 276.429 320.937 276.841 321.494 277.392C322.056 277.943 322.494 278.636 322.806 279.472C323.119 280.301 323.275 281.273 323.275 282.386V283.384H312.221V281.134H319.857C319.857 280.611 319.744 280.148 319.516 279.744C319.289 279.341 318.974 279.026 318.57 278.798C318.173 278.565 317.71 278.449 317.181 278.449C316.63 278.449 316.141 278.577 315.715 278.832C315.295 279.082 314.965 279.42 314.727 279.847C314.488 280.267 314.366 280.736 314.36 281.253V283.392C314.36 284.04 314.479 284.599 314.718 285.071C314.962 285.543 315.306 285.906 315.749 286.162C316.192 286.418 316.718 286.545 317.326 286.545C317.729 286.545 318.099 286.489 318.434 286.375C318.769 286.261 319.056 286.091 319.295 285.864C319.533 285.636 319.715 285.358 319.84 285.028L323.198 285.25C323.028 286.057 322.678 286.761 322.15 287.364C321.627 287.96 320.951 288.426 320.121 288.761C319.298 289.091 318.346 289.256 317.266 289.256ZM330.468 289.213C329.474 289.213 328.573 288.957 327.766 288.446C326.965 287.929 326.329 287.17 325.857 286.17C325.391 285.165 325.158 283.932 325.158 282.472C325.158 280.972 325.4 279.724 325.883 278.73C326.366 277.73 327.008 276.983 327.809 276.489C328.616 275.989 329.499 275.739 330.46 275.739C331.192 275.739 331.803 275.864 332.292 276.114C332.786 276.358 333.184 276.665 333.485 277.034C333.792 277.398 334.025 277.756 334.184 278.108H334.295V271.545H337.917V289H334.337V286.903H334.184C334.013 287.267 333.772 287.628 333.46 287.986C333.153 288.338 332.752 288.631 332.258 288.864C331.769 289.097 331.173 289.213 330.468 289.213ZM331.619 286.324C332.204 286.324 332.698 286.165 333.102 285.847C333.511 285.523 333.823 285.071 334.039 284.491C334.261 283.912 334.371 283.233 334.371 282.455C334.371 281.676 334.263 281 334.048 280.426C333.832 279.852 333.519 279.409 333.11 279.097C332.701 278.784 332.204 278.628 331.619 278.628C331.022 278.628 330.519 278.79 330.11 279.114C329.701 279.437 329.391 279.886 329.181 280.46C328.971 281.034 328.866 281.699 328.866 282.455C328.866 283.216 328.971 283.889 329.181 284.474C329.397 285.054 329.707 285.509 330.11 285.838C330.519 286.162 331.022 286.324 331.619 286.324ZM184.614 308.642L181.29 308.847C181.234 308.562 181.112 308.307 180.924 308.08C180.737 307.847 180.489 307.662 180.183 307.526C179.881 307.384 179.521 307.312 179.1 307.312C178.538 307.312 178.063 307.432 177.677 307.67C177.29 307.903 177.097 308.216 177.097 308.608C177.097 308.92 177.222 309.185 177.472 309.401C177.722 309.616 178.151 309.79 178.759 309.92L181.129 310.398C182.401 310.659 183.35 311.08 183.975 311.659C184.6 312.239 184.913 313 184.913 313.943C184.913 314.801 184.66 315.554 184.154 316.202C183.654 316.849 182.967 317.355 182.092 317.719C181.222 318.077 180.219 318.256 179.083 318.256C177.35 318.256 175.969 317.895 174.941 317.173C173.918 316.446 173.319 315.457 173.143 314.207L176.714 314.02C176.822 314.548 177.083 314.952 177.498 315.23C177.913 315.503 178.444 315.639 179.092 315.639C179.728 315.639 180.239 315.517 180.626 315.273C181.018 315.023 181.217 314.702 181.222 314.31C181.217 313.98 181.077 313.71 180.805 313.5C180.532 313.284 180.112 313.119 179.543 313.006L177.276 312.554C175.998 312.298 175.046 311.855 174.421 311.224C173.802 310.594 173.492 309.79 173.492 308.812C173.492 307.972 173.719 307.247 174.174 306.639C174.634 306.031 175.279 305.562 176.109 305.233C176.944 304.903 177.921 304.739 179.04 304.739C180.694 304.739 181.995 305.088 182.944 305.787C183.898 306.486 184.455 307.437 184.614 308.642ZM194.162 304.909V307.636H186.278V304.909H194.162ZM188.068 301.773H191.699V313.977C191.699 314.312 191.75 314.574 191.852 314.761C191.955 314.943 192.097 315.071 192.278 315.145C192.466 315.219 192.682 315.256 192.926 315.256C193.097 315.256 193.267 315.241 193.438 315.213C193.608 315.179 193.739 315.153 193.83 315.136L194.401 317.838C194.219 317.895 193.963 317.96 193.634 318.034C193.304 318.114 192.903 318.162 192.432 318.179C191.557 318.213 190.79 318.097 190.131 317.83C189.477 317.562 188.969 317.148 188.605 316.585C188.241 316.023 188.063 315.312 188.068 314.455V301.773ZM196.527 318V304.909H200.047V307.193H200.183C200.422 306.381 200.822 305.767 201.385 305.352C201.947 304.932 202.595 304.722 203.328 304.722C203.51 304.722 203.706 304.733 203.916 304.756C204.126 304.778 204.311 304.81 204.47 304.849V308.071C204.3 308.02 204.064 307.974 203.763 307.935C203.462 307.895 203.186 307.875 202.936 307.875C202.402 307.875 201.925 307.991 201.504 308.224C201.089 308.452 200.76 308.77 200.516 309.179C200.277 309.588 200.158 310.06 200.158 310.594V318H196.527ZM214.742 312.426V304.909H218.373V318H214.887V315.622H214.751C214.455 316.389 213.964 317.006 213.276 317.472C212.594 317.937 211.762 318.17 210.779 318.17C209.904 318.17 209.134 317.972 208.469 317.574C207.805 317.176 207.285 316.611 206.91 315.878C206.54 315.145 206.353 314.267 206.347 313.244V304.909H209.978V312.597C209.984 313.369 210.191 313.98 210.6 314.429C211.009 314.878 211.558 315.102 212.245 315.102C212.683 315.102 213.092 315.003 213.472 314.804C213.853 314.599 214.16 314.298 214.393 313.901C214.631 313.503 214.748 313.011 214.742 312.426ZM227.192 318.256C225.851 318.256 224.697 317.972 223.732 317.403C222.771 316.83 222.033 316.034 221.516 315.017C221.004 314 220.749 312.83 220.749 311.506C220.749 310.165 221.007 308.989 221.524 307.977C222.047 306.96 222.788 306.168 223.749 305.599C224.709 305.026 225.851 304.739 227.175 304.739C228.317 304.739 229.317 304.946 230.175 305.361C231.033 305.776 231.712 306.358 232.212 307.108C232.712 307.858 232.987 308.739 233.038 309.75H229.612C229.516 309.097 229.26 308.571 228.845 308.173C228.436 307.77 227.899 307.568 227.234 307.568C226.672 307.568 226.18 307.722 225.76 308.028C225.345 308.33 225.021 308.77 224.788 309.349C224.555 309.929 224.439 310.631 224.439 311.455C224.439 312.29 224.553 313 224.78 313.585C225.013 314.17 225.339 314.616 225.76 314.923C226.18 315.23 226.672 315.384 227.234 315.384C227.649 315.384 228.021 315.298 228.351 315.128C228.686 314.957 228.962 314.71 229.178 314.386C229.399 314.057 229.544 313.662 229.612 313.202H233.038C232.982 314.202 232.709 315.082 232.22 315.844C231.737 316.599 231.07 317.19 230.217 317.616C229.365 318.043 228.357 318.256 227.192 318.256ZM242.326 304.909V307.636H234.442V304.909H242.326ZM236.232 301.773H239.863V313.977C239.863 314.312 239.914 314.574 240.016 314.761C240.119 314.943 240.261 315.071 240.442 315.145C240.63 315.219 240.846 315.256 241.09 315.256C241.261 315.256 241.431 315.241 241.602 315.213C241.772 315.179 241.903 315.153 241.994 315.136L242.565 317.838C242.383 317.895 242.127 317.96 241.798 318.034C241.468 318.114 241.067 318.162 240.596 318.179C239.721 318.213 238.954 318.097 238.295 317.83C237.641 317.562 237.133 317.148 236.769 316.585C236.406 316.023 236.227 315.312 236.232 314.455V301.773ZM253.086 312.426V304.909H256.717V318H253.231V315.622H253.094C252.799 316.389 252.308 317.006 251.62 317.472C250.938 317.937 250.106 318.17 249.123 318.17C248.248 318.17 247.478 317.972 246.813 317.574C246.148 317.176 245.629 316.611 245.254 315.878C244.884 315.145 244.697 314.267 244.691 313.244V304.909H248.322V312.597C248.327 313.369 248.535 313.98 248.944 314.429C249.353 314.878 249.901 315.102 250.589 315.102C251.026 315.102 251.435 315.003 251.816 314.804C252.197 314.599 252.504 314.298 252.737 313.901C252.975 313.503 253.092 313.011 253.086 312.426ZM259.621 318V304.909H263.141V307.193H263.277C263.516 306.381 263.916 305.767 264.479 305.352C265.041 304.932 265.689 304.722 266.422 304.722C266.604 304.722 266.8 304.733 267.01 304.756C267.22 304.778 267.405 304.81 267.564 304.849V308.071C267.393 308.02 267.158 307.974 266.857 307.935C266.555 307.895 266.28 307.875 266.03 307.875C265.496 307.875 265.018 307.991 264.598 308.224C264.183 308.452 263.854 308.77 263.609 309.179C263.371 309.588 263.251 310.06 263.251 310.594V318H259.621ZM274.798 318.256C273.451 318.256 272.292 317.983 271.32 317.438C270.354 316.886 269.61 316.108 269.087 315.102C268.565 314.091 268.303 312.895 268.303 311.514C268.303 310.168 268.565 308.986 269.087 307.969C269.61 306.952 270.346 306.159 271.295 305.591C272.249 305.023 273.369 304.739 274.653 304.739C275.516 304.739 276.32 304.878 277.065 305.156C277.815 305.429 278.468 305.841 279.025 306.392C279.587 306.943 280.025 307.636 280.337 308.472C280.65 309.301 280.806 310.273 280.806 311.386V312.384H269.752V310.134H277.388C277.388 309.611 277.275 309.148 277.048 308.744C276.82 308.341 276.505 308.026 276.102 307.798C275.704 307.565 275.241 307.449 274.712 307.449C274.161 307.449 273.673 307.577 273.246 307.832C272.826 308.082 272.496 308.42 272.258 308.847C272.019 309.267 271.897 309.736 271.891 310.253V312.392C271.891 313.04 272.011 313.599 272.249 314.071C272.494 314.543 272.837 314.906 273.281 315.162C273.724 315.418 274.249 315.545 274.857 315.545C275.261 315.545 275.63 315.489 275.965 315.375C276.3 315.261 276.587 315.091 276.826 314.864C277.065 314.636 277.246 314.358 277.371 314.028L280.729 314.25C280.559 315.057 280.21 315.761 279.681 316.364C279.158 316.96 278.482 317.426 277.653 317.761C276.829 318.091 275.877 318.256 274.798 318.256Z" fill="white"/>
<path d="M498.603 276.565C498.535 275.878 498.242 275.344 497.725 274.963C497.208 274.582 496.506 274.392 495.62 274.392C495.018 274.392 494.509 274.477 494.094 274.648C493.68 274.812 493.362 275.043 493.14 275.338C492.924 275.634 492.816 275.969 492.816 276.344C492.805 276.656 492.87 276.929 493.012 277.162C493.16 277.395 493.362 277.597 493.617 277.767C493.873 277.932 494.168 278.077 494.504 278.202C494.839 278.321 495.197 278.423 495.577 278.509L497.146 278.884C497.907 279.054 498.606 279.281 499.242 279.565C499.879 279.849 500.43 280.199 500.896 280.614C501.362 281.028 501.722 281.517 501.978 282.08C502.239 282.642 502.373 283.287 502.379 284.014C502.373 285.082 502.1 286.009 501.56 286.793C501.026 287.571 500.254 288.176 499.242 288.608C498.237 289.034 497.023 289.247 495.603 289.247C494.194 289.247 492.967 289.031 491.921 288.599C490.881 288.168 490.069 287.528 489.484 286.682C488.904 285.83 488.6 284.776 488.572 283.52H492.143C492.183 284.105 492.35 284.594 492.646 284.986C492.947 285.372 493.347 285.665 493.847 285.864C494.353 286.057 494.924 286.153 495.56 286.153C496.185 286.153 496.728 286.062 497.188 285.881C497.654 285.699 498.015 285.446 498.271 285.122C498.526 284.798 498.654 284.426 498.654 284.006C498.654 283.614 498.538 283.284 498.305 283.017C498.077 282.75 497.742 282.523 497.299 282.335C496.862 282.148 496.325 281.977 495.688 281.824L493.788 281.347C492.316 280.989 491.154 280.429 490.302 279.668C489.45 278.906 489.026 277.881 489.032 276.591C489.026 275.534 489.308 274.611 489.876 273.821C490.45 273.031 491.237 272.415 492.237 271.972C493.237 271.528 494.373 271.307 495.646 271.307C496.941 271.307 498.072 271.528 499.038 271.972C500.009 272.415 500.765 273.031 501.305 273.821C501.844 274.611 502.123 275.526 502.14 276.565H498.603ZM511.756 275.909V278.636H503.872V275.909H511.756ZM505.662 272.773H509.293V284.977C509.293 285.312 509.344 285.574 509.446 285.761C509.548 285.943 509.69 286.071 509.872 286.145C510.06 286.219 510.276 286.256 510.52 286.256C510.69 286.256 510.861 286.241 511.031 286.213C511.202 286.179 511.332 286.153 511.423 286.136L511.994 288.838C511.813 288.895 511.557 288.96 511.227 289.034C510.898 289.114 510.497 289.162 510.026 289.179C509.151 289.213 508.384 289.097 507.724 288.83C507.071 288.562 506.563 288.148 506.199 287.585C505.835 287.023 505.656 286.312 505.662 285.455V272.773ZM517.854 289.247C517.018 289.247 516.274 289.102 515.621 288.812C514.967 288.517 514.45 288.082 514.07 287.509C513.695 286.929 513.507 286.207 513.507 285.344C513.507 284.616 513.641 284.006 513.908 283.511C514.175 283.017 514.538 282.619 514.999 282.318C515.459 282.017 515.982 281.79 516.567 281.636C517.158 281.483 517.777 281.375 518.425 281.312C519.186 281.233 519.8 281.159 520.266 281.091C520.732 281.017 521.07 280.909 521.28 280.767C521.49 280.625 521.595 280.415 521.595 280.136V280.085C521.595 279.545 521.425 279.128 521.084 278.832C520.749 278.537 520.271 278.389 519.652 278.389C518.999 278.389 518.479 278.534 518.092 278.824C517.706 279.108 517.45 279.466 517.325 279.898L513.967 279.625C514.138 278.83 514.473 278.142 514.973 277.562C515.473 276.977 516.118 276.528 516.908 276.216C517.703 275.898 518.624 275.739 519.669 275.739C520.396 275.739 521.092 275.824 521.757 275.994C522.428 276.165 523.021 276.429 523.538 276.787C524.061 277.145 524.473 277.605 524.774 278.168C525.075 278.724 525.226 279.392 525.226 280.17V289H521.783V287.185H521.68C521.47 287.594 521.189 287.955 520.837 288.267C520.484 288.574 520.061 288.815 519.567 288.991C519.072 289.162 518.501 289.247 517.854 289.247ZM518.893 286.741C519.428 286.741 519.899 286.636 520.308 286.426C520.717 286.21 521.038 285.92 521.271 285.557C521.504 285.193 521.621 284.781 521.621 284.321V282.932C521.507 283.006 521.351 283.074 521.152 283.136C520.959 283.193 520.74 283.247 520.496 283.298C520.251 283.344 520.007 283.386 519.763 283.426C519.518 283.46 519.297 283.491 519.098 283.52C518.672 283.582 518.3 283.682 517.982 283.818C517.663 283.955 517.416 284.139 517.24 284.372C517.064 284.599 516.976 284.884 516.976 285.224C516.976 285.719 517.155 286.097 517.513 286.358C517.876 286.614 518.337 286.741 518.893 286.741ZM533.957 289.256C532.616 289.256 531.463 288.972 530.497 288.403C529.537 287.83 528.798 287.034 528.281 286.017C527.77 285 527.514 283.83 527.514 282.506C527.514 281.165 527.773 279.989 528.29 278.977C528.813 277.96 529.554 277.168 530.514 276.599C531.474 276.026 532.616 275.739 533.94 275.739C535.082 275.739 536.082 275.946 536.94 276.361C537.798 276.776 538.477 277.358 538.977 278.108C539.477 278.858 539.753 279.739 539.804 280.75H536.378C536.281 280.097 536.026 279.571 535.611 279.173C535.202 278.77 534.665 278.568 534 278.568C533.438 278.568 532.946 278.722 532.526 279.028C532.111 279.33 531.787 279.77 531.554 280.349C531.321 280.929 531.205 281.631 531.205 282.455C531.205 283.29 531.318 284 531.545 284.585C531.778 285.17 532.105 285.616 532.526 285.923C532.946 286.23 533.438 286.384 534 286.384C534.415 286.384 534.787 286.298 535.116 286.128C535.452 285.957 535.727 285.71 535.943 285.386C536.165 285.057 536.31 284.662 536.378 284.202H539.804C539.747 285.202 539.474 286.082 538.986 286.844C538.503 287.599 537.835 288.19 536.983 288.616C536.131 289.043 535.122 289.256 533.957 289.256ZM545.418 285.233L545.427 280.878H545.955L550.148 275.909H554.316L548.683 282.489H547.822L545.418 285.233ZM542.129 289V271.545H545.759V289H542.129ZM550.31 289L546.458 283.298L548.879 280.733L554.563 289H550.31ZM561.652 289V275.909H565.283V289H561.652ZM563.476 274.222C562.936 274.222 562.473 274.043 562.087 273.685C561.706 273.321 561.516 272.886 561.516 272.381C561.516 271.881 561.706 271.452 562.087 271.094C562.473 270.73 562.936 270.548 563.476 270.548C564.016 270.548 564.476 270.73 564.857 271.094C565.243 271.452 565.436 271.881 565.436 272.381C565.436 272.886 565.243 273.321 564.857 273.685C564.476 274.043 564.016 274.222 563.476 274.222ZM579.083 279.642L575.759 279.847C575.702 279.562 575.58 279.307 575.393 279.08C575.205 278.847 574.958 278.662 574.651 278.526C574.35 278.384 573.989 278.312 573.569 278.312C573.006 278.312 572.532 278.432 572.146 278.67C571.759 278.903 571.566 279.216 571.566 279.608C571.566 279.92 571.691 280.185 571.941 280.401C572.191 280.616 572.62 280.79 573.228 280.92L575.597 281.398C576.87 281.659 577.819 282.08 578.444 282.659C579.069 283.239 579.381 284 579.381 284.943C579.381 285.801 579.129 286.554 578.623 287.202C578.123 287.849 577.435 288.355 576.56 288.719C575.691 289.077 574.688 289.256 573.552 289.256C571.819 289.256 570.438 288.895 569.41 288.173C568.387 287.446 567.788 286.457 567.612 285.207L571.183 285.02C571.29 285.548 571.552 285.952 571.967 286.23C572.381 286.503 572.913 286.639 573.56 286.639C574.197 286.639 574.708 286.517 575.094 286.273C575.487 286.023 575.685 285.702 575.691 285.31C575.685 284.98 575.546 284.71 575.273 284.5C575.001 284.284 574.58 284.119 574.012 284.006L571.745 283.554C570.467 283.298 569.515 282.855 568.89 282.224C568.271 281.594 567.961 280.79 567.961 279.812C567.961 278.972 568.188 278.247 568.643 277.639C569.103 277.031 569.748 276.562 570.577 276.233C571.413 275.903 572.39 275.739 573.509 275.739C575.163 275.739 576.464 276.088 577.413 276.787C578.367 277.486 578.924 278.437 579.083 279.642ZM590.955 289.247C590.12 289.247 589.376 289.102 588.722 288.812C588.069 288.517 587.552 288.082 587.171 287.509C586.796 286.929 586.609 286.207 586.609 285.344C586.609 284.616 586.742 284.006 587.009 283.511C587.276 283.017 587.64 282.619 588.1 282.318C588.56 282.017 589.083 281.79 589.668 281.636C590.259 281.483 590.879 281.375 591.526 281.312C592.288 281.233 592.901 281.159 593.367 281.091C593.833 281.017 594.171 280.909 594.381 280.767C594.592 280.625 594.697 280.415 594.697 280.136V280.085C594.697 279.545 594.526 279.128 594.185 278.832C593.85 278.537 593.373 278.389 592.754 278.389C592.1 278.389 591.58 278.534 591.194 278.824C590.808 279.108 590.552 279.466 590.427 279.898L587.069 279.625C587.239 278.83 587.575 278.142 588.075 277.562C588.575 276.977 589.219 276.528 590.009 276.216C590.805 275.898 591.725 275.739 592.771 275.739C593.498 275.739 594.194 275.824 594.859 275.994C595.529 276.165 596.123 276.429 596.64 276.787C597.163 277.145 597.575 277.605 597.876 278.168C598.177 278.724 598.327 279.392 598.327 280.17V289H594.884V287.185H594.782C594.572 287.594 594.29 287.955 593.938 288.267C593.586 288.574 593.163 288.815 592.668 288.991C592.174 289.162 591.603 289.247 590.955 289.247ZM591.995 286.741C592.529 286.741 593.001 286.636 593.41 286.426C593.819 286.21 594.14 285.92 594.373 285.557C594.606 285.193 594.722 284.781 594.722 284.321V282.932C594.609 283.006 594.452 283.074 594.254 283.136C594.06 283.193 593.842 283.247 593.597 283.298C593.353 283.344 593.109 283.386 592.864 283.426C592.62 283.46 592.398 283.491 592.2 283.52C591.773 283.582 591.401 283.682 591.083 283.818C590.765 283.955 590.518 284.139 590.342 284.372C590.165 284.599 590.077 284.884 590.077 285.224C590.077 285.719 590.256 286.097 590.614 286.358C590.978 286.614 591.438 286.741 591.995 286.741ZM604.775 281.432V289H601.144V275.909H604.604V278.219H604.758C605.048 277.457 605.533 276.855 606.215 276.412C606.897 275.963 607.724 275.739 608.695 275.739C609.604 275.739 610.397 275.938 611.073 276.335C611.749 276.733 612.275 277.301 612.65 278.04C613.025 278.773 613.212 279.648 613.212 280.665V289H609.582V281.312C609.587 280.511 609.383 279.886 608.968 279.438C608.553 278.983 607.982 278.756 607.255 278.756C606.766 278.756 606.335 278.861 605.96 279.071C605.59 279.281 605.3 279.588 605.09 279.991C604.886 280.389 604.781 280.869 604.775 281.432ZM630.023 283.426V275.909H633.654V289H630.168V286.622H630.032C629.737 287.389 629.245 288.006 628.558 288.472C627.876 288.937 627.043 289.17 626.06 289.17C625.185 289.17 624.415 288.972 623.751 288.574C623.086 288.176 622.566 287.611 622.191 286.878C621.822 286.145 621.634 285.267 621.629 284.244V275.909H625.259V283.597C625.265 284.369 625.472 284.98 625.881 285.429C626.29 285.878 626.839 286.102 627.526 286.102C627.964 286.102 628.373 286.003 628.754 285.804C629.134 285.599 629.441 285.298 629.674 284.901C629.913 284.503 630.029 284.011 630.023 283.426ZM640.189 281.432V289H636.558V275.909H640.018V278.219H640.172C640.462 277.457 640.947 276.855 641.629 276.412C642.311 275.963 643.138 275.739 644.109 275.739C645.018 275.739 645.811 275.938 646.487 276.335C647.163 276.733 647.689 277.301 648.064 278.04C648.439 278.773 648.626 279.648 648.626 280.665V289H644.996V281.312C645.001 280.511 644.797 279.886 644.382 279.438C643.967 278.983 643.396 278.756 642.669 278.756C642.18 278.756 641.749 278.861 641.374 279.071C641.004 279.281 640.714 279.588 640.504 279.991C640.3 280.389 640.195 280.869 640.189 281.432ZM657.403 289.256C656.079 289.256 654.934 288.974 653.968 288.412C653.008 287.844 652.266 287.054 651.744 286.043C651.221 285.026 650.96 283.847 650.96 282.506C650.96 281.153 651.221 279.972 651.744 278.96C652.266 277.943 653.008 277.153 653.968 276.591C654.934 276.023 656.079 275.739 657.403 275.739C658.727 275.739 659.869 276.023 660.829 276.591C661.795 277.153 662.539 277.943 663.062 278.96C663.585 279.972 663.846 281.153 663.846 282.506C663.846 283.847 663.585 285.026 663.062 286.043C662.539 287.054 661.795 287.844 660.829 288.412C659.869 288.974 658.727 289.256 657.403 289.256ZM657.42 286.443C658.022 286.443 658.525 286.273 658.928 285.932C659.332 285.585 659.636 285.114 659.84 284.517C660.05 283.92 660.156 283.241 660.156 282.48C660.156 281.719 660.05 281.04 659.84 280.443C659.636 279.847 659.332 279.375 658.928 279.028C658.525 278.682 658.022 278.509 657.42 278.509C656.812 278.509 656.3 278.682 655.886 279.028C655.477 279.375 655.167 279.847 654.957 280.443C654.752 281.04 654.65 281.719 654.65 282.48C654.65 283.241 654.752 283.92 654.957 284.517C655.167 285.114 655.477 285.585 655.886 285.932C656.3 286.273 656.812 286.443 657.42 286.443ZM666.207 289V275.909H669.727V278.193H669.863C670.102 277.381 670.502 276.767 671.065 276.352C671.627 275.932 672.275 275.722 673.008 275.722C673.19 275.722 673.386 275.733 673.596 275.756C673.806 275.778 673.991 275.81 674.15 275.849V279.071C673.979 279.02 673.744 278.974 673.442 278.935C673.141 278.895 672.866 278.875 672.616 278.875C672.082 278.875 671.604 278.991 671.184 279.224C670.769 279.452 670.44 279.77 670.195 280.179C669.957 280.588 669.837 281.06 669.837 281.594V289H666.207ZM680.241 289.213C679.247 289.213 678.347 288.957 677.54 288.446C676.739 287.929 676.102 287.17 675.631 286.17C675.165 285.165 674.932 283.932 674.932 282.472C674.932 280.972 675.173 279.724 675.656 278.73C676.139 277.73 676.781 276.983 677.582 276.489C678.389 275.989 679.273 275.739 680.233 275.739C680.966 275.739 681.577 275.864 682.065 276.114C682.56 276.358 682.957 276.665 683.259 277.034C683.565 277.398 683.798 277.756 683.957 278.108H684.068V271.545H687.69V289H684.111V286.903H683.957C683.787 287.267 683.545 287.628 683.233 287.986C682.926 288.338 682.526 288.631 682.031 288.864C681.543 289.097 680.946 289.213 680.241 289.213ZM681.392 286.324C681.977 286.324 682.472 286.165 682.875 285.847C683.284 285.523 683.597 285.071 683.812 284.491C684.034 283.912 684.145 283.233 684.145 282.455C684.145 281.676 684.037 281 683.821 280.426C683.605 279.852 683.293 279.409 682.884 279.097C682.474 278.784 681.977 278.628 681.392 278.628C680.795 278.628 680.293 278.79 679.884 279.114C679.474 279.437 679.165 279.886 678.955 280.46C678.744 281.034 678.639 281.699 678.639 282.455C678.639 283.216 678.744 283.889 678.955 284.474C679.17 285.054 679.48 285.509 679.884 285.838C680.293 286.162 680.795 286.324 681.392 286.324ZM696.641 289.256C695.295 289.256 694.136 288.983 693.164 288.438C692.198 287.886 691.454 287.108 690.931 286.102C690.408 285.091 690.147 283.895 690.147 282.514C690.147 281.168 690.408 279.986 690.931 278.969C691.454 277.952 692.19 277.159 693.138 276.591C694.093 276.023 695.212 275.739 696.496 275.739C697.36 275.739 698.164 275.878 698.908 276.156C699.658 276.429 700.312 276.841 700.869 277.392C701.431 277.943 701.869 278.636 702.181 279.472C702.494 280.301 702.65 281.273 702.65 282.386V283.384H691.596V281.134H699.232C699.232 280.611 699.119 280.148 698.891 279.744C698.664 279.341 698.349 279.026 697.945 278.798C697.548 278.565 697.085 278.449 696.556 278.449C696.005 278.449 695.516 278.577 695.09 278.832C694.67 279.082 694.34 279.42 694.102 279.847C693.863 280.267 693.741 280.736 693.735 281.253V283.392C693.735 284.04 693.854 284.599 694.093 285.071C694.337 285.543 694.681 285.906 695.124 286.162C695.567 286.418 696.093 286.545 696.701 286.545C697.104 286.545 697.474 286.489 697.809 286.375C698.144 286.261 698.431 286.091 698.67 285.864C698.908 285.636 699.09 285.358 699.215 285.028L702.573 285.25C702.403 286.057 702.053 286.761 701.525 287.364C701.002 287.96 700.326 288.426 699.496 288.761C698.673 289.091 697.721 289.256 696.641 289.256ZM705.019 289V275.909H708.539V278.193H708.675C708.914 277.381 709.315 276.767 709.877 276.352C710.44 275.932 711.087 275.722 711.82 275.722C712.002 275.722 712.198 275.733 712.408 275.756C712.619 275.778 712.803 275.81 712.962 275.849V279.071C712.792 279.02 712.556 278.974 712.255 278.935C711.954 278.895 711.678 278.875 711.428 278.875C710.894 278.875 710.417 278.991 709.996 279.224C709.582 279.452 709.252 279.77 709.008 280.179C708.769 280.588 708.65 281.06 708.65 281.594V289H705.019ZM720.196 289.256C718.849 289.256 717.69 288.983 716.719 288.438C715.753 287.886 715.009 287.108 714.486 286.102C713.963 285.091 713.702 283.895 713.702 282.514C713.702 281.168 713.963 279.986 714.486 278.969C715.009 277.952 715.744 277.159 716.693 276.591C717.648 276.023 718.767 275.739 720.051 275.739C720.915 275.739 721.719 275.878 722.463 276.156C723.213 276.429 723.866 276.841 724.423 277.392C724.986 277.943 725.423 278.636 725.736 279.472C726.048 280.301 726.205 281.273 726.205 282.386V283.384H715.151V281.134H722.787C722.787 280.611 722.673 280.148 722.446 279.744C722.219 279.341 721.903 279.026 721.5 278.798C721.102 278.565 720.639 278.449 720.111 278.449C719.56 278.449 719.071 278.577 718.645 278.832C718.224 279.082 717.895 279.42 717.656 279.847C717.418 280.267 717.295 280.736 717.29 281.253V283.392C717.29 284.04 717.409 284.599 717.648 285.071C717.892 285.543 718.236 285.906 718.679 286.162C719.122 286.418 719.648 286.545 720.256 286.545C720.659 286.545 721.028 286.489 721.364 286.375C721.699 286.261 721.986 286.091 722.224 285.864C722.463 285.636 722.645 285.358 722.77 285.028L726.128 285.25C725.957 286.057 725.608 286.761 725.08 287.364C724.557 287.96 723.881 288.426 723.051 288.761C722.227 289.091 721.276 289.256 720.196 289.256ZM733.398 289.213C732.403 289.213 731.503 288.957 730.696 288.446C729.895 287.929 729.259 287.17 728.787 286.17C728.321 285.165 728.088 283.932 728.088 282.472C728.088 280.972 728.33 279.724 728.812 278.73C729.295 277.73 729.938 276.983 730.739 276.489C731.545 275.989 732.429 275.739 733.389 275.739C734.122 275.739 734.733 275.864 735.222 276.114C735.716 276.358 736.114 276.665 736.415 277.034C736.722 277.398 736.955 277.756 737.114 278.108H737.224V271.545H740.847V289H737.267V286.903H737.114C736.943 287.267 736.702 287.628 736.389 287.986C736.082 288.338 735.682 288.631 735.188 288.864C734.699 289.097 734.102 289.213 733.398 289.213ZM734.548 286.324C735.134 286.324 735.628 286.165 736.031 285.847C736.44 285.523 736.753 285.071 736.969 284.491C737.19 283.912 737.301 283.233 737.301 282.455C737.301 281.676 737.193 281 736.977 280.426C736.761 279.852 736.449 279.409 736.04 279.097C735.631 278.784 735.134 278.628 734.548 278.628C733.952 278.628 733.449 278.79 733.04 279.114C732.631 279.437 732.321 279.886 732.111 280.46C731.901 281.034 731.795 281.699 731.795 282.455C731.795 283.216 731.901 283.889 732.111 284.474C732.327 285.054 732.636 285.509 733.04 285.838C733.449 286.162 733.952 286.324 734.548 286.324ZM572.614 308.642L569.29 308.847C569.234 308.562 569.112 308.307 568.924 308.08C568.737 307.847 568.489 307.662 568.183 307.526C567.881 307.384 567.521 307.312 567.1 307.312C566.538 307.312 566.063 307.432 565.677 307.67C565.29 307.903 565.097 308.216 565.097 308.608C565.097 308.92 565.222 309.185 565.472 309.401C565.722 309.616 566.151 309.79 566.759 309.92L569.129 310.398C570.401 310.659 571.35 311.08 571.975 311.659C572.6 312.239 572.913 313 572.913 313.943C572.913 314.801 572.66 315.554 572.154 316.202C571.654 316.849 570.967 317.355 570.092 317.719C569.222 318.077 568.219 318.256 567.083 318.256C565.35 318.256 563.969 317.895 562.941 317.173C561.918 316.446 561.319 315.457 561.143 314.207L564.714 314.02C564.822 314.548 565.083 314.952 565.498 315.23C565.913 315.503 566.444 315.639 567.092 315.639C567.728 315.639 568.239 315.517 568.626 315.273C569.018 315.023 569.217 314.702 569.222 314.31C569.217 313.98 569.077 313.71 568.805 313.5C568.532 313.284 568.112 313.119 567.543 313.006L565.276 312.554C563.998 312.298 563.046 311.855 562.421 311.224C561.802 310.594 561.492 309.79 561.492 308.812C561.492 307.972 561.719 307.247 562.174 306.639C562.634 306.031 563.279 305.562 564.109 305.233C564.944 304.903 565.921 304.739 567.04 304.739C568.694 304.739 569.995 305.088 570.944 305.787C571.898 306.486 572.455 307.437 572.614 308.642ZM582.162 304.909V307.636H574.278V304.909H582.162ZM576.068 301.773H579.699V313.977C579.699 314.312 579.75 314.574 579.852 314.761C579.955 314.943 580.097 315.071 580.278 315.145C580.466 315.219 580.682 315.256 580.926 315.256C581.097 315.256 581.267 315.241 581.438 315.213C581.608 315.179 581.739 315.153 581.83 315.136L582.401 317.838C582.219 317.895 581.963 317.96 581.634 318.034C581.304 318.114 580.903 318.162 580.432 318.179C579.557 318.213 578.79 318.097 578.131 317.83C577.477 317.562 576.969 317.148 576.605 316.585C576.241 316.023 576.063 315.312 576.068 314.455V301.773ZM584.527 318V304.909H588.047V307.193H588.183C588.422 306.381 588.822 305.767 589.385 305.352C589.947 304.932 590.595 304.722 591.328 304.722C591.51 304.722 591.706 304.733 591.916 304.756C592.126 304.778 592.311 304.81 592.47 304.849V308.071C592.3 308.02 592.064 307.974 591.763 307.935C591.462 307.895 591.186 307.875 590.936 307.875C590.402 307.875 589.925 307.991 589.504 308.224C589.089 308.452 588.76 308.77 588.516 309.179C588.277 309.588 588.158 310.06 588.158 310.594V318H584.527ZM602.742 312.426V304.909H606.373V318H602.887V315.622H602.751C602.455 316.389 601.964 317.006 601.276 317.472C600.594 317.937 599.762 318.17 598.779 318.17C597.904 318.17 597.134 317.972 596.469 317.574C595.805 317.176 595.285 316.611 594.91 315.878C594.54 315.145 594.353 314.267 594.347 313.244V304.909H597.978V312.597C597.984 313.369 598.191 313.98 598.6 314.429C599.009 314.878 599.558 315.102 600.245 315.102C600.683 315.102 601.092 315.003 601.472 314.804C601.853 314.599 602.16 314.298 602.393 313.901C602.631 313.503 602.748 313.011 602.742 312.426ZM615.192 318.256C613.851 318.256 612.697 317.972 611.732 317.403C610.771 316.83 610.033 316.034 609.516 315.017C609.004 314 608.749 312.83 608.749 311.506C608.749 310.165 609.007 308.989 609.524 307.977C610.047 306.96 610.788 306.168 611.749 305.599C612.709 305.026 613.851 304.739 615.175 304.739C616.317 304.739 617.317 304.946 618.175 305.361C619.033 305.776 619.712 306.358 620.212 307.108C620.712 307.858 620.987 308.739 621.038 309.75H617.612C617.516 309.097 617.26 308.571 616.845 308.173C616.436 307.77 615.899 307.568 615.234 307.568C614.672 307.568 614.18 307.722 613.76 308.028C613.345 308.33 613.021 308.77 612.788 309.349C612.555 309.929 612.439 310.631 612.439 311.455C612.439 312.29 612.553 313 612.78 313.585C613.013 314.17 613.339 314.616 613.76 314.923C614.18 315.23 614.672 315.384 615.234 315.384C615.649 315.384 616.021 315.298 616.351 315.128C616.686 314.957 616.962 314.71 617.178 314.386C617.399 314.057 617.544 313.662 617.612 313.202H621.038C620.982 314.202 620.709 315.082 620.22 315.844C619.737 316.599 619.07 317.19 618.217 317.616C617.365 318.043 616.357 318.256 615.192 318.256ZM630.326 304.909V307.636H622.442V304.909H630.326ZM624.232 301.773H627.863V313.977C627.863 314.312 627.914 314.574 628.016 314.761C628.119 314.943 628.261 315.071 628.442 315.145C628.63 315.219 628.846 315.256 629.09 315.256C629.261 315.256 629.431 315.241 629.602 315.213C629.772 315.179 629.903 315.153 629.994 315.136L630.565 317.838C630.383 317.895 630.127 317.96 629.798 318.034C629.468 318.114 629.067 318.162 628.596 318.179C627.721 318.213 626.954 318.097 626.295 317.83C625.641 317.562 625.133 317.148 624.769 316.585C624.406 316.023 624.227 315.312 624.232 314.455V301.773ZM641.086 312.426V304.909H644.717V318H641.231V315.622H641.094C640.799 316.389 640.308 317.006 639.62 317.472C638.938 317.937 638.106 318.17 637.123 318.17C636.248 318.17 635.478 317.972 634.813 317.574C634.148 317.176 633.629 316.611 633.254 315.878C632.884 315.145 632.697 314.267 632.691 313.244V304.909H636.322V312.597C636.327 313.369 636.535 313.98 636.944 314.429C637.353 314.878 637.901 315.102 638.589 315.102C639.026 315.102 639.435 315.003 639.816 314.804C640.197 314.599 640.504 314.298 640.737 313.901C640.975 313.503 641.092 313.011 641.086 312.426ZM647.621 318V304.909H651.141V307.193H651.277C651.516 306.381 651.916 305.767 652.479 305.352C653.041 304.932 653.689 304.722 654.422 304.722C654.604 304.722 654.8 304.733 655.01 304.756C655.22 304.778 655.405 304.81 655.564 304.849V308.071C655.393 308.02 655.158 307.974 654.857 307.935C654.555 307.895 654.28 307.875 654.03 307.875C653.496 307.875 653.018 307.991 652.598 308.224C652.183 308.452 651.854 308.77 651.609 309.179C651.371 309.588 651.251 310.06 651.251 310.594V318H647.621ZM662.798 318.256C661.451 318.256 660.292 317.983 659.32 317.438C658.354 316.886 657.61 316.108 657.087 315.102C656.565 314.091 656.303 312.895 656.303 311.514C656.303 310.168 656.565 308.986 657.087 307.969C657.61 306.952 658.346 306.159 659.295 305.591C660.249 305.023 661.369 304.739 662.653 304.739C663.516 304.739 664.32 304.878 665.065 305.156C665.815 305.429 666.468 305.841 667.025 306.392C667.587 306.943 668.025 307.636 668.337 308.472C668.65 309.301 668.806 310.273 668.806 311.386V312.384H657.752V310.134H665.388C665.388 309.611 665.275 309.148 665.048 308.744C664.82 308.341 664.505 308.026 664.102 307.798C663.704 307.565 663.241 307.449 662.712 307.449C662.161 307.449 661.673 307.577 661.246 307.832C660.826 308.082 660.496 308.42 660.258 308.847C660.019 309.267 659.897 309.736 659.891 310.253V312.392C659.891 313.04 660.011 313.599 660.249 314.071C660.494 314.543 660.837 314.906 661.281 315.162C661.724 315.418 662.249 315.545 662.857 315.545C663.261 315.545 663.63 315.489 663.965 315.375C664.3 315.261 664.587 315.091 664.826 314.864C665.065 314.636 665.246 314.358 665.371 314.028L668.729 314.25C668.559 315.057 668.21 315.761 667.681 316.364C667.158 316.96 666.482 317.426 665.653 317.761C664.829 318.091 663.877 318.256 662.798 318.256Z" fill="white"/>
<rect x="507" y="73.8241" width="80.7887" height="81" transform="rotate(-23.8868 507 73.8241)" fill="#FECC1B"/>
<g filter="url(#filter0_d_2_14)">
<rect x="642.498" y="37.2102" width="80.7887" height="81" transform="rotate(12.3041 642.498 37.2102)" fill="#FECC1B"/>
<rect x="642.88" y="37.8053" width="79.7887" height="80" transform="rotate(12.3041 642.88 37.8053)" stroke="black"/>
</g>
<g filter="url(#filter1_d_2_14)">
<rect x="546.261" y="114" width="80.7887" height="81" transform="rotate(12.3041 546.261 114)" fill="#FECC1B"/>
<rect x="546.643" y="114.595" width="79.7887" height="80" transform="rotate(12.3041 546.643 114.595)" stroke="black"/>
</g>
<g filter="url(#filter2_d_2_14)">
<rect x="681.261" y="77" width="80.7887" height="81" transform="rotate(12.3041 681.261 77)" fill="#FECC1B"/>
<rect x="681.643" y="77.5951" width="79.7887" height="80" transform="rotate(12.3041 681.643 77.5951)" stroke="black"/>
</g>
<g filter="url(#filter3_d_2_14)">
<rect x="645.081" y="129.887" width="80.7887" height="81" transform="rotate(-6.97976 645.081 129.887)" fill="#FECC1B"/>
<rect x="645.638" y="130.322" width="79.7887" height="80" transform="rotate(-6.97976 645.638 130.322)" stroke="black"/>
</g>
<g filter="url(#filter4_d_2_14)">
<rect x="614.687" y="78" width="80.7887" height="81" transform="rotate(34.3357 614.687 78)" fill="#FECC1B"/>
<rect x="614.818" y="78.6949" width="79.7887" height="80" transform="rotate(34.3357 614.818 78.6949)" stroke="black"/>
</g>
<defs>
<filter id="filter0_d_2_14" x="621.237" y="37.2102" width="104.194" height="104.356" filterUnits="userSpaceOnUse" color-interpolation-filters="sRGB">
<feFlood flood-opacity="0" result="BackgroundImageFix"/>
<feColorMatrix in="SourceAlpha" type="matrix" values="0 0 0 0 0 0 0 0 0 0 0 0 0 0 0 0 0 0 127 0" result="hardAlpha"/>
<feOffset dy="4"/>
<feGaussianBlur stdDeviation="2"/>
<feComposite in2="hardAlpha" operator="out"/>
<feColorMatrix type="matrix" values="0 0 0 0 0 0 0 0 0 0 0 0 0 0 0 0 0 0 0.25 0"/>
<feBlend mode="normal" in2="BackgroundImageFix" result="effect1_dropShadow_2_14"/>
<feBlend mode="normal" in="SourceGraphic" in2="effect1_dropShadow_2_14" result="shape"/>
</filter>
<filter id="filter1_d_2_14" x="525" y="114" width="104.194" height="104.356" filterUnits="userSpaceOnUse" color-interpolation-filters="sRGB">
<feFlood flood-opacity="0" result="BackgroundImageFix"/>
<feColorMatrix in="SourceAlpha" type="matrix" values="0 0 0 0 0 0 0 0 0 0 0 0 0 0 0 0 0 0 127 0" result="hardAlpha"/>
<feOffset dy="4"/>
<feGaussianBlur stdDeviation="2"/>
<feComposite in2="hardAlpha" operator="out"/>
<feColorMatrix type="matrix" values="0 0 0 0 0 0 0 0 0 0 0 0 0 0 0 0 0 0 0.25 0"/>
<feBlend mode="normal" in2="BackgroundImageFix" result="effect1_dropShadow_2_14"/>
<feBlend mode="normal" in="SourceGraphic" in2="effect1_dropShadow_2_14" result="shape"/>
</filter>
<filter id="filter2_d_2_14" x="660" y="77" width="104.194" height="104.356" filterUnits="userSpaceOnUse" color-interpolation-filters="sRGB">
<feFlood flood-opacity="0" result="BackgroundImageFix"/>
<feColorMatrix in="SourceAlpha" type="matrix" values="0 0 0 0 0 0 0 0 0 0 0 0 0 0 0 0 0 0 127 0" result="hardAlpha"/>
<feOffset dy="4"/>
<feGaussianBlur stdDeviation="2"/>
<feComposite in2="hardAlpha" operator="out"/>
<feColorMatrix type="matrix" values="0 0 0 0 0 0 0 0 0 0 0 0 0 0 0 0 0 0 0.25 0"/>
<feBlend mode="normal" in2="BackgroundImageFix" result="effect1_dropShadow_2_14"/>
<feBlend mode="normal" in="SourceGraphic" in2="effect1_dropShadow_2_14" result="shape"/>
</filter>
<filter id="filter3_d_2_14" x="641.081" y="120.069" width="98.0331" height="98.2171" filterUnits="userSpaceOnUse" color-interpolation-filters="sRGB">
<feFlood flood-opacity="0" result="BackgroundImageFix"/>
<feColorMatrix in="SourceAlpha" type="matrix" values="0 0 0 0 0 0 0 0 0 0 0 0 0 0 0 0 0 0 127 0" result="hardAlpha"/>
<feOffset dy="4"/>
<feGaussianBlur stdDeviation="2"/>
<feComposite in2="hardAlpha" operator="out"/>
<feColorMatrix type="matrix" values="0 0 0 0 0 0 0 0 0 0 0 0 0 0 0 0 0 0 0.25 0"/>
<feBlend mode="normal" in2="BackgroundImageFix" result="effect1_dropShadow_2_14"/>
<feBlend mode="normal" in="SourceGraphic" in2="effect1_dropShadow_2_14" result="shape"/>
</filter>
<filter id="filter4_d_2_14" x="565" y="78" width="120.398" height="120.454" filterUnits="userSpaceOnUse" color-interpolation-filters="sRGB">
<feFlood flood-opacity="0" result="BackgroundImageFix"/>
<feColorMatrix in="SourceAlpha" type="matrix" values="0 0 0 0 0 0 0 0 0 0 0 0 0 0 0 0 0 0 127 0" result="hardAlpha"/>
<feOffset dy="4"/>
<feGaussianBlur stdDeviation="2"/>
<feComposite in2="hardAlpha" operator="out"/>
<feColorMatrix type="matrix" values="0 0 0 0 0 0 0 0 0 0 0 0 0 0 0 0 0 0 0.25 0"/>
<feBlend mode="normal" in2="BackgroundImageFix" result="effect1_dropShadow_2_14"/>
<feBlend mode="normal" in="SourceGraphic" in2="effect1_dropShadow_2_14" result="shape"/>
</filter>
</defs>
</svg>
