<svg width="858" height="348" viewBox="0 0 858 348" fill="none" xmlns="http://www.w3.org/2000/svg">
<rect width="858" height="348" fill="#121212"/>
<path d="M378.92 97.11L229.96 29L81 97.11L229.96 165.22L378.92 97.11ZM229.96 42.1494L350.101 97.0822L229.96 152.043L109.819 97.11L229.96 42.1494ZM342.805 137.309L350.131 140.645L229.96 195.605L109.819 140.645L117.146 137.309L102.736 130.72L81 140.645L229.96 208.755L378.92 140.645L357.214 130.72L342.805 137.309ZM342.805 178.175L350.131 181.511L229.96 236.471L109.819 181.511L117.146 178.175L102.736 171.586L81 181.511L229.96 249.621L378.92 181.511L357.214 171.586L342.805 178.175Z" fill="#3DEFE9"/>
<path d="M125.533 276.565C125.464 275.878 125.172 275.344 124.655 274.963C124.138 274.582 123.436 274.392 122.55 274.392C121.947 274.392 121.439 274.477 121.024 274.648C120.609 274.812 120.291 275.043 120.07 275.338C119.854 275.634 119.746 275.969 119.746 276.344C119.734 276.656 119.8 276.929 119.942 277.162C120.089 277.395 120.291 277.597 120.547 277.767C120.803 277.932 121.098 278.077 121.433 278.202C121.768 278.321 122.126 278.423 122.507 278.509L124.075 278.884C124.837 279.054 125.536 279.281 126.172 279.565C126.808 279.849 127.359 280.199 127.825 280.614C128.291 281.028 128.652 281.517 128.908 282.08C129.169 282.642 129.303 283.287 129.308 284.014C129.303 285.082 129.03 286.009 128.49 286.793C127.956 287.571 127.183 288.176 126.172 288.608C125.166 289.034 123.953 289.247 122.533 289.247C121.124 289.247 119.896 289.031 118.851 288.599C117.811 288.168 116.999 287.528 116.413 286.682C115.834 285.83 115.53 284.776 115.501 283.52H119.072C119.112 284.105 119.28 284.594 119.575 284.986C119.876 285.372 120.277 285.665 120.777 285.864C121.283 286.057 121.854 286.153 122.49 286.153C123.115 286.153 123.658 286.062 124.118 285.881C124.584 285.699 124.945 285.446 125.2 285.122C125.456 284.798 125.584 284.426 125.584 284.006C125.584 283.614 125.467 283.284 125.234 283.017C125.007 282.75 124.672 282.523 124.229 282.335C123.791 282.148 123.254 281.977 122.618 281.824L120.717 281.347C119.246 280.989 118.084 280.429 117.232 279.668C116.379 278.906 115.956 277.881 115.962 276.591C115.956 275.534 116.237 274.611 116.805 273.821C117.379 273.031 118.166 272.415 119.166 271.972C120.166 271.528 121.303 271.307 122.575 271.307C123.871 271.307 125.001 271.528 125.967 271.972C126.939 272.415 127.695 273.031 128.234 273.821C128.774 274.611 129.053 275.526 129.07 276.565H125.533ZM138.685 275.909V278.636H130.802V275.909H138.685ZM132.592 272.773H136.222V284.977C136.222 285.312 136.273 285.574 136.376 285.761C136.478 285.943 136.62 286.071 136.802 286.145C136.989 286.219 137.205 286.256 137.45 286.256C137.62 286.256 137.79 286.241 137.961 286.213C138.131 286.179 138.262 286.153 138.353 286.136L138.924 288.838C138.742 288.895 138.487 288.96 138.157 289.034C137.827 289.114 137.427 289.162 136.955 289.179C136.08 289.213 135.313 289.097 134.654 288.83C134.001 288.562 133.492 288.148 133.129 287.585C132.765 287.023 132.586 286.312 132.592 285.455V272.773ZM144.783 289.247C143.948 289.247 143.204 289.102 142.55 288.812C141.897 288.517 141.38 288.082 140.999 287.509C140.624 286.929 140.437 286.207 140.437 285.344C140.437 284.616 140.57 284.006 140.837 283.511C141.104 283.017 141.468 282.619 141.928 282.318C142.388 282.017 142.911 281.79 143.496 281.636C144.087 281.483 144.707 281.375 145.354 281.312C146.116 281.233 146.729 281.159 147.195 281.091C147.661 281.017 147.999 280.909 148.21 280.767C148.42 280.625 148.525 280.415 148.525 280.136V280.085C148.525 279.545 148.354 279.128 148.013 278.832C147.678 278.537 147.201 278.389 146.582 278.389C145.928 278.389 145.408 278.534 145.022 278.824C144.636 279.108 144.38 279.466 144.255 279.898L140.897 279.625C141.067 278.83 141.403 278.142 141.903 277.562C142.403 276.977 143.048 276.528 143.837 276.216C144.633 275.898 145.553 275.739 146.599 275.739C147.326 275.739 148.022 275.824 148.687 275.994C149.357 276.165 149.951 276.429 150.468 276.787C150.991 277.145 151.403 277.605 151.704 278.168C152.005 278.724 152.156 279.392 152.156 280.17V289H148.712V287.185H148.61C148.4 287.594 148.119 287.955 147.766 288.267C147.414 288.574 146.991 288.815 146.496 288.991C146.002 289.162 145.431 289.247 144.783 289.247ZM145.823 286.741C146.357 286.741 146.829 286.636 147.238 286.426C147.647 286.21 147.968 285.92 148.201 285.557C148.434 285.193 148.55 284.781 148.55 284.321V282.932C148.437 283.006 148.281 283.074 148.082 283.136C147.888 283.193 147.67 283.247 147.425 283.298C147.181 283.344 146.937 283.386 146.692 283.426C146.448 283.46 146.227 283.491 146.028 283.52C145.602 283.582 145.229 283.682 144.911 283.818C144.593 283.955 144.346 284.139 144.17 284.372C143.994 284.599 143.906 284.884 143.906 285.224C143.906 285.719 144.085 286.097 144.442 286.358C144.806 286.614 145.266 286.741 145.823 286.741ZM160.887 289.256C159.546 289.256 158.393 288.972 157.427 288.403C156.467 287.83 155.728 287.034 155.211 286.017C154.7 285 154.444 283.83 154.444 282.506C154.444 281.165 154.702 279.989 155.219 278.977C155.742 277.96 156.484 277.168 157.444 276.599C158.404 276.026 159.546 275.739 160.87 275.739C162.012 275.739 163.012 275.946 163.87 276.361C164.728 276.776 165.407 277.358 165.907 278.108C166.407 278.858 166.683 279.739 166.734 280.75H163.308C163.211 280.097 162.955 279.571 162.54 279.173C162.131 278.77 161.594 278.568 160.93 278.568C160.367 278.568 159.876 278.722 159.455 279.028C159.04 279.33 158.717 279.77 158.484 280.349C158.251 280.929 158.134 281.631 158.134 282.455C158.134 283.29 158.248 284 158.475 284.585C158.708 285.17 159.035 285.616 159.455 285.923C159.876 286.23 160.367 286.384 160.93 286.384C161.344 286.384 161.717 286.298 162.046 286.128C162.381 285.957 162.657 285.71 162.873 285.386C163.094 285.057 163.239 284.662 163.308 284.202H166.734C166.677 285.202 166.404 286.082 165.915 286.844C165.433 287.599 164.765 288.19 163.913 288.616C163.06 289.043 162.052 289.256 160.887 289.256ZM172.348 285.233L172.357 280.878H172.885L177.078 275.909H181.246L175.612 282.489H174.751L172.348 285.233ZM169.058 289V271.545H172.689V289H169.058ZM177.24 289L173.388 283.298L175.808 280.733L181.493 289H177.24ZM188.582 289V275.909H192.212V289H188.582ZM190.406 274.222C189.866 274.222 189.403 274.043 189.016 273.685C188.636 273.321 188.445 272.886 188.445 272.381C188.445 271.881 188.636 271.452 189.016 271.094C189.403 270.73 189.866 270.548 190.406 270.548C190.945 270.548 191.406 270.73 191.786 271.094C192.173 271.452 192.366 271.881 192.366 272.381C192.366 272.886 192.173 273.321 191.786 273.685C191.406 274.043 190.945 274.222 190.406 274.222ZM206.013 279.642L202.689 279.847C202.632 279.562 202.51 279.307 202.322 279.08C202.135 278.847 201.888 278.662 201.581 278.526C201.28 278.384 200.919 278.312 200.499 278.312C199.936 278.312 199.462 278.432 199.075 278.67C198.689 278.903 198.496 279.216 198.496 279.608C198.496 279.92 198.621 280.185 198.871 280.401C199.121 280.616 199.55 280.79 200.158 280.92L202.527 281.398C203.8 281.659 204.749 282.08 205.374 282.659C205.999 283.239 206.311 284 206.311 284.943C206.311 285.801 206.058 286.554 205.553 287.202C205.053 287.849 204.365 288.355 203.49 288.719C202.621 289.077 201.618 289.256 200.482 289.256C198.749 289.256 197.368 288.895 196.339 288.173C195.317 287.446 194.717 286.457 194.541 285.207L198.112 285.02C198.22 285.548 198.482 285.952 198.896 286.23C199.311 286.503 199.842 286.639 200.49 286.639C201.126 286.639 201.638 286.517 202.024 286.273C202.416 286.023 202.615 285.702 202.621 285.31C202.615 284.98 202.476 284.71 202.203 284.5C201.93 284.284 201.51 284.119 200.942 284.006L198.675 283.554C197.396 283.298 196.445 282.855 195.82 282.224C195.2 281.594 194.891 280.79 194.891 279.812C194.891 278.972 195.118 278.247 195.572 277.639C196.033 277.031 196.678 276.562 197.507 276.233C198.342 275.903 199.32 275.739 200.439 275.739C202.092 275.739 203.393 276.088 204.342 276.787C205.297 277.486 205.854 278.437 206.013 279.642ZM217.885 289.247C217.05 289.247 216.305 289.102 215.652 288.812C214.999 288.517 214.482 288.082 214.101 287.509C213.726 286.929 213.538 286.207 213.538 285.344C213.538 284.616 213.672 284.006 213.939 283.511C214.206 283.017 214.57 282.619 215.03 282.318C215.49 282.017 216.013 281.79 216.598 281.636C217.189 281.483 217.808 281.375 218.456 281.312C219.217 281.233 219.831 281.159 220.297 281.091C220.763 281.017 221.101 280.909 221.311 280.767C221.521 280.625 221.626 280.415 221.626 280.136V280.085C221.626 279.545 221.456 279.128 221.115 278.832C220.78 278.537 220.303 278.389 219.683 278.389C219.03 278.389 218.51 278.534 218.124 278.824C217.737 279.108 217.482 279.466 217.357 279.898L213.999 279.625C214.169 278.83 214.504 278.142 215.004 277.562C215.504 276.977 216.149 276.528 216.939 276.216C217.734 275.898 218.655 275.739 219.7 275.739C220.428 275.739 221.124 275.824 221.788 275.994C222.459 276.165 223.053 276.429 223.57 276.787C224.092 277.145 224.504 277.605 224.805 278.168C225.107 278.724 225.257 279.392 225.257 280.17V289H221.814V287.185H221.712C221.501 287.594 221.22 287.955 220.868 288.267C220.516 288.574 220.092 288.815 219.598 288.991C219.104 289.162 218.533 289.247 217.885 289.247ZM218.925 286.741C219.459 286.741 219.93 286.636 220.339 286.426C220.749 286.21 221.07 285.92 221.303 285.557C221.536 285.193 221.652 284.781 221.652 284.321V282.932C221.538 283.006 221.382 283.074 221.183 283.136C220.99 283.193 220.771 283.247 220.527 283.298C220.283 283.344 220.038 283.386 219.794 283.426C219.55 283.46 219.328 283.491 219.129 283.52C218.703 283.582 218.331 283.682 218.013 283.818C217.695 283.955 217.447 284.139 217.271 284.372C217.095 284.599 217.007 284.884 217.007 285.224C217.007 285.719 217.186 286.097 217.544 286.358C217.908 286.614 218.368 286.741 218.925 286.741ZM231.705 281.432V289H228.074V275.909H231.534V278.219H231.688C231.977 277.457 232.463 276.855 233.145 276.412C233.827 275.963 234.653 275.739 235.625 275.739C236.534 275.739 237.327 275.938 238.003 276.335C238.679 276.733 239.205 277.301 239.58 278.04C239.955 278.773 240.142 279.648 240.142 280.665V289H236.511V281.312C236.517 280.511 236.313 279.886 235.898 279.438C235.483 278.983 234.912 278.756 234.185 278.756C233.696 278.756 233.264 278.861 232.889 279.071C232.52 279.281 232.23 279.588 232.02 279.991C231.815 280.389 231.71 280.869 231.705 281.432ZM254.473 289.256C253.149 289.256 252.004 288.974 251.038 288.412C250.078 287.844 249.337 287.054 248.814 286.043C248.291 285.026 248.03 283.847 248.03 282.506C248.03 281.153 248.291 279.972 248.814 278.96C249.337 277.943 250.078 277.153 251.038 276.591C252.004 276.023 253.149 275.739 254.473 275.739C255.797 275.739 256.939 276.023 257.899 276.591C258.865 277.153 259.609 277.943 260.132 278.96C260.655 279.972 260.916 281.153 260.916 282.506C260.916 283.847 260.655 285.026 260.132 286.043C259.609 287.054 258.865 287.844 257.899 288.412C256.939 288.974 255.797 289.256 254.473 289.256ZM254.49 286.443C255.092 286.443 255.595 286.273 255.999 285.932C256.402 285.585 256.706 285.114 256.911 284.517C257.121 283.92 257.226 283.241 257.226 282.48C257.226 281.719 257.121 281.04 256.911 280.443C256.706 279.847 256.402 279.375 255.999 279.028C255.595 278.682 255.092 278.509 254.49 278.509C253.882 278.509 253.371 278.682 252.956 279.028C252.547 279.375 252.237 279.847 252.027 280.443C251.822 281.04 251.72 281.719 251.72 282.48C251.72 283.241 251.822 283.92 252.027 284.517C252.237 285.114 252.547 285.585 252.956 285.932C253.371 286.273 253.882 286.443 254.49 286.443ZM263.277 289V275.909H266.797V278.193H266.933C267.172 277.381 267.572 276.767 268.135 276.352C268.697 275.932 269.345 275.722 270.078 275.722C270.26 275.722 270.456 275.733 270.666 275.756C270.876 275.778 271.061 275.81 271.22 275.849V279.071C271.05 279.02 270.814 278.974 270.513 278.935C270.212 278.895 269.936 278.875 269.686 278.875C269.152 278.875 268.675 278.991 268.254 279.224C267.839 279.452 267.51 279.77 267.266 280.179C267.027 280.588 266.908 281.06 266.908 281.594V289H263.277ZM277.312 289.213C276.317 289.213 275.417 288.957 274.61 288.446C273.809 287.929 273.173 287.17 272.701 286.17C272.235 285.165 272.002 283.932 272.002 282.472C272.002 280.972 272.244 279.724 272.727 278.73C273.21 277.73 273.852 276.983 274.653 276.489C275.46 275.989 276.343 275.739 277.303 275.739C278.036 275.739 278.647 275.864 279.136 276.114C279.63 276.358 280.028 276.665 280.329 277.034C280.636 277.398 280.869 277.756 281.028 278.108H281.138V271.545H284.761V289H281.181V286.903H281.028C280.857 287.267 280.616 287.628 280.303 287.986C279.996 288.338 279.596 288.631 279.102 288.864C278.613 289.097 278.016 289.213 277.312 289.213ZM278.462 286.324C279.048 286.324 279.542 286.165 279.945 285.847C280.354 285.523 280.667 285.071 280.883 284.491C281.104 283.912 281.215 283.233 281.215 282.455C281.215 281.676 281.107 281 280.891 280.426C280.675 279.852 280.363 279.409 279.954 279.097C279.545 278.784 279.048 278.628 278.462 278.628C277.866 278.628 277.363 278.79 276.954 279.114C276.545 279.437 276.235 279.886 276.025 280.46C275.815 281.034 275.71 281.699 275.71 282.455C275.71 283.216 275.815 283.889 276.025 284.474C276.241 285.054 276.55 285.509 276.954 285.838C277.363 286.162 277.866 286.324 278.462 286.324ZM293.712 289.256C292.365 289.256 291.206 288.983 290.234 288.438C289.268 287.886 288.524 287.108 288.001 286.102C287.479 285.091 287.217 283.895 287.217 282.514C287.217 281.168 287.479 279.986 288.001 278.969C288.524 277.952 289.26 277.159 290.209 276.591C291.163 276.023 292.283 275.739 293.567 275.739C294.43 275.739 295.234 275.878 295.979 276.156C296.729 276.429 297.382 276.841 297.939 277.392C298.501 277.943 298.939 278.636 299.251 279.472C299.564 280.301 299.72 281.273 299.72 282.386V283.384H288.666V281.134H296.303C296.303 280.611 296.189 280.148 295.962 279.744C295.734 279.341 295.419 279.026 295.016 278.798C294.618 278.565 294.155 278.449 293.626 278.449C293.075 278.449 292.587 278.577 292.161 278.832C291.74 279.082 291.411 279.42 291.172 279.847C290.933 280.267 290.811 280.736 290.805 281.253V283.392C290.805 284.04 290.925 284.599 291.163 285.071C291.408 285.543 291.751 285.906 292.195 286.162C292.638 286.418 293.163 286.545 293.771 286.545C294.175 286.545 294.544 286.489 294.879 286.375C295.214 286.261 295.501 286.091 295.74 285.864C295.979 285.636 296.161 285.358 296.286 285.028L299.643 285.25C299.473 286.057 299.124 286.761 298.595 287.364C298.072 287.96 297.396 288.426 296.567 288.761C295.743 289.091 294.791 289.256 293.712 289.256ZM302.089 289V275.909H305.609V278.193H305.746C305.984 277.381 306.385 276.767 306.947 276.352C307.51 275.932 308.158 275.722 308.891 275.722C309.072 275.722 309.268 275.733 309.479 275.756C309.689 275.778 309.874 275.81 310.033 275.849V279.071C309.862 279.02 309.626 278.974 309.325 278.935C309.024 278.895 308.749 278.875 308.499 278.875C307.964 278.875 307.487 278.991 307.067 279.224C306.652 279.452 306.322 279.77 306.078 280.179C305.839 280.588 305.72 281.06 305.72 281.594V289H302.089ZM317.266 289.256C315.92 289.256 314.761 288.983 313.789 288.438C312.823 287.886 312.079 287.108 311.556 286.102C311.033 285.091 310.772 283.895 310.772 282.514C310.772 281.168 311.033 279.986 311.556 278.969C312.079 277.952 312.815 277.159 313.763 276.591C314.718 276.023 315.837 275.739 317.121 275.739C317.985 275.739 318.789 275.878 319.533 276.156C320.283 276.429 320.937 276.841 321.494 277.392C322.056 277.943 322.494 278.636 322.806 279.472C323.119 280.301 323.275 281.273 323.275 282.386V283.384H312.221V281.134H319.857C319.857 280.611 319.744 280.148 319.516 279.744C319.289 279.341 318.974 279.026 318.57 278.798C318.173 278.565 317.71 278.449 317.181 278.449C316.63 278.449 316.141 278.577 315.715 278.832C315.295 279.082 314.965 279.42 314.727 279.847C314.488 280.267 314.366 280.736 314.36 281.253V283.392C314.36 284.04 314.479 284.599 314.718 285.071C314.962 285.543 315.306 285.906 315.749 286.162C316.192 286.418 316.718 286.545 317.326 286.545C317.729 286.545 318.099 286.489 318.434 286.375C318.769 286.261 319.056 286.091 319.295 285.864C319.533 285.636 319.715 285.358 319.84 285.028L323.198 285.25C323.028 286.057 322.678 286.761 322.15 287.364C321.627 287.96 320.951 288.426 320.121 288.761C319.298 289.091 318.346 289.256 317.266 289.256ZM330.468 289.213C329.474 289.213 328.573 288.957 327.766 288.446C326.965 287.929 326.329 287.17 325.857 286.17C325.391 285.165 325.158 283.932 325.158 282.472C325.158 280.972 325.4 279.724 325.883 278.73C326.366 277.73 327.008 276.983 327.809 276.489C328.616 275.989 329.499 275.739 330.46 275.739C331.192 275.739 331.803 275.864 332.292 276.114C332.786 276.358 333.184 276.665 333.485 277.034C333.792 277.398 334.025 277.756 334.184 278.108H334.295V271.545H337.917V289H334.337V286.903H334.184C334.013 287.267 333.772 287.628 333.46 287.986C333.153 288.338 332.752 288.631 332.258 288.864C331.769 289.097 331.173 289.213 330.468 289.213ZM331.619 286.324C332.204 286.324 332.698 286.165 333.102 285.847C333.511 285.523 333.823 285.071 334.039 284.491C334.261 283.912 334.371 283.233 334.371 282.455C334.371 281.676 334.263 281 334.048 280.426C333.832 279.852 333.519 279.409 333.11 279.097C332.701 278.784 332.204 278.628 331.619 278.628C331.022 278.628 330.519 278.79 330.11 279.114C329.701 279.437 329.391 279.886 329.181 280.46C328.971 281.034 328.866 281.699 328.866 282.455C328.866 283.216 328.971 283.889 329.181 284.474C329.397 285.054 329.707 285.509 330.11 285.838C330.519 286.162 331.022 286.324 331.619 286.324ZM184.614 308.642L181.29 308.847C181.234 308.562 181.112 308.307 180.924 308.08C180.737 307.847 180.489 307.662 180.183 307.526C179.881 307.384 179.521 307.312 179.1 307.312C178.538 307.312 178.063 307.432 177.677 307.67C177.29 307.903 177.097 308.216 177.097 308.608C177.097 308.92 177.222 309.185 177.472 309.401C177.722 309.616 178.151 309.79 178.759 309.92L181.129 310.398C182.401 310.659 183.35 311.08 183.975 311.659C184.6 312.239 184.913 313 184.913 313.943C184.913 314.801 184.66 315.554 184.154 316.202C183.654 316.849 182.967 317.355 182.092 317.719C181.222 318.077 180.219 318.256 179.083 318.256C177.35 318.256 175.969 317.895 174.941 317.173C173.918 316.446 173.319 315.457 173.143 314.207L176.714 314.02C176.822 314.548 177.083 314.952 177.498 315.23C177.913 315.503 178.444 315.639 179.092 315.639C179.728 315.639 180.239 315.517 180.626 315.273C181.018 315.023 181.217 314.702 181.222 314.31C181.217 313.98 181.077 313.71 180.805 313.5C180.532 313.284 180.112 313.119 179.543 313.006L177.276 312.554C175.998 312.298 175.046 311.855 174.421 311.224C173.802 310.594 173.492 309.79 173.492 308.812C173.492 307.972 173.719 307.247 174.174 306.639C174.634 306.031 175.279 305.562 176.109 305.233C176.944 304.903 177.921 304.739 179.04 304.739C180.694 304.739 181.995 305.088 182.944 305.787C183.898 306.486 184.455 307.437 184.614 308.642ZM194.162 304.909V307.636H186.278V304.909H194.162ZM188.068 301.773H191.699V313.977C191.699 314.312 191.75 314.574 191.852 314.761C191.955 314.943 192.097 315.071 192.278 315.145C192.466 315.219 192.682 315.256 192.926 315.256C193.097 315.256 193.267 315.241 193.438 315.213C193.608 315.179 193.739 315.153 193.83 315.136L194.401 317.838C194.219 317.895 193.963 317.96 193.634 318.034C193.304 318.114 192.903 318.162 192.432 318.179C191.557 318.213 190.79 318.097 190.131 317.83C189.477 317.562 188.969 317.148 188.605 316.585C188.241 316.023 188.063 315.312 188.068 314.455V301.773ZM196.527 318V304.909H200.047V307.193H200.183C200.422 306.381 200.822 305.767 201.385 305.352C201.947 304.932 202.595 304.722 203.328 304.722C203.51 304.722 203.706 304.733 203.916 304.756C204.126 304.778 204.311 304.81 204.47 304.849V308.071C204.3 308.02 204.064 307.974 203.763 307.935C203.462 307.895 203.186 307.875 202.936 307.875C202.402 307.875 201.925 307.991 201.504 308.224C201.089 308.452 200.76 308.77 200.516 309.179C200.277 309.588 200.158 310.06 200.158 310.594V318H196.527ZM214.742 312.426V304.909H218.373V318H214.887V315.622H214.751C214.455 316.389 213.964 317.006 213.276 317.472C212.594 317.937 211.762 318.17 210.779 318.17C209.904 318.17 209.134 317.972 208.469 317.574C207.805 317.176 207.285 316.611 206.91 315.878C206.54 315.145 206.353 314.267 206.347 313.244V304.909H209.978V312.597C209.984 313.369 210.191 313.98 210.6 314.429C211.009 314.878 211.558 315.102 212.245 315.102C212.683 315.102 213.092 315.003 213.472 314.804C213.853 314.599 214.16 314.298 214.393 313.901C214.631 313.503 214.748 313.011 214.742 312.426ZM227.192 318.256C225.851 318.256 224.697 317.972 223.732 317.403C222.771 316.83 222.033 316.034 221.516 315.017C221.004 314 220.749 312.83 220.749 311.506C220.749 310.165 221.007 308.989 221.524 307.977C222.047 306.96 222.788 306.168 223.749 305.599C224.709 305.026 225.851 304.739 227.175 304.739C228.317 304.739 229.317 304.946 230.175 305.361C231.033 305.776 231.712 306.358 232.212 307.108C232.712 307.858 232.987 308.739 233.038 309.75H229.612C229.516 309.097 229.26 308.571 228.845 308.173C228.436 307.77 227.899 307.568 227.234 307.568C226.672 307.568 226.18 307.722 225.76 308.028C225.345 308.33 225.021 308.77 224.788 309.349C224.555 309.929 224.439 310.631 224.439 311.455C224.439 312.29 224.553 313 224.78 313.585C225.013 314.17 225.339 314.616 225.76 314.923C226.18 315.23 226.672 315.384 227.234 315.384C227.649 315.384 228.021 315.298 228.351 315.128C228.686 314.957 228.962 314.71 229.178 314.386C229.399 314.057 229.544 313.662 229.612 313.202H233.038C232.982 314.202 232.709 315.082 232.22 315.844C231.737 316.599 231.07 317.19 230.217 317.616C229.365 318.043 228.357 318.256 227.192 318.256ZM242.326 304.909V307.636H234.442V304.909H242.326ZM236.232 301.773H239.863V313.977C239.863 314.312 239.914 314.574 240.016 314.761C240.119 314.943 240.261 315.071 240.442 315.145C240.63 315.219 240.846 315.256 241.09 315.256C241.261 315.256 241.431 315.241 241.602 315.213C241.772 315.179 241.903 315.153 241.994 315.136L242.565 317.838C242.383 317.895 242.127 317.96 241.798 318.034C241.468 318.114 241.067 318.162 240.596 318.179C239.721 318.213 238.954 318.097 238.295 317.83C237.641 317.562 237.133 317.148 236.769 316.585C236.406 316.023 236.227 315.312 236.232 314.455V301.773ZM253.086 312.426V304.909H256.717V318H253.231V315.622H253.094C252.799 316.389 252.308 317.006 251.62 317.472C250.938 317.937 250.106 318.17 249.123 318.17C248.248 318.17 247.478 317.972 246.813 317.574C246.148 317.176 245.629 316.611 245.254 315.878C244.884 315.145 244.697 314.267 244.691 313.244V304.909H248.322V312.597C248.327 313.369 248.535 313.98 248.944 314.429C249.353 314.878 249.901 315.102 250.589 315.102C251.026 315.102 251.435 315.003 251.816 314.804C252.197 314.599 252.504 314.298 252.737 313.901C252.975 313.503 253.092 313.011 253.086 312.426ZM259.621 318V304.909H263.141V307.193H263.277C263.516 306.381 263.916 305.767 264.479 305.352C265.041 304.932 265.689 304.722 266.422 304.722C266.604 304.722 266.8 304.733 267.01 304.756C267.22 304.778 267.405 304.81 267.564 304.849V308.071C267.393 308.02 267.158 307.974 266.857 307.935C266.555 307.895 266.28 307.875 266.03 307.875C265.496 307.875 265.018 307.991 264.598 308.224C264.183 308.452 263.854 308.77 263.609 309.179C263.371 309.588 263.251 310.06 263.251 310.594V318H259.621ZM274.798 318.256C273.451 318.256 272.292 317.983 271.32 317.438C270.354 316.886 269.61 316.108 269.087 315.102C268.565 314.091 268.303 312.895 268.303 311.514C268.303 310.168 268.565 308.986 269.087 307.969C269.61 306.952 270.346 306.159 271.295 305.591C272.249 305.023 273.369 304.739 274.653 304.739C275.516 304.739 276.32 304.878 277.065 305.156C277.815 305.429 278.468 305.841 279.025 306.392C279.587 306.943 280.025 307.636 280.337 308.472C280.65 309.301 280.806 310.273 280.806 311.386V312.384H269.752V310.134H277.388C277.388 309.611 277.275 309.148 277.048 308.744C276.82 308.341 276.505 308.026 276.102 307.798C275.704 307.565 275.241 307.449 274.712 307.449C274.161 307.449 273.673 307.577 273.246 307.832C272.826 308.082 272.496 308.42 272.258 308.847C272.019 309.267 271.897 309.736 271.891 310.253V312.392C271.891 313.04 272.011 313.599 272.249 314.071C272.494 314.543 272.837 314.906 273.281 315.162C273.724 315.418 274.249 315.545 274.857 315.545C275.261 315.545 275.63 315.489 275.965 315.375C276.3 315.261 276.587 315.091 276.826 314.864C277.065 314.636 277.246 314.358 277.371 314.028L280.729 314.25C280.559 315.057 280.21 315.761 279.681 316.364C279.158 316.96 278.482 317.426 277.653 317.761C276.829 318.091 275.877 318.256 274.798 318.256Z" fill="white"/>
<path d="M491.97 289V271.545H495.661V278.747H503.152V271.545H506.834V289H503.152V281.79H495.661V289H491.97ZM515.774 289.256C514.428 289.256 513.268 288.983 512.297 288.438C511.331 287.886 510.587 287.108 510.064 286.102C509.541 285.091 509.28 283.895 509.28 282.514C509.28 281.168 509.541 279.986 510.064 278.969C510.587 277.952 511.322 277.159 512.271 276.591C513.226 276.023 514.345 275.739 515.629 275.739C516.493 275.739 517.297 275.878 518.041 276.156C518.791 276.429 519.445 276.841 520.001 277.392C520.564 277.943 521.001 278.636 521.314 279.472C521.626 280.301 521.783 281.273 521.783 282.386V283.384H510.729V281.134H518.365C518.365 280.611 518.251 280.148 518.024 279.744C517.797 279.341 517.482 279.026 517.078 278.798C516.68 278.565 516.217 278.449 515.689 278.449C515.138 278.449 514.649 278.577 514.223 278.832C513.803 279.082 513.473 279.42 513.234 279.847C512.996 280.267 512.874 280.736 512.868 281.253V283.392C512.868 284.04 512.987 284.599 513.226 285.071C513.47 285.543 513.814 285.906 514.257 286.162C514.7 286.418 515.226 286.545 515.834 286.545C516.237 286.545 516.607 286.489 516.942 286.375C517.277 286.261 517.564 286.091 517.803 285.864C518.041 285.636 518.223 285.358 518.348 285.028L521.706 285.25C521.536 286.057 521.186 286.761 520.658 287.364C520.135 287.96 519.459 288.426 518.629 288.761C517.805 289.091 516.854 289.256 515.774 289.256ZM527.885 289.247C527.05 289.247 526.305 289.102 525.652 288.812C524.999 288.517 524.482 288.082 524.101 287.509C523.726 286.929 523.538 286.207 523.538 285.344C523.538 284.616 523.672 284.006 523.939 283.511C524.206 283.017 524.57 282.619 525.03 282.318C525.49 282.017 526.013 281.79 526.598 281.636C527.189 281.483 527.808 281.375 528.456 281.312C529.217 281.233 529.831 281.159 530.297 281.091C530.763 281.017 531.101 280.909 531.311 280.767C531.521 280.625 531.626 280.415 531.626 280.136V280.085C531.626 279.545 531.456 279.128 531.115 278.832C530.78 278.537 530.303 278.389 529.683 278.389C529.03 278.389 528.51 278.534 528.124 278.824C527.737 279.108 527.482 279.466 527.357 279.898L523.999 279.625C524.169 278.83 524.504 278.142 525.004 277.562C525.504 276.977 526.149 276.528 526.939 276.216C527.734 275.898 528.655 275.739 529.7 275.739C530.428 275.739 531.124 275.824 531.788 275.994C532.459 276.165 533.053 276.429 533.57 276.787C534.092 277.145 534.504 277.605 534.805 278.168C535.107 278.724 535.257 279.392 535.257 280.17V289H531.814V287.185H531.712C531.501 287.594 531.22 287.955 530.868 288.267C530.516 288.574 530.092 288.815 529.598 288.991C529.104 289.162 528.533 289.247 527.885 289.247ZM528.925 286.741C529.459 286.741 529.93 286.636 530.339 286.426C530.749 286.21 531.07 285.92 531.303 285.557C531.536 285.193 531.652 284.781 531.652 284.321V282.932C531.538 283.006 531.382 283.074 531.183 283.136C530.99 283.193 530.771 283.247 530.527 283.298C530.283 283.344 530.038 283.386 529.794 283.426C529.55 283.46 529.328 283.491 529.129 283.52C528.703 283.582 528.331 283.682 528.013 283.818C527.695 283.955 527.447 284.139 527.271 284.372C527.095 284.599 527.007 284.884 527.007 285.224C527.007 285.719 527.186 286.097 527.544 286.358C527.908 286.614 528.368 286.741 528.925 286.741ZM538.074 293.909V275.909H541.653V278.108H541.815C541.974 277.756 542.205 277.398 542.506 277.034C542.813 276.665 543.21 276.358 543.699 276.114C544.193 275.864 544.807 275.739 545.54 275.739C546.494 275.739 547.375 275.989 548.182 276.489C548.989 276.983 549.634 277.73 550.116 278.73C550.599 279.724 550.841 280.972 550.841 282.472C550.841 283.932 550.605 285.165 550.134 286.17C549.668 287.17 549.031 287.929 548.224 288.446C547.423 288.957 546.526 289.213 545.531 289.213C544.827 289.213 544.227 289.097 543.733 288.864C543.244 288.631 542.844 288.338 542.531 287.986C542.219 287.628 541.98 287.267 541.815 286.903H541.705V293.909H538.074ZM541.628 282.455C541.628 283.233 541.736 283.912 541.952 284.491C542.168 285.071 542.48 285.523 542.889 285.847C543.298 286.165 543.795 286.324 544.381 286.324C544.972 286.324 545.472 286.162 545.881 285.838C546.29 285.509 546.599 285.054 546.81 284.474C547.026 283.889 547.134 283.216 547.134 282.455C547.134 281.699 547.028 281.034 546.818 280.46C546.608 279.886 546.298 279.437 545.889 279.114C545.48 278.79 544.977 278.628 544.381 278.628C543.79 278.628 543.29 278.784 542.881 279.097C542.477 279.409 542.168 279.852 541.952 280.426C541.736 281 541.628 281.676 541.628 282.455ZM558.816 289V275.909H562.447V289H558.816ZM560.64 274.222C560.1 274.222 559.637 274.043 559.251 273.685C558.87 273.321 558.68 272.886 558.68 272.381C558.68 271.881 558.87 271.452 559.251 271.094C559.637 270.73 560.1 270.548 560.64 270.548C561.18 270.548 561.64 270.73 562.021 271.094C562.407 271.452 562.6 271.881 562.6 272.381C562.6 272.886 562.407 273.321 562.021 273.685C561.64 274.043 561.18 274.222 560.64 274.222ZM576.247 279.642L572.923 279.847C572.866 279.562 572.744 279.307 572.557 279.08C572.369 278.847 572.122 278.662 571.815 278.526C571.514 278.384 571.153 278.312 570.733 278.312C570.17 278.312 569.696 278.432 569.31 278.67C568.923 278.903 568.73 279.216 568.73 279.608C568.73 279.92 568.855 280.185 569.105 280.401C569.355 280.616 569.784 280.79 570.392 280.92L572.761 281.398C574.034 281.659 574.983 282.08 575.608 282.659C576.233 283.239 576.545 284 576.545 284.943C576.545 285.801 576.293 286.554 575.787 287.202C575.287 287.849 574.599 288.355 573.724 288.719C572.855 289.077 571.852 289.256 570.716 289.256C568.983 289.256 567.602 288.895 566.574 288.173C565.551 287.446 564.952 286.457 564.776 285.207L568.347 285.02C568.455 285.548 568.716 285.952 569.131 286.23C569.545 286.503 570.077 286.639 570.724 286.639C571.361 286.639 571.872 286.517 572.259 286.273C572.651 286.023 572.849 285.702 572.855 285.31C572.849 284.98 572.71 284.71 572.438 284.5C572.165 284.284 571.744 284.119 571.176 284.006L568.909 283.554C567.631 283.298 566.679 282.855 566.054 282.224C565.435 281.594 565.125 280.79 565.125 279.812C565.125 278.972 565.352 278.247 565.807 277.639C566.267 277.031 566.912 276.562 567.741 276.233C568.577 275.903 569.554 275.739 570.673 275.739C572.327 275.739 573.628 276.088 574.577 276.787C575.531 277.486 576.088 278.437 576.247 279.642ZM588.119 289.247C587.284 289.247 586.54 289.102 585.886 288.812C585.233 288.517 584.716 288.082 584.335 287.509C583.96 286.929 583.773 286.207 583.773 285.344C583.773 284.616 583.906 284.006 584.173 283.511C584.44 283.017 584.804 282.619 585.264 282.318C585.724 282.017 586.247 281.79 586.832 281.636C587.423 281.483 588.043 281.375 588.69 281.312C589.452 281.233 590.065 281.159 590.531 281.091C590.997 281.017 591.335 280.909 591.545 280.767C591.756 280.625 591.861 280.415 591.861 280.136V280.085C591.861 279.545 591.69 279.128 591.349 278.832C591.014 278.537 590.537 278.389 589.918 278.389C589.264 278.389 588.744 278.534 588.358 278.824C587.972 279.108 587.716 279.466 587.591 279.898L584.233 279.625C584.403 278.83 584.739 278.142 585.239 277.562C585.739 276.977 586.384 276.528 587.173 276.216C587.969 275.898 588.889 275.739 589.935 275.739C590.662 275.739 591.358 275.824 592.023 275.994C592.693 276.165 593.287 276.429 593.804 276.787C594.327 277.145 594.739 277.605 595.04 278.168C595.341 278.724 595.491 279.392 595.491 280.17V289H592.048V287.185H591.946C591.736 287.594 591.455 287.955 591.102 288.267C590.75 288.574 590.327 288.815 589.832 288.991C589.338 289.162 588.767 289.247 588.119 289.247ZM589.159 286.741C589.693 286.741 590.165 286.636 590.574 286.426C590.983 286.21 591.304 285.92 591.537 285.557C591.77 285.193 591.886 284.781 591.886 284.321V282.932C591.773 283.006 591.616 283.074 591.418 283.136C591.224 283.193 591.006 283.247 590.761 283.298C590.517 283.344 590.273 283.386 590.028 283.426C589.784 283.46 589.562 283.491 589.364 283.52C588.938 283.582 588.565 283.682 588.247 283.818C587.929 283.955 587.682 284.139 587.506 284.372C587.33 284.599 587.241 284.884 587.241 285.224C587.241 285.719 587.42 286.097 587.778 286.358C588.142 286.614 588.602 286.741 589.159 286.741ZM601.939 281.432V289H598.308V275.909H601.768V278.219H601.922C602.212 277.457 602.697 276.855 603.379 276.412C604.061 275.963 604.888 275.739 605.859 275.739C606.768 275.739 607.561 275.938 608.237 276.335C608.913 276.733 609.439 277.301 609.814 278.04C610.189 278.773 610.376 279.648 610.376 280.665V289H606.746V281.312C606.751 280.511 606.547 279.886 606.132 279.438C605.717 278.983 605.146 278.756 604.419 278.756C603.93 278.756 603.499 278.861 603.124 279.071C602.754 279.281 602.464 279.588 602.254 279.991C602.05 280.389 601.945 280.869 601.939 281.432ZM627.188 283.426V275.909H630.818V289H627.332V286.622H627.196C626.901 287.389 626.409 288.006 625.722 288.472C625.04 288.937 624.207 289.17 623.224 289.17C622.349 289.17 621.58 288.972 620.915 288.574C620.25 288.176 619.73 287.611 619.355 286.878C618.986 286.145 618.798 285.267 618.793 284.244V275.909H622.423V283.597C622.429 284.369 622.636 284.98 623.045 285.429C623.455 285.878 624.003 286.102 624.69 286.102C625.128 286.102 625.537 286.003 625.918 285.804C626.298 285.599 626.605 285.298 626.838 284.901C627.077 284.503 627.193 284.011 627.188 283.426ZM637.353 281.432V289H633.722V275.909H637.183V278.219H637.336C637.626 277.457 638.112 276.855 638.793 276.412C639.475 275.963 640.302 275.739 641.273 275.739C642.183 275.739 642.975 275.938 643.651 276.335C644.327 276.733 644.853 277.301 645.228 278.04C645.603 278.773 645.79 279.648 645.79 280.665V289H642.16V281.312C642.165 280.511 641.961 279.886 641.546 279.438C641.131 278.983 640.56 278.756 639.833 278.756C639.344 278.756 638.913 278.861 638.538 279.071C638.168 279.281 637.879 279.588 637.668 279.991C637.464 280.389 637.359 280.869 637.353 281.432ZM654.567 289.256C653.243 289.256 652.098 288.974 651.132 288.412C650.172 287.844 649.43 287.054 648.908 286.043C648.385 285.026 648.124 283.847 648.124 282.506C648.124 281.153 648.385 279.972 648.908 278.96C649.43 277.943 650.172 277.153 651.132 276.591C652.098 276.023 653.243 275.739 654.567 275.739C655.891 275.739 657.033 276.023 657.993 276.591C658.959 277.153 659.703 277.943 660.226 278.96C660.749 279.972 661.01 281.153 661.01 282.506C661.01 283.847 660.749 285.026 660.226 286.043C659.703 287.054 658.959 287.844 657.993 288.412C657.033 288.974 655.891 289.256 654.567 289.256ZM654.584 286.443C655.186 286.443 655.689 286.273 656.092 285.932C656.496 285.585 656.8 285.114 657.004 284.517C657.214 283.92 657.32 283.241 657.32 282.48C657.32 281.719 657.214 281.04 657.004 280.443C656.8 279.847 656.496 279.375 656.092 279.028C655.689 278.682 655.186 278.509 654.584 278.509C653.976 278.509 653.464 278.682 653.05 279.028C652.641 279.375 652.331 279.847 652.121 280.443C651.916 281.04 651.814 281.719 651.814 282.48C651.814 283.241 651.916 283.92 652.121 284.517C652.331 285.114 652.641 285.585 653.05 285.932C653.464 286.273 653.976 286.443 654.584 286.443ZM663.371 289V275.909H666.891V278.193H667.027C667.266 277.381 667.666 276.767 668.229 276.352C668.791 275.932 669.439 275.722 670.172 275.722C670.354 275.722 670.55 275.733 670.76 275.756C670.97 275.778 671.155 275.81 671.314 275.849V279.071C671.143 279.02 670.908 278.974 670.607 278.935C670.305 278.895 670.03 278.875 669.78 278.875C669.246 278.875 668.768 278.991 668.348 279.224C667.933 279.452 667.604 279.77 667.359 280.179C667.121 280.588 667.001 281.06 667.001 281.594V289H663.371ZM677.406 289.213C676.411 289.213 675.511 288.957 674.704 288.446C673.903 287.929 673.266 287.17 672.795 286.17C672.329 285.165 672.096 283.932 672.096 282.472C672.096 280.972 672.337 279.724 672.82 278.73C673.303 277.73 673.945 276.983 674.746 276.489C675.553 275.989 676.437 275.739 677.397 275.739C678.13 275.739 678.741 275.864 679.229 276.114C679.724 276.358 680.121 276.665 680.423 277.034C680.729 277.398 680.962 277.756 681.121 278.108H681.232V271.545H684.854V289H681.275V286.903H681.121C680.951 287.267 680.71 287.628 680.397 287.986C680.09 288.338 679.69 288.631 679.195 288.864C678.707 289.097 678.11 289.213 677.406 289.213ZM678.556 286.324C679.141 286.324 679.636 286.165 680.039 285.847C680.448 285.523 680.761 285.071 680.977 284.491C681.198 283.912 681.309 283.233 681.309 282.455C681.309 281.676 681.201 281 680.985 280.426C680.769 279.852 680.457 279.409 680.048 279.097C679.638 278.784 679.141 278.628 678.556 278.628C677.96 278.628 677.457 278.79 677.048 279.114C676.638 279.437 676.329 279.886 676.119 280.46C675.908 281.034 675.803 281.699 675.803 282.455C675.803 283.216 675.908 283.889 676.119 284.474C676.335 285.054 676.644 285.509 677.048 285.838C677.457 286.162 677.96 286.324 678.556 286.324ZM693.805 289.256C692.459 289.256 691.3 288.983 690.328 288.438C689.362 287.886 688.618 287.108 688.095 286.102C687.572 285.091 687.311 283.895 687.311 282.514C687.311 281.168 687.572 279.986 688.095 278.969C688.618 277.952 689.354 277.159 690.303 276.591C691.257 276.023 692.376 275.739 693.661 275.739C694.524 275.739 695.328 275.878 696.072 276.156C696.822 276.429 697.476 276.841 698.033 277.392C698.595 277.943 699.033 278.636 699.345 279.472C699.658 280.301 699.814 281.273 699.814 282.386V283.384H688.76V281.134H696.396C696.396 280.611 696.283 280.148 696.055 279.744C695.828 279.341 695.513 279.026 695.109 278.798C694.712 278.565 694.249 278.449 693.72 278.449C693.169 278.449 692.68 278.577 692.254 278.832C691.834 279.082 691.504 279.42 691.266 279.847C691.027 280.267 690.905 280.736 690.899 281.253V283.392C690.899 284.04 691.018 284.599 691.257 285.071C691.501 285.543 691.845 285.906 692.288 286.162C692.732 286.418 693.257 286.545 693.865 286.545C694.268 286.545 694.638 286.489 694.973 286.375C695.308 286.261 695.595 286.091 695.834 285.864C696.072 285.636 696.254 285.358 696.379 285.028L699.737 285.25C699.567 286.057 699.217 286.761 698.689 287.364C698.166 287.96 697.49 288.426 696.661 288.761C695.837 289.091 694.885 289.256 693.805 289.256ZM702.183 289V275.909H705.703V278.193H705.839C706.078 277.381 706.479 276.767 707.041 276.352C707.604 275.932 708.251 275.722 708.984 275.722C709.166 275.722 709.362 275.733 709.572 275.756C709.783 275.778 709.967 275.81 710.126 275.849V279.071C709.956 279.02 709.72 278.974 709.419 278.935C709.118 278.895 708.842 278.875 708.592 278.875C708.058 278.875 707.581 278.991 707.161 279.224C706.746 279.452 706.416 279.77 706.172 280.179C705.933 280.588 705.814 281.06 705.814 281.594V289H702.183ZM717.36 289.256C716.013 289.256 714.854 288.983 713.883 288.438C712.917 287.886 712.173 287.108 711.65 286.102C711.127 285.091 710.866 283.895 710.866 282.514C710.866 281.168 711.127 279.986 711.65 278.969C712.173 277.952 712.908 277.159 713.857 276.591C714.812 276.023 715.931 275.739 717.215 275.739C718.079 275.739 718.883 275.878 719.627 276.156C720.377 276.429 721.031 276.841 721.587 277.392C722.15 277.943 722.587 278.636 722.9 279.472C723.212 280.301 723.369 281.273 723.369 282.386V283.384H712.315V281.134H719.951C719.951 280.611 719.837 280.148 719.61 279.744C719.383 279.341 719.067 279.026 718.664 278.798C718.266 278.565 717.803 278.449 717.275 278.449C716.724 278.449 716.235 278.577 715.809 278.832C715.388 279.082 715.059 279.42 714.82 279.847C714.582 280.267 714.46 280.736 714.454 281.253V283.392C714.454 284.04 714.573 284.599 714.812 285.071C715.056 285.543 715.4 285.906 715.843 286.162C716.286 286.418 716.812 286.545 717.42 286.545C717.823 286.545 718.192 286.489 718.528 286.375C718.863 286.261 719.15 286.091 719.388 285.864C719.627 285.636 719.809 285.358 719.934 285.028L723.292 285.25C723.121 286.057 722.772 286.761 722.244 287.364C721.721 287.96 721.045 288.426 720.215 288.761C719.391 289.091 718.44 289.256 717.36 289.256ZM730.562 289.213C729.567 289.213 728.667 288.957 727.86 288.446C727.059 287.929 726.423 287.17 725.951 286.17C725.485 285.165 725.252 283.932 725.252 282.472C725.252 280.972 725.494 279.724 725.977 278.73C726.46 277.73 727.102 276.983 727.903 276.489C728.71 275.989 729.593 275.739 730.553 275.739C731.286 275.739 731.897 275.864 732.386 276.114C732.88 276.358 733.278 276.665 733.579 277.034C733.886 277.398 734.119 277.756 734.278 278.108H734.388V271.545H738.011V289H734.431V286.903H734.278C734.107 287.267 733.866 287.628 733.553 287.986C733.246 288.338 732.846 288.631 732.352 288.864C731.863 289.097 731.266 289.213 730.562 289.213ZM731.712 286.324C732.298 286.324 732.792 286.165 733.195 285.847C733.604 285.523 733.917 285.071 734.133 284.491C734.354 283.912 734.465 283.233 734.465 282.455C734.465 281.676 734.357 281 734.141 280.426C733.925 279.852 733.613 279.409 733.204 279.097C732.795 278.784 732.298 278.628 731.712 278.628C731.116 278.628 730.613 278.79 730.204 279.114C729.795 279.437 729.485 279.886 729.275 280.46C729.065 281.034 728.96 281.699 728.96 282.455C728.96 283.216 729.065 283.889 729.275 284.474C729.491 285.054 729.8 285.509 730.204 285.838C730.613 286.162 731.116 286.324 731.712 286.324ZM572.614 308.642L569.29 308.847C569.234 308.562 569.112 308.307 568.924 308.08C568.737 307.847 568.489 307.662 568.183 307.526C567.881 307.384 567.521 307.312 567.1 307.312C566.538 307.312 566.063 307.432 565.677 307.67C565.29 307.903 565.097 308.216 565.097 308.608C565.097 308.92 565.222 309.185 565.472 309.401C565.722 309.616 566.151 309.79 566.759 309.92L569.129 310.398C570.401 310.659 571.35 311.08 571.975 311.659C572.6 312.239 572.913 313 572.913 313.943C572.913 314.801 572.66 315.554 572.154 316.202C571.654 316.849 570.967 317.355 570.092 317.719C569.222 318.077 568.219 318.256 567.083 318.256C565.35 318.256 563.969 317.895 562.941 317.173C561.918 316.446 561.319 315.457 561.143 314.207L564.714 314.02C564.822 314.548 565.083 314.952 565.498 315.23C565.913 315.503 566.444 315.639 567.092 315.639C567.728 315.639 568.239 315.517 568.626 315.273C569.018 315.023 569.217 314.702 569.222 314.31C569.217 313.98 569.077 313.71 568.805 313.5C568.532 313.284 568.112 313.119 567.543 313.006L565.276 312.554C563.998 312.298 563.046 311.855 562.421 311.224C561.802 310.594 561.492 309.79 561.492 308.812C561.492 307.972 561.719 307.247 562.174 306.639C562.634 306.031 563.279 305.562 564.109 305.233C564.944 304.903 565.921 304.739 567.04 304.739C568.694 304.739 569.995 305.088 570.944 305.787C571.898 306.486 572.455 307.437 572.614 308.642ZM582.162 304.909V307.636H574.278V304.909H582.162ZM576.068 301.773H579.699V313.977C579.699 314.312 579.75 314.574 579.852 314.761C579.955 314.943 580.097 315.071 580.278 315.145C580.466 315.219 580.682 315.256 580.926 315.256C581.097 315.256 581.267 315.241 581.438 315.213C581.608 315.179 581.739 315.153 581.83 315.136L582.401 317.838C582.219 317.895 581.963 317.96 581.634 318.034C581.304 318.114 580.903 318.162 580.432 318.179C579.557 318.213 578.79 318.097 578.131 317.83C577.477 317.562 576.969 317.148 576.605 316.585C576.241 316.023 576.063 315.312 576.068 314.455V301.773ZM584.527 318V304.909H588.047V307.193H588.183C588.422 306.381 588.822 305.767 589.385 305.352C589.947 304.932 590.595 304.722 591.328 304.722C591.51 304.722 591.706 304.733 591.916 304.756C592.126 304.778 592.311 304.81 592.47 304.849V308.071C592.3 308.02 592.064 307.974 591.763 307.935C591.462 307.895 591.186 307.875 590.936 307.875C590.402 307.875 589.925 307.991 589.504 308.224C589.089 308.452 588.76 308.77 588.516 309.179C588.277 309.588 588.158 310.06 588.158 310.594V318H584.527ZM602.742 312.426V304.909H606.373V318H602.887V315.622H602.751C602.455 316.389 601.964 317.006 601.276 317.472C600.594 317.937 599.762 318.17 598.779 318.17C597.904 318.17 597.134 317.972 596.469 317.574C595.805 317.176 595.285 316.611 594.91 315.878C594.54 315.145 594.353 314.267 594.347 313.244V304.909H597.978V312.597C597.984 313.369 598.191 313.98 598.6 314.429C599.009 314.878 599.558 315.102 600.245 315.102C600.683 315.102 601.092 315.003 601.472 314.804C601.853 314.599 602.16 314.298 602.393 313.901C602.631 313.503 602.748 313.011 602.742 312.426ZM615.192 318.256C613.851 318.256 612.697 317.972 611.732 317.403C610.771 316.83 610.033 316.034 609.516 315.017C609.004 314 608.749 312.83 608.749 311.506C608.749 310.165 609.007 308.989 609.524 307.977C610.047 306.96 610.788 306.168 611.749 305.599C612.709 305.026 613.851 304.739 615.175 304.739C616.317 304.739 617.317 304.946 618.175 305.361C619.033 305.776 619.712 306.358 620.212 307.108C620.712 307.858 620.987 308.739 621.038 309.75H617.612C617.516 309.097 617.26 308.571 616.845 308.173C616.436 307.77 615.899 307.568 615.234 307.568C614.672 307.568 614.18 307.722 613.76 308.028C613.345 308.33 613.021 308.77 612.788 309.349C612.555 309.929 612.439 310.631 612.439 311.455C612.439 312.29 612.553 313 612.78 313.585C613.013 314.17 613.339 314.616 613.76 314.923C614.18 315.23 614.672 315.384 615.234 315.384C615.649 315.384 616.021 315.298 616.351 315.128C616.686 314.957 616.962 314.71 617.178 314.386C617.399 314.057 617.544 313.662 617.612 313.202H621.038C620.982 314.202 620.709 315.082 620.22 315.844C619.737 316.599 619.07 317.19 618.217 317.616C617.365 318.043 616.357 318.256 615.192 318.256ZM630.326 304.909V307.636H622.442V304.909H630.326ZM624.232 301.773H627.863V313.977C627.863 314.312 627.914 314.574 628.016 314.761C628.119 314.943 628.261 315.071 628.442 315.145C628.63 315.219 628.846 315.256 629.09 315.256C629.261 315.256 629.431 315.241 629.602 315.213C629.772 315.179 629.903 315.153 629.994 315.136L630.565 317.838C630.383 317.895 630.127 317.96 629.798 318.034C629.468 318.114 629.067 318.162 628.596 318.179C627.721 318.213 626.954 318.097 626.295 317.83C625.641 317.562 625.133 317.148 624.769 316.585C624.406 316.023 624.227 315.312 624.232 314.455V301.773ZM641.086 312.426V304.909H644.717V318H641.231V315.622H641.094C640.799 316.389 640.308 317.006 639.62 317.472C638.938 317.937 638.106 318.17 637.123 318.17C636.248 318.17 635.478 317.972 634.813 317.574C634.148 317.176 633.629 316.611 633.254 315.878C632.884 315.145 632.697 314.267 632.691 313.244V304.909H636.322V312.597C636.327 313.369 636.535 313.98 636.944 314.429C637.353 314.878 637.901 315.102 638.589 315.102C639.026 315.102 639.435 315.003 639.816 314.804C640.197 314.599 640.504 314.298 640.737 313.901C640.975 313.503 641.092 313.011 641.086 312.426ZM647.621 318V304.909H651.141V307.193H651.277C651.516 306.381 651.916 305.767 652.479 305.352C653.041 304.932 653.689 304.722 654.422 304.722C654.604 304.722 654.8 304.733 655.01 304.756C655.22 304.778 655.405 304.81 655.564 304.849V308.071C655.393 308.02 655.158 307.974 654.857 307.935C654.555 307.895 654.28 307.875 654.03 307.875C653.496 307.875 653.018 307.991 652.598 308.224C652.183 308.452 651.854 308.77 651.609 309.179C651.371 309.588 651.251 310.06 651.251 310.594V318H647.621ZM662.798 318.256C661.451 318.256 660.292 317.983 659.32 317.438C658.354 316.886 657.61 316.108 657.087 315.102C656.565 314.091 656.303 312.895 656.303 311.514C656.303 310.168 656.565 308.986 657.087 307.969C657.61 306.952 658.346 306.159 659.295 305.591C660.249 305.023 661.369 304.739 662.653 304.739C663.516 304.739 664.32 304.878 665.065 305.156C665.815 305.429 666.468 305.841 667.025 306.392C667.587 306.943 668.025 307.636 668.337 308.472C668.65 309.301 668.806 310.273 668.806 311.386V312.384H657.752V310.134H665.388C665.388 309.611 665.275 309.148 665.048 308.744C664.82 308.341 664.505 308.026 664.102 307.798C663.704 307.565 663.241 307.449 662.712 307.449C662.161 307.449 661.673 307.577 661.246 307.832C660.826 308.082 660.496 308.42 660.258 308.847C660.019 309.267 659.897 309.736 659.891 310.253V312.392C659.891 313.04 660.011 313.599 660.249 314.071C660.494 314.543 660.837 314.906 661.281 315.162C661.724 315.418 662.249 315.545 662.857 315.545C663.261 315.545 663.63 315.489 663.965 315.375C664.3 315.261 664.587 315.091 664.826 314.864C665.065 314.636 665.246 314.358 665.371 314.028L668.729 314.25C668.559 315.057 668.21 315.761 667.681 316.364C667.158 316.96 666.482 317.426 665.653 317.761C664.829 318.091 663.877 318.256 662.798 318.256Z" fill="white"/>
<rect x="507" y="73.8241" width="80.7887" height="81" transform="rotate(-23.8868 507 73.8241)" fill="#FECC1B"/>
<g filter="url(#filter0_d_2_14)">
<rect x="642.498" y="37.2102" width="80.7887" height="81" transform="rotate(12.3041 642.498 37.2102)" fill="#FECC1B"/>
<rect x="642.88" y="37.8053" width="79.7887" height="80" transform="rotate(12.3041 642.88 37.8053)" stroke="black"/>
</g>
<g filter="url(#filter1_d_2_14)">
<rect x="546.261" y="114" width="80.7887" height="81" transform="rotate(12.3041 546.261 114)" fill="#FECC1B"/>
<rect x="546.643" y="114.595" width="79.7887" height="80" transform="rotate(12.3041 546.643 114.595)" stroke="black"/>
</g>
<g filter="url(#filter2_d_2_14)">
<rect x="681.261" y="77" width="80.7887" height="81" transform="rotate(12.3041 681.261 77)" fill="#FECC1B"/>
<rect x="681.643" y="77.5951" width="79.7887" height="80" transform="rotate(12.3041 681.643 77.5951)" stroke="black"/>
</g>
<g filter="url(#filter3_d_2_14)">
<rect x="645.081" y="129.887" width="80.7887" height="81" transform="rotate(-6.97976 645.081 129.887)" fill="#FECC1B"/>
<rect x="645.638" y="130.322" width="79.7887" height="80" transform="rotate(-6.97976 645.638 130.322)" stroke="black"/>
</g>
<g filter="url(#filter4_d_2_14)">
<rect x="614.687" y="78" width="80.7887" height="81" transform="rotate(34.3357 614.687 78)" fill="#FECC1B"/>
<rect x="614.818" y="78.6949" width="79.7887" height="80" transform="rotate(34.3357 614.818 78.6949)" stroke="black"/>
</g>
<defs>
<filter id="filter0_d_2_14" x="621.237" y="37.2102" width="104.194" height="104.356" filterUnits="userSpaceOnUse" color-interpolation-filters="sRGB">
<feFlood flood-opacity="0" result="BackgroundImageFix"/>
<feColorMatrix in="SourceAlpha" type="matrix" values="0 0 0 0 0 0 0 0 0 0 0 0 0 0 0 0 0 0 127 0" result="hardAlpha"/>
<feOffset dy="4"/>
<feGaussianBlur stdDeviation="2"/>
<feComposite in2="hardAlpha" operator="out"/>
<feColorMatrix type="matrix" values="0 0 0 0 0 0 0 0 0 0 0 0 0 0 0 0 0 0 0.25 0"/>
<feBlend mode="normal" in2="BackgroundImageFix" result="effect1_dropShadow_2_14"/>
<feBlend mode="normal" in="SourceGraphic" in2="effect1_dropShadow_2_14" result="shape"/>
</filter>
<filter id="filter1_d_2_14" x="525" y="114" width="104.194" height="104.356" filterUnits="userSpaceOnUse" color-interpolation-filters="sRGB">
<feFlood flood-opacity="0" result="BackgroundImageFix"/>
<feColorMatrix in="SourceAlpha" type="matrix" values="0 0 0 0 0 0 0 0 0 0 0 0 0 0 0 0 0 0 127 0" result="hardAlpha"/>
<feOffset dy="4"/>
<feGaussianBlur stdDeviation="2"/>
<feComposite in2="hardAlpha" operator="out"/>
<feColorMatrix type="matrix" values="0 0 0 0 0 0 0 0 0 0 0 0 0 0 0 0 0 0 0.25 0"/>
<feBlend mode="normal" in2="BackgroundImageFix" result="effect1_dropShadow_2_14"/>
<feBlend mode="normal" in="SourceGraphic" in2="effect1_dropShadow_2_14" result="shape"/>
</filter>
<filter id="filter2_d_2_14" x="660" y="77" width="104.194" height="104.356" filterUnits="userSpaceOnUse" color-interpolation-filters="sRGB">
<feFlood flood-opacity="0" result="BackgroundImageFix"/>
<feColorMatrix in="SourceAlpha" type="matrix" values="0 0 0 0 0 0 0 0 0 0 0 0 0 0 0 0 0 0 127 0" result="hardAlpha"/>
<feOffset dy="4"/>
<feGaussianBlur stdDeviation="2"/>
<feComposite in2="hardAlpha" operator="out"/>
<feColorMatrix type="matrix" values="0 0 0 0 0 0 0 0 0 0 0 0 0 0 0 0 0 0 0.25 0"/>
<feBlend mode="normal" in2="BackgroundImageFix" result="effect1_dropShadow_2_14"/>
<feBlend mode="normal" in="SourceGraphic" in2="effect1_dropShadow_2_14" result="shape"/>
</filter>
<filter id="filter3_d_2_14" x="641.081" y="120.069" width="98.0331" height="98.2171" filterUnits="userSpaceOnUse" color-interpolation-filters="sRGB">
<feFlood flood-opacity="0" result="BackgroundImageFix"/>
<feColorMatrix in="SourceAlpha" type="matrix" values="0 0 0 0 0 0 0 0 0 0 0 0 0 0 0 0 0 0 127 0" result="hardAlpha"/>
<feOffset dy="4"/>
<feGaussianBlur stdDeviation="2"/>
<feComposite in2="hardAlpha" operator="out"/>
<feColorMatrix type="matrix" values="0 0 0 0 0 0 0 0 0 0 0 0 0 0 0 0 0 0 0.25 0"/>
<feBlend mode="normal" in2="BackgroundImageFix" result="effect1_dropShadow_2_14"/>
<feBlend mode="normal" in="SourceGraphic" in2="effect1_dropShadow_2_14" result="shape"/>
</filter>
<filter id="filter4_d_2_14" x="565" y="78" width="120.398" height="120.454" filterUnits="userSpaceOnUse" color-interpolation-filters="sRGB">
<feFlood flood-opacity="0" result="BackgroundImageFix"/>
<feColorMatrix in="SourceAlpha" type="matrix" values="0 0 0 0 0 0 0 0 0 0 0 0 0 0 0 0 0 0 127 0" result="hardAlpha"/>
<feOffset dy="4"/>
<feGaussianBlur stdDeviation="2"/>
<feComposite in2="hardAlpha" operator="out"/>
<feColorMatrix type="matrix" values="0 0 0 0 0 0 0 0 0 0 0 0 0 0 0 0 0 0 0.25 0"/>
<feBlend mode="normal" in2="BackgroundImageFix" result="effect1_dropShadow_2_14"/>
<feBlend mode="normal" in="SourceGraphic" in2="effect1_dropShadow_2_14" result="shape"/>
</filter>
</defs>
</svg>
