<svg width="669" height="347" viewBox="0 0 669 347" fill="none" xmlns="http://www.w3.org/2000/svg">
<rect width="669" height="347" fill="#121212"/>
<rect x="43.5" y="27.5" width="80" height="168" fill="#3DEFE9" stroke="black"/>
<rect x="68.5" y="51.5" width="80" height="168" fill="#3DEFE9" stroke="black"/>
<rect x="92.5" y="76.5" width="80" height="168" fill="#3DEFE9" stroke="black"/>
<path d="M39.157 270.545V288H35.4666V274.048H35.3643L31.3672 276.554V273.281L35.6882 270.545H39.157ZM58.4311 275.565C58.3629 274.878 58.0703 274.344 57.5533 273.963C57.0362 273.582 56.3345 273.392 55.4482 273.392C54.8459 273.392 54.3374 273.477 53.9226 273.648C53.5078 273.812 53.1896 274.043 52.968 274.338C52.7521 274.634 52.6442 274.969 52.6442 275.344C52.6328 275.656 52.6982 275.929 52.8402 276.162C52.9879 276.395 53.1896 276.597 53.4453 276.767C53.701 276.932 53.9964 277.077 54.3317 277.202C54.6669 277.321 55.0249 277.423 55.4055 277.509L56.9737 277.884C57.7351 278.054 58.4339 278.281 59.0703 278.565C59.7067 278.849 60.2578 279.199 60.7237 279.614C61.1896 280.028 61.5504 280.517 61.8061 281.08C62.0675 281.642 62.201 282.287 62.2067 283.014C62.201 284.082 61.9283 285.009 61.3885 285.793C60.8544 286.571 60.0817 287.176 59.0703 287.608C58.0646 288.034 56.8516 288.247 55.4311 288.247C54.022 288.247 52.7947 288.031 51.7493 287.599C50.7095 287.168 49.897 286.528 49.3118 285.682C48.7322 284.83 48.4283 283.776 48.3999 282.52H51.9709C52.0107 283.105 52.1783 283.594 52.4737 283.986C52.7749 284.372 53.1754 284.665 53.6754 284.864C54.1811 285.057 54.7521 285.153 55.3885 285.153C56.0135 285.153 56.5561 285.062 57.0163 284.881C57.4822 284.699 57.843 284.446 58.0987 284.122C58.3544 283.798 58.4822 283.426 58.4822 283.006C58.4822 282.614 58.3658 282.284 58.1328 282.017C57.9055 281.75 57.5703 281.523 57.1271 281.335C56.6896 281.148 56.1527 280.977 55.5163 280.824L53.6158 280.347C52.1442 279.989 50.9822 279.429 50.13 278.668C49.2777 277.906 48.8544 276.881 48.8601 275.591C48.8544 274.534 49.1357 273.611 49.7038 272.821C50.2777 272.031 51.0646 271.415 52.0646 270.972C53.0646 270.528 54.201 270.307 55.4737 270.307C56.7692 270.307 57.8999 270.528 58.8658 270.972C59.8374 271.415 60.593 272.031 61.1328 272.821C61.6726 273.611 61.951 274.526 61.968 275.565H58.4311ZM71.5838 274.909V277.636H63.7003V274.909H71.5838ZM65.4901 271.773H69.1207V283.977C69.1207 284.312 69.1719 284.574 69.2741 284.761C69.3764 284.943 69.5185 285.071 69.7003 285.145C69.8878 285.219 70.1037 285.256 70.348 285.256C70.5185 285.256 70.6889 285.241 70.8594 285.213C71.0298 285.179 71.1605 285.153 71.2514 285.136L71.8224 287.838C71.6406 287.895 71.3849 287.96 71.0554 288.034C70.7259 288.114 70.3253 288.162 69.8537 288.179C68.9787 288.213 68.2116 288.097 67.5526 287.83C66.8991 287.562 66.3906 287.148 66.027 286.585C65.6634 286.023 65.4844 285.312 65.4901 284.455V271.773ZM77.6818 288.247C76.8466 288.247 76.1023 288.102 75.4489 287.812C74.7955 287.517 74.2784 287.082 73.8977 286.509C73.5227 285.929 73.3352 285.207 73.3352 284.344C73.3352 283.616 73.4688 283.006 73.7358 282.511C74.0028 282.017 74.3665 281.619 74.8267 281.318C75.2869 281.017 75.8097 280.79 76.3949 280.636C76.9858 280.483 77.6051 280.375 78.2528 280.312C79.0142 280.233 79.6278 280.159 80.0938 280.091C80.5597 280.017 80.8977 279.909 81.108 279.767C81.3182 279.625 81.4233 279.415 81.4233 279.136V279.085C81.4233 278.545 81.2528 278.128 80.9119 277.832C80.5767 277.537 80.0994 277.389 79.4801 277.389C78.8267 277.389 78.3068 277.534 77.9205 277.824C77.5341 278.108 77.2784 278.466 77.1534 278.898L73.7955 278.625C73.9659 277.83 74.3011 277.142 74.8011 276.562C75.3011 275.977 75.946 275.528 76.7358 275.216C77.5313 274.898 78.4517 274.739 79.4972 274.739C80.2244 274.739 80.9205 274.824 81.5852 274.994C82.2557 275.165 82.8494 275.429 83.3665 275.787C83.8892 276.145 84.3011 276.605 84.6023 277.168C84.9034 277.724 85.054 278.392 85.054 279.17V288H81.6108V286.185H81.5085C81.2983 286.594 81.017 286.955 80.6648 287.267C80.3125 287.574 79.8892 287.815 79.3949 287.991C78.9006 288.162 78.3295 288.247 77.6818 288.247ZM78.7216 285.741C79.2557 285.741 79.7273 285.636 80.1364 285.426C80.5455 285.21 80.8665 284.92 81.0994 284.557C81.3324 284.193 81.4489 283.781 81.4489 283.321V281.932C81.3352 282.006 81.179 282.074 80.9801 282.136C80.7869 282.193 80.5682 282.247 80.3239 282.298C80.0795 282.344 79.8352 282.386 79.5909 282.426C79.3466 282.46 79.125 282.491 78.9261 282.52C78.5 282.582 78.1278 282.682 77.8097 282.818C77.4915 282.955 77.2443 283.139 77.0682 283.372C76.892 283.599 76.804 283.884 76.804 284.224C76.804 284.719 76.983 285.097 77.3409 285.358C77.7045 285.614 78.1648 285.741 78.7216 285.741ZM93.7855 288.256C92.4446 288.256 91.2912 287.972 90.3253 287.403C89.3651 286.83 88.6264 286.034 88.1094 285.017C87.598 284 87.3423 282.83 87.3423 281.506C87.3423 280.165 87.6009 278.989 88.1179 277.977C88.6406 276.96 89.3821 276.168 90.3423 275.599C91.3026 275.026 92.4446 274.739 93.7685 274.739C94.9105 274.739 95.9105 274.946 96.7685 275.361C97.6264 275.776 98.3054 276.358 98.8054 277.108C99.3054 277.858 99.581 278.739 99.6321 279.75H96.206C96.1094 279.097 95.8537 278.571 95.4389 278.173C95.0298 277.77 94.4929 277.568 93.8281 277.568C93.2656 277.568 92.7741 277.722 92.3537 278.028C91.9389 278.33 91.6151 278.77 91.3821 279.349C91.1491 279.929 91.0327 280.631 91.0327 281.455C91.0327 282.29 91.1463 283 91.3736 283.585C91.6065 284.17 91.9332 284.616 92.3537 284.923C92.7741 285.23 93.2656 285.384 93.8281 285.384C94.2429 285.384 94.6151 285.298 94.9446 285.128C95.2798 284.957 95.5554 284.71 95.7713 284.386C95.9929 284.057 96.1378 283.662 96.206 283.202H99.6321C99.5753 284.202 99.3026 285.082 98.8139 285.844C98.331 286.599 97.6634 287.19 96.8111 287.616C95.9588 288.043 94.9503 288.256 93.7855 288.256ZM105.246 284.233L105.255 279.878H105.783L109.977 274.909H114.144L108.511 281.489H107.65L105.246 284.233ZM101.957 288V270.545H105.587V288H101.957ZM110.138 288L106.286 282.298L108.707 279.733L114.391 288H110.138ZM121.548 288V270.545H128.435C129.759 270.545 130.886 270.798 131.818 271.304C132.75 271.804 133.46 272.5 133.949 273.392C134.443 274.278 134.69 275.301 134.69 276.46C134.69 277.619 134.44 278.642 133.94 279.528C133.44 280.415 132.716 281.105 131.767 281.599C130.824 282.094 129.682 282.341 128.341 282.341H123.952V279.384H127.744C128.455 279.384 129.04 279.261 129.5 279.017C129.966 278.767 130.313 278.423 130.54 277.986C130.773 277.543 130.889 277.034 130.889 276.46C130.889 275.881 130.773 275.375 130.54 274.943C130.313 274.506 129.966 274.168 129.5 273.929C129.034 273.685 128.443 273.562 127.727 273.562H125.239V288H121.548ZM142.774 288.256C141.428 288.256 140.268 287.983 139.297 287.438C138.331 286.886 137.587 286.108 137.064 285.102C136.541 284.091 136.28 282.895 136.28 281.514C136.28 280.168 136.541 278.986 137.064 277.969C137.587 276.952 138.322 276.159 139.271 275.591C140.226 275.023 141.345 274.739 142.629 274.739C143.493 274.739 144.297 274.878 145.041 275.156C145.791 275.429 146.445 275.841 147.001 276.392C147.564 276.943 148.001 277.636 148.314 278.472C148.626 279.301 148.783 280.273 148.783 281.386V282.384H137.729V280.134H145.365C145.365 279.611 145.251 279.148 145.024 278.744C144.797 278.341 144.482 278.026 144.078 277.798C143.68 277.565 143.217 277.449 142.689 277.449C142.138 277.449 141.649 277.577 141.223 277.832C140.803 278.082 140.473 278.42 140.234 278.847C139.996 279.267 139.874 279.736 139.868 280.253V282.392C139.868 283.04 139.987 283.599 140.226 284.071C140.47 284.543 140.814 284.906 141.257 285.162C141.7 285.418 142.226 285.545 142.834 285.545C143.237 285.545 143.607 285.489 143.942 285.375C144.277 285.261 144.564 285.091 144.803 284.864C145.041 284.636 145.223 284.358 145.348 284.028L148.706 284.25C148.536 285.057 148.186 285.761 147.658 286.364C147.135 286.96 146.459 287.426 145.629 287.761C144.805 288.091 143.854 288.256 142.774 288.256ZM151.152 288V274.909H154.672V277.193H154.808C155.047 276.381 155.447 275.767 156.01 275.352C156.572 274.932 157.22 274.722 157.953 274.722C158.135 274.722 158.331 274.733 158.541 274.756C158.751 274.778 158.936 274.81 159.095 274.849V278.071C158.925 278.02 158.689 277.974 158.388 277.935C158.087 277.895 157.811 277.875 157.561 277.875C157.027 277.875 156.55 277.991 156.129 278.224C155.714 278.452 155.385 278.77 155.141 279.179C154.902 279.588 154.783 280.06 154.783 280.594V288H151.152ZM173.584 270.545H177.232V282.716C177.232 283.841 176.979 284.818 176.473 285.648C175.973 286.477 175.277 287.116 174.385 287.565C173.493 288.014 172.456 288.239 171.274 288.239C170.223 288.239 169.268 288.054 168.411 287.685C167.558 287.31 166.882 286.741 166.382 285.98C165.882 285.213 165.635 284.25 165.641 283.091H169.314C169.325 283.551 169.419 283.946 169.595 284.276C169.777 284.599 170.024 284.849 170.337 285.026C170.655 285.196 171.03 285.281 171.462 285.281C171.916 285.281 172.3 285.185 172.612 284.991C172.93 284.793 173.172 284.503 173.337 284.122C173.501 283.741 173.584 283.273 173.584 282.716V270.545ZM183.947 288.247C183.112 288.247 182.368 288.102 181.714 287.812C181.061 287.517 180.544 287.082 180.163 286.509C179.788 285.929 179.601 285.207 179.601 284.344C179.601 283.616 179.734 283.006 180.001 282.511C180.268 282.017 180.632 281.619 181.092 281.318C181.553 281.017 182.075 280.79 182.661 280.636C183.251 280.483 183.871 280.375 184.518 280.312C185.28 280.233 185.893 280.159 186.359 280.091C186.825 280.017 187.163 279.909 187.374 279.767C187.584 279.625 187.689 279.415 187.689 279.136V279.085C187.689 278.545 187.518 278.128 187.178 277.832C186.842 277.537 186.365 277.389 185.746 277.389C185.092 277.389 184.572 277.534 184.186 277.824C183.8 278.108 183.544 278.466 183.419 278.898L180.061 278.625C180.232 277.83 180.567 277.142 181.067 276.562C181.567 275.977 182.212 275.528 183.001 275.216C183.797 274.898 184.717 274.739 185.763 274.739C186.49 274.739 187.186 274.824 187.851 274.994C188.521 275.165 189.115 275.429 189.632 275.787C190.155 276.145 190.567 276.605 190.868 277.168C191.169 277.724 191.32 278.392 191.32 279.17V288H187.876V286.185H187.774C187.564 286.594 187.283 286.955 186.93 287.267C186.578 287.574 186.155 287.815 185.661 287.991C185.166 288.162 184.595 288.247 183.947 288.247ZM184.987 285.741C185.521 285.741 185.993 285.636 186.402 285.426C186.811 285.21 187.132 284.92 187.365 284.557C187.598 284.193 187.714 283.781 187.714 283.321V281.932C187.601 282.006 187.445 282.074 187.246 282.136C187.053 282.193 186.834 282.247 186.589 282.298C186.345 282.344 186.101 282.386 185.857 282.426C185.612 282.46 185.391 282.491 185.192 282.52C184.766 282.582 184.393 282.682 184.075 282.818C183.757 282.955 183.51 283.139 183.334 283.372C183.158 283.599 183.07 283.884 183.07 284.224C183.07 284.719 183.249 285.097 183.607 285.358C183.97 285.614 184.43 285.741 184.987 285.741ZM205.872 274.909L201.295 288H197.205L192.628 274.909H196.463L199.182 284.276H199.318L202.028 274.909H205.872ZM211.112 288.247C210.276 288.247 209.532 288.102 208.879 287.812C208.225 287.517 207.708 287.082 207.327 286.509C206.952 285.929 206.765 285.207 206.765 284.344C206.765 283.616 206.898 283.006 207.165 282.511C207.433 282.017 207.796 281.619 208.256 281.318C208.717 281.017 209.239 280.79 209.825 280.636C210.415 280.483 211.035 280.375 211.683 280.312C212.444 280.233 213.058 280.159 213.523 280.091C213.989 280.017 214.327 279.909 214.538 279.767C214.748 279.625 214.853 279.415 214.853 279.136V279.085C214.853 278.545 214.683 278.128 214.342 277.832C214.006 277.537 213.529 277.389 212.91 277.389C212.256 277.389 211.737 277.534 211.35 277.824C210.964 278.108 210.708 278.466 210.583 278.898L207.225 278.625C207.396 277.83 207.731 277.142 208.231 276.562C208.731 275.977 209.376 275.528 210.165 275.216C210.961 274.898 211.881 274.739 212.927 274.739C213.654 274.739 214.35 274.824 215.015 274.994C215.685 275.165 216.279 275.429 216.796 275.787C217.319 276.145 217.731 276.605 218.032 277.168C218.333 277.724 218.484 278.392 218.484 279.17V288H215.04V286.185H214.938C214.728 286.594 214.447 286.955 214.094 287.267C213.742 287.574 213.319 287.815 212.825 287.991C212.33 288.162 211.759 288.247 211.112 288.247ZM212.151 285.741C212.685 285.741 213.157 285.636 213.566 285.426C213.975 285.21 214.296 284.92 214.529 284.557C214.762 284.193 214.879 283.781 214.879 283.321V281.932C214.765 282.006 214.609 282.074 214.41 282.136C214.217 282.193 213.998 282.247 213.754 282.298C213.509 282.344 213.265 282.386 213.021 282.426C212.776 282.46 212.555 282.491 212.356 282.52C211.93 282.582 211.558 282.682 211.239 282.818C210.921 282.955 210.674 283.139 210.498 283.372C210.322 283.599 210.234 283.884 210.234 284.224C210.234 284.719 210.413 285.097 210.771 285.358C211.134 285.614 211.594 285.741 212.151 285.741ZM83.9812 302.588V299.545H98.3164V302.588H92.9727V317H89.3249V302.588H83.9812ZM104.24 309.432V317H100.609V299.545H104.137V306.219H104.291C104.586 305.446 105.064 304.841 105.723 304.403C106.382 303.96 107.208 303.739 108.203 303.739C109.112 303.739 109.904 303.938 110.581 304.335C111.262 304.727 111.791 305.293 112.166 306.031C112.547 306.764 112.734 307.642 112.728 308.665V317H109.098V309.312C109.103 308.506 108.899 307.878 108.484 307.429C108.075 306.98 107.501 306.756 106.762 306.756C106.268 306.756 105.831 306.861 105.45 307.071C105.075 307.281 104.779 307.588 104.564 307.991C104.353 308.389 104.245 308.869 104.24 309.432ZM115.586 317V303.909H119.105V306.193H119.242C119.48 305.381 119.881 304.767 120.444 304.352C121.006 303.932 121.654 303.722 122.387 303.722C122.569 303.722 122.765 303.733 122.975 303.756C123.185 303.778 123.37 303.81 123.529 303.849V307.071C123.358 307.02 123.123 306.974 122.821 306.935C122.52 306.895 122.245 306.875 121.995 306.875C121.461 306.875 120.983 306.991 120.563 307.224C120.148 307.452 119.819 307.77 119.574 308.179C119.336 308.588 119.216 309.06 119.216 309.594V317H115.586ZM130.762 317.256C129.416 317.256 128.257 316.983 127.285 316.438C126.319 315.886 125.575 315.108 125.052 314.102C124.529 313.091 124.268 311.895 124.268 310.514C124.268 309.168 124.529 307.986 125.052 306.969C125.575 305.952 126.311 305.159 127.26 304.591C128.214 304.023 129.333 303.739 130.618 303.739C131.481 303.739 132.285 303.878 133.029 304.156C133.779 304.429 134.433 304.841 134.99 305.392C135.552 305.943 135.99 306.636 136.302 307.472C136.615 308.301 136.771 309.273 136.771 310.386V311.384H125.717V309.134H133.353C133.353 308.611 133.24 308.148 133.012 307.744C132.785 307.341 132.47 307.026 132.066 306.798C131.669 306.565 131.206 306.449 130.677 306.449C130.126 306.449 129.637 306.577 129.211 306.832C128.791 307.082 128.461 307.42 128.223 307.847C127.984 308.267 127.862 308.736 127.856 309.253V311.392C127.856 312.04 127.975 312.599 128.214 313.071C128.458 313.543 128.802 313.906 129.245 314.162C129.689 314.418 130.214 314.545 130.822 314.545C131.225 314.545 131.595 314.489 131.93 314.375C132.265 314.261 132.552 314.091 132.791 313.864C133.029 313.636 133.211 313.358 133.336 313.028L136.694 313.25C136.524 314.057 136.174 314.761 135.646 315.364C135.123 315.96 134.447 316.426 133.618 316.761C132.794 317.091 131.842 317.256 130.762 317.256ZM142.873 317.247C142.038 317.247 141.294 317.102 140.64 316.812C139.987 316.517 139.47 316.082 139.089 315.509C138.714 314.929 138.527 314.207 138.527 313.344C138.527 312.616 138.66 312.006 138.927 311.511C139.194 311.017 139.558 310.619 140.018 310.318C140.478 310.017 141.001 309.79 141.586 309.636C142.177 309.483 142.797 309.375 143.444 309.312C144.206 309.233 144.819 309.159 145.285 309.091C145.751 309.017 146.089 308.909 146.299 308.767C146.51 308.625 146.615 308.415 146.615 308.136V308.085C146.615 307.545 146.444 307.128 146.103 306.832C145.768 306.537 145.291 306.389 144.672 306.389C144.018 306.389 143.498 306.534 143.112 306.824C142.725 307.108 142.47 307.466 142.345 307.898L138.987 307.625C139.157 306.83 139.493 306.142 139.993 305.562C140.493 304.977 141.137 304.528 141.927 304.216C142.723 303.898 143.643 303.739 144.689 303.739C145.416 303.739 146.112 303.824 146.777 303.994C147.447 304.165 148.041 304.429 148.558 304.787C149.081 305.145 149.493 305.605 149.794 306.168C150.095 306.724 150.245 307.392 150.245 308.17V317H146.802V315.185H146.7C146.49 315.594 146.208 315.955 145.856 316.267C145.504 316.574 145.081 316.815 144.586 316.991C144.092 317.162 143.521 317.247 142.873 317.247ZM143.913 314.741C144.447 314.741 144.919 314.636 145.328 314.426C145.737 314.21 146.058 313.92 146.291 313.557C146.524 313.193 146.64 312.781 146.64 312.321V310.932C146.527 311.006 146.37 311.074 146.172 311.136C145.978 311.193 145.76 311.247 145.515 311.298C145.271 311.344 145.027 311.386 144.782 311.426C144.538 311.46 144.316 311.491 144.118 311.52C143.691 311.582 143.319 311.682 143.001 311.818C142.683 311.955 142.436 312.139 142.26 312.372C142.083 312.599 141.995 312.884 141.995 313.224C141.995 313.719 142.174 314.097 142.532 314.358C142.896 314.614 143.356 314.741 143.913 314.741ZM157.886 317.213C156.892 317.213 155.991 316.957 155.184 316.446C154.383 315.929 153.747 315.17 153.275 314.17C152.809 313.165 152.576 311.932 152.576 310.472C152.576 308.972 152.818 307.724 153.301 306.73C153.784 305.73 154.426 304.983 155.227 304.489C156.034 303.989 156.917 303.739 157.877 303.739C158.61 303.739 159.221 303.864 159.71 304.114C160.204 304.358 160.602 304.665 160.903 305.034C161.21 305.398 161.443 305.756 161.602 306.108H161.713V299.545H165.335V317H161.755V314.903H161.602C161.431 315.267 161.19 315.628 160.877 315.986C160.571 316.338 160.17 316.631 159.676 316.864C159.187 317.097 158.591 317.213 157.886 317.213ZM159.037 314.324C159.622 314.324 160.116 314.165 160.52 313.847C160.929 313.523 161.241 313.071 161.457 312.491C161.679 311.912 161.789 311.233 161.789 310.455C161.789 309.676 161.681 309 161.466 308.426C161.25 307.852 160.937 307.409 160.528 307.097C160.119 306.784 159.622 306.628 159.037 306.628C158.44 306.628 157.937 306.79 157.528 307.114C157.119 307.437 156.809 307.886 156.599 308.46C156.389 309.034 156.284 309.699 156.284 310.455C156.284 311.216 156.389 311.889 156.599 312.474C156.815 313.054 157.125 313.509 157.528 313.838C157.937 314.162 158.44 314.324 159.037 314.324Z" fill="white"/>
<path d="M425.993 282.545V300H422.303V286.048H422.2L418.203 288.554V285.281L422.524 282.545H425.993ZM435.798 300V282.545H439.489V289.747H446.98V282.545H450.662V300H446.98V292.79H439.489V300H435.798ZM459.602 300.256C458.256 300.256 457.097 299.983 456.125 299.438C455.159 298.886 454.415 298.108 453.892 297.102C453.369 296.091 453.108 294.895 453.108 293.514C453.108 292.168 453.369 290.986 453.892 289.969C454.415 288.952 455.151 288.159 456.099 287.591C457.054 287.023 458.173 286.739 459.457 286.739C460.321 286.739 461.125 286.878 461.869 287.156C462.619 287.429 463.273 287.841 463.83 288.392C464.392 288.943 464.83 289.636 465.142 290.472C465.455 291.301 465.611 292.273 465.611 293.386V294.384H454.557V292.134H462.193C462.193 291.611 462.08 291.148 461.852 290.744C461.625 290.341 461.31 290.026 460.906 289.798C460.509 289.565 460.045 289.449 459.517 289.449C458.966 289.449 458.477 289.577 458.051 289.832C457.631 290.082 457.301 290.42 457.062 290.847C456.824 291.267 456.702 291.736 456.696 292.253V294.392C456.696 295.04 456.815 295.599 457.054 296.071C457.298 296.543 457.642 296.906 458.085 297.162C458.528 297.418 459.054 297.545 459.662 297.545C460.065 297.545 460.435 297.489 460.77 297.375C461.105 297.261 461.392 297.091 461.631 296.864C461.869 296.636 462.051 296.358 462.176 296.028L465.534 296.25C465.364 297.057 465.014 297.761 464.486 298.364C463.963 298.96 463.287 299.426 462.457 299.761C461.634 300.091 460.682 300.256 459.602 300.256ZM471.713 300.247C470.878 300.247 470.134 300.102 469.48 299.812C468.827 299.517 468.31 299.082 467.929 298.509C467.554 297.929 467.366 297.207 467.366 296.344C467.366 295.616 467.5 295.006 467.767 294.511C468.034 294.017 468.398 293.619 468.858 293.318C469.318 293.017 469.841 292.79 470.426 292.636C471.017 292.483 471.636 292.375 472.284 292.312C473.045 292.233 473.659 292.159 474.125 292.091C474.591 292.017 474.929 291.909 475.139 291.767C475.349 291.625 475.455 291.415 475.455 291.136V291.085C475.455 290.545 475.284 290.128 474.943 289.832C474.608 289.537 474.131 289.389 473.511 289.389C472.858 289.389 472.338 289.534 471.952 289.824C471.565 290.108 471.31 290.466 471.185 290.898L467.827 290.625C467.997 289.83 468.332 289.142 468.832 288.562C469.332 287.977 469.977 287.528 470.767 287.216C471.563 286.898 472.483 286.739 473.528 286.739C474.256 286.739 474.952 286.824 475.616 286.994C476.287 287.165 476.881 287.429 477.398 287.787C477.92 288.145 478.332 288.605 478.634 289.168C478.935 289.724 479.085 290.392 479.085 291.17V300H475.642V298.185H475.54C475.33 298.594 475.048 298.955 474.696 299.267C474.344 299.574 473.92 299.815 473.426 299.991C472.932 300.162 472.361 300.247 471.713 300.247ZM472.753 297.741C473.287 297.741 473.759 297.636 474.168 297.426C474.577 297.21 474.898 296.92 475.131 296.557C475.364 296.193 475.48 295.781 475.48 295.321V293.932C475.366 294.006 475.21 294.074 475.011 294.136C474.818 294.193 474.599 294.247 474.355 294.298C474.111 294.344 473.866 294.386 473.622 294.426C473.378 294.46 473.156 294.491 472.957 294.52C472.531 294.582 472.159 294.682 471.841 294.818C471.523 294.955 471.276 295.139 471.099 295.372C470.923 295.599 470.835 295.884 470.835 296.224C470.835 296.719 471.014 297.097 471.372 297.358C471.736 297.614 472.196 297.741 472.753 297.741ZM481.902 304.909V286.909H485.482V289.108H485.643C485.803 288.756 486.033 288.398 486.334 288.034C486.641 287.665 487.038 287.358 487.527 287.114C488.021 286.864 488.635 286.739 489.368 286.739C490.322 286.739 491.203 286.989 492.01 287.489C492.817 287.983 493.462 288.73 493.945 289.73C494.428 290.724 494.669 291.972 494.669 293.472C494.669 294.932 494.433 296.165 493.962 297.17C493.496 298.17 492.859 298.929 492.053 299.446C491.251 299.957 490.354 300.213 489.359 300.213C488.655 300.213 488.055 300.097 487.561 299.864C487.072 299.631 486.672 299.338 486.359 298.986C486.047 298.628 485.808 298.267 485.643 297.903H485.533V304.909H481.902ZM485.456 293.455C485.456 294.233 485.564 294.912 485.78 295.491C485.996 296.071 486.308 296.523 486.717 296.847C487.126 297.165 487.624 297.324 488.209 297.324C488.8 297.324 489.3 297.162 489.709 296.838C490.118 296.509 490.428 296.054 490.638 295.474C490.854 294.889 490.962 294.216 490.962 293.455C490.962 292.699 490.857 292.034 490.646 291.46C490.436 290.886 490.126 290.437 489.717 290.114C489.308 289.79 488.805 289.628 488.209 289.628C487.618 289.628 487.118 289.784 486.709 290.097C486.305 290.409 485.996 290.852 485.78 291.426C485.564 292 485.456 292.676 485.456 293.455ZM502.712 300V282.545H509.599C510.923 282.545 512.05 282.798 512.982 283.304C513.914 283.804 514.624 284.5 515.113 285.392C515.607 286.278 515.854 287.301 515.854 288.46C515.854 289.619 515.604 290.642 515.104 291.528C514.604 292.415 513.88 293.105 512.931 293.599C511.988 294.094 510.846 294.341 509.505 294.341H505.116V291.384H508.908C509.619 291.384 510.204 291.261 510.664 291.017C511.13 290.767 511.477 290.423 511.704 289.986C511.937 289.543 512.053 289.034 512.053 288.46C512.053 287.881 511.937 287.375 511.704 286.943C511.477 286.506 511.13 286.168 510.664 285.929C510.198 285.685 509.607 285.562 508.891 285.562H506.403V300H502.712ZM523.938 300.256C522.592 300.256 521.433 299.983 520.461 299.438C519.495 298.886 518.751 298.108 518.228 297.102C517.705 296.091 517.444 294.895 517.444 293.514C517.444 292.168 517.705 290.986 518.228 289.969C518.751 288.952 519.487 288.159 520.435 287.591C521.39 287.023 522.509 286.739 523.793 286.739C524.657 286.739 525.461 286.878 526.205 287.156C526.955 287.429 527.609 287.841 528.165 288.392C528.728 288.943 529.165 289.636 529.478 290.472C529.79 291.301 529.947 292.273 529.947 293.386V294.384H518.893V292.134H526.529C526.529 291.611 526.415 291.148 526.188 290.744C525.961 290.341 525.646 290.026 525.242 289.798C524.844 289.565 524.381 289.449 523.853 289.449C523.302 289.449 522.813 289.577 522.387 289.832C521.967 290.082 521.637 290.42 521.398 290.847C521.16 291.267 521.038 291.736 521.032 292.253V294.392C521.032 295.04 521.151 295.599 521.39 296.071C521.634 296.543 521.978 296.906 522.421 297.162C522.864 297.418 523.39 297.545 523.998 297.545C524.401 297.545 524.771 297.489 525.106 297.375C525.441 297.261 525.728 297.091 525.967 296.864C526.205 296.636 526.387 296.358 526.512 296.028L529.87 296.25C529.7 297.057 529.35 297.761 528.822 298.364C528.299 298.96 527.623 299.426 526.793 299.761C525.969 300.091 525.018 300.256 523.938 300.256ZM532.316 300V286.909H535.836V289.193H535.972C536.211 288.381 536.612 287.767 537.174 287.352C537.737 286.932 538.384 286.722 539.117 286.722C539.299 286.722 539.495 286.733 539.705 286.756C539.915 286.778 540.1 286.81 540.259 286.849V290.071C540.089 290.02 539.853 289.974 539.552 289.935C539.251 289.895 538.975 289.875 538.725 289.875C538.191 289.875 537.714 289.991 537.293 290.224C536.879 290.452 536.549 290.77 536.305 291.179C536.066 291.588 535.947 292.06 535.947 292.594V300H532.316ZM554.748 282.545H558.396V294.716C558.396 295.841 558.143 296.818 557.637 297.648C557.137 298.477 556.441 299.116 555.549 299.565C554.657 300.014 553.62 300.239 552.438 300.239C551.387 300.239 550.433 300.054 549.575 299.685C548.722 299.31 548.046 298.741 547.546 297.98C547.046 297.213 546.799 296.25 546.805 295.091H550.478C550.489 295.551 550.583 295.946 550.759 296.276C550.941 296.599 551.188 296.849 551.501 297.026C551.819 297.196 552.194 297.281 552.626 297.281C553.08 297.281 553.464 297.185 553.776 296.991C554.094 296.793 554.336 296.503 554.501 296.122C554.665 295.741 554.748 295.273 554.748 294.716V282.545ZM565.112 300.247C564.276 300.247 563.532 300.102 562.879 299.812C562.225 299.517 561.708 299.082 561.327 298.509C560.952 297.929 560.765 297.207 560.765 296.344C560.765 295.616 560.898 295.006 561.165 294.511C561.433 294.017 561.796 293.619 562.256 293.318C562.717 293.017 563.239 292.79 563.825 292.636C564.415 292.483 565.035 292.375 565.683 292.312C566.444 292.233 567.058 292.159 567.523 292.091C567.989 292.017 568.327 291.909 568.538 291.767C568.748 291.625 568.853 291.415 568.853 291.136V291.085C568.853 290.545 568.683 290.128 568.342 289.832C568.006 289.537 567.529 289.389 566.91 289.389C566.256 289.389 565.737 289.534 565.35 289.824C564.964 290.108 564.708 290.466 564.583 290.898L561.225 290.625C561.396 289.83 561.731 289.142 562.231 288.562C562.731 287.977 563.376 287.528 564.165 287.216C564.961 286.898 565.881 286.739 566.927 286.739C567.654 286.739 568.35 286.824 569.015 286.994C569.685 287.165 570.279 287.429 570.796 287.787C571.319 288.145 571.731 288.605 572.032 289.168C572.333 289.724 572.484 290.392 572.484 291.17V300H569.04V298.185H568.938C568.728 298.594 568.447 298.955 568.094 299.267C567.742 299.574 567.319 299.815 566.825 299.991C566.33 300.162 565.759 300.247 565.112 300.247ZM566.151 297.741C566.685 297.741 567.157 297.636 567.566 297.426C567.975 297.21 568.296 296.92 568.529 296.557C568.762 296.193 568.879 295.781 568.879 295.321V293.932C568.765 294.006 568.609 294.074 568.41 294.136C568.217 294.193 567.998 294.247 567.754 294.298C567.509 294.344 567.265 294.386 567.021 294.426C566.776 294.46 566.555 294.491 566.356 294.52C565.93 294.582 565.558 294.682 565.239 294.818C564.921 294.955 564.674 295.139 564.498 295.372C564.322 295.599 564.234 295.884 564.234 296.224C564.234 296.719 564.413 297.097 564.771 297.358C565.134 297.614 565.594 297.741 566.151 297.741ZM587.036 286.909L582.46 300H578.369L573.792 286.909H577.627L580.346 296.276H580.482L583.192 286.909H587.036ZM592.276 300.247C591.44 300.247 590.696 300.102 590.043 299.812C589.389 299.517 588.872 299.082 588.491 298.509C588.116 297.929 587.929 297.207 587.929 296.344C587.929 295.616 588.063 295.006 588.33 294.511C588.597 294.017 588.96 293.619 589.42 293.318C589.881 293.017 590.403 292.79 590.989 292.636C591.58 292.483 592.199 292.375 592.847 292.312C593.608 292.233 594.222 292.159 594.688 292.091C595.153 292.017 595.491 291.909 595.702 291.767C595.912 291.625 596.017 291.415 596.017 291.136V291.085C596.017 290.545 595.847 290.128 595.506 289.832C595.17 289.537 594.693 289.389 594.074 289.389C593.42 289.389 592.901 289.534 592.514 289.824C592.128 290.108 591.872 290.466 591.747 290.898L588.389 290.625C588.56 289.83 588.895 289.142 589.395 288.562C589.895 287.977 590.54 287.528 591.33 287.216C592.125 286.898 593.045 286.739 594.091 286.739C594.818 286.739 595.514 286.824 596.179 286.994C596.849 287.165 597.443 287.429 597.96 287.787C598.483 288.145 598.895 288.605 599.196 289.168C599.497 289.724 599.648 290.392 599.648 291.17V300H596.205V298.185H596.102C595.892 298.594 595.611 298.955 595.259 299.267C594.906 299.574 594.483 299.815 593.989 299.991C593.494 300.162 592.923 300.247 592.276 300.247ZM593.315 297.741C593.849 297.741 594.321 297.636 594.73 297.426C595.139 297.21 595.46 296.92 595.693 296.557C595.926 296.193 596.043 295.781 596.043 295.321V293.932C595.929 294.006 595.773 294.074 595.574 294.136C595.381 294.193 595.162 294.247 594.918 294.298C594.673 294.344 594.429 294.386 594.185 294.426C593.94 294.46 593.719 294.491 593.52 294.52C593.094 294.582 592.722 294.682 592.403 294.818C592.085 294.955 591.838 295.139 591.662 295.372C591.486 295.599 591.398 295.884 591.398 296.224C591.398 296.719 591.577 297.097 591.935 297.358C592.298 297.614 592.759 297.741 593.315 297.741ZM463.091 329V311.545H469.978C471.301 311.545 472.429 311.798 473.361 312.304C474.293 312.804 475.003 313.5 475.492 314.392C475.986 315.278 476.233 316.301 476.233 317.46C476.233 318.619 475.983 319.642 475.483 320.528C474.983 321.415 474.259 322.105 473.31 322.599C472.367 323.094 471.225 323.341 469.884 323.341H465.495V320.384H469.287C469.998 320.384 470.583 320.261 471.043 320.017C471.509 319.767 471.855 319.423 472.083 318.986C472.316 318.543 472.432 318.034 472.432 317.46C472.432 316.881 472.316 316.375 472.083 315.943C471.855 315.506 471.509 315.168 471.043 314.929C470.577 314.685 469.986 314.562 469.27 314.562H466.782V329H463.091ZM478.562 329V315.909H482.082V318.193H482.218C482.457 317.381 482.858 316.767 483.42 316.352C483.983 315.932 484.63 315.722 485.363 315.722C485.545 315.722 485.741 315.733 485.951 315.756C486.162 315.778 486.346 315.81 486.505 315.849V319.071C486.335 319.02 486.099 318.974 485.798 318.935C485.497 318.895 485.221 318.875 484.971 318.875C484.437 318.875 483.96 318.991 483.539 319.224C483.125 319.452 482.795 319.77 482.551 320.179C482.312 320.588 482.193 321.06 482.193 321.594V329H478.562ZM493.688 329.256C492.364 329.256 491.219 328.974 490.253 328.412C489.293 327.844 488.551 327.054 488.029 326.043C487.506 325.026 487.245 323.847 487.245 322.506C487.245 321.153 487.506 319.972 488.029 318.96C488.551 317.943 489.293 317.153 490.253 316.591C491.219 316.023 492.364 315.739 493.688 315.739C495.012 315.739 496.154 316.023 497.114 316.591C498.08 317.153 498.824 317.943 499.347 318.96C499.87 319.972 500.131 321.153 500.131 322.506C500.131 323.847 499.87 325.026 499.347 326.043C498.824 327.054 498.08 327.844 497.114 328.412C496.154 328.974 495.012 329.256 493.688 329.256ZM493.705 326.443C494.307 326.443 494.81 326.273 495.213 325.932C495.617 325.585 495.921 325.114 496.125 324.517C496.336 323.92 496.441 323.241 496.441 322.48C496.441 321.719 496.336 321.04 496.125 320.443C495.921 319.847 495.617 319.375 495.213 319.028C494.81 318.682 494.307 318.509 493.705 318.509C493.097 318.509 492.586 318.682 492.171 319.028C491.762 319.375 491.452 319.847 491.242 320.443C491.037 321.04 490.935 321.719 490.935 322.48C490.935 323.241 491.037 323.92 491.242 324.517C491.452 325.114 491.762 325.585 492.171 325.932C492.586 326.273 493.097 326.443 493.705 326.443ZM508.407 329.256C507.066 329.256 505.912 328.972 504.946 328.403C503.986 327.83 503.248 327.034 502.73 326.017C502.219 325 501.963 323.83 501.963 322.506C501.963 321.165 502.222 319.989 502.739 318.977C503.262 317.96 504.003 317.168 504.963 316.599C505.924 316.026 507.066 315.739 508.39 315.739C509.532 315.739 510.532 315.946 511.39 316.361C512.248 316.776 512.926 317.358 513.426 318.108C513.926 318.858 514.202 319.739 514.253 320.75H510.827C510.73 320.097 510.475 319.571 510.06 319.173C509.651 318.77 509.114 318.568 508.449 318.568C507.887 318.568 507.395 318.722 506.975 319.028C506.56 319.33 506.236 319.77 506.003 320.349C505.77 320.929 505.654 321.631 505.654 322.455C505.654 323.29 505.767 324 505.995 324.585C506.228 325.17 506.554 325.616 506.975 325.923C507.395 326.23 507.887 326.384 508.449 326.384C508.864 326.384 509.236 326.298 509.566 326.128C509.901 325.957 510.176 325.71 510.392 325.386C510.614 325.057 510.759 324.662 510.827 324.202H514.253C514.196 325.202 513.924 326.082 513.435 326.844C512.952 327.599 512.284 328.19 511.432 328.616C510.58 329.043 509.571 329.256 508.407 329.256ZM522.544 329.256C521.197 329.256 520.038 328.983 519.066 328.438C518.1 327.886 517.356 327.108 516.833 326.102C516.311 325.091 516.049 323.895 516.049 322.514C516.049 321.168 516.311 319.986 516.833 318.969C517.356 317.952 518.092 317.159 519.041 316.591C519.995 316.023 521.115 315.739 522.399 315.739C523.262 315.739 524.066 315.878 524.811 316.156C525.561 316.429 526.214 316.841 526.771 317.392C527.333 317.943 527.771 318.636 528.083 319.472C528.396 320.301 528.552 321.273 528.552 322.386V323.384H517.498V321.134H525.135C525.135 320.611 525.021 320.148 524.794 319.744C524.566 319.341 524.251 319.026 523.848 318.798C523.45 318.565 522.987 318.449 522.458 318.449C521.907 318.449 521.419 318.577 520.993 318.832C520.572 319.082 520.243 319.42 520.004 319.847C519.765 320.267 519.643 320.736 519.637 321.253V323.392C519.637 324.04 519.757 324.599 519.995 325.071C520.24 325.543 520.583 325.906 521.027 326.162C521.47 326.418 521.995 326.545 522.603 326.545C523.007 326.545 523.376 326.489 523.711 326.375C524.047 326.261 524.333 326.091 524.572 325.864C524.811 325.636 524.993 325.358 525.118 325.028L528.475 325.25C528.305 326.057 527.956 326.761 527.427 327.364C526.904 327.96 526.228 328.426 525.399 328.761C524.575 329.091 523.623 329.256 522.544 329.256ZM541.814 319.642L538.49 319.847C538.433 319.562 538.311 319.307 538.123 319.08C537.936 318.847 537.689 318.662 537.382 318.526C537.081 318.384 536.72 318.312 536.299 318.312C535.737 318.312 535.262 318.432 534.876 318.67C534.49 318.903 534.297 319.216 534.297 319.608C534.297 319.92 534.422 320.185 534.672 320.401C534.922 320.616 535.35 320.79 535.958 320.92L538.328 321.398C539.6 321.659 540.549 322.08 541.174 322.659C541.799 323.239 542.112 324 542.112 324.943C542.112 325.801 541.859 326.554 541.353 327.202C540.853 327.849 540.166 328.355 539.291 328.719C538.422 329.077 537.419 329.256 536.282 329.256C534.549 329.256 533.169 328.895 532.14 328.173C531.118 327.446 530.518 326.457 530.342 325.207L533.913 325.02C534.021 325.548 534.282 325.952 534.697 326.23C535.112 326.503 535.643 326.639 536.291 326.639C536.927 326.639 537.439 326.517 537.825 326.273C538.217 326.023 538.416 325.702 538.422 325.31C538.416 324.98 538.277 324.71 538.004 324.5C537.731 324.284 537.311 324.119 536.743 324.006L534.475 323.554C533.197 323.298 532.245 322.855 531.62 322.224C531.001 321.594 530.691 320.79 530.691 319.812C530.691 318.972 530.919 318.247 531.373 317.639C531.833 317.031 532.478 316.562 533.308 316.233C534.143 315.903 535.12 315.739 536.24 315.739C537.893 315.739 539.194 316.088 540.143 316.787C541.098 317.486 541.654 318.437 541.814 319.642ZM555.29 319.642L551.966 319.847C551.909 319.562 551.787 319.307 551.6 319.08C551.412 318.847 551.165 318.662 550.858 318.526C550.557 318.384 550.196 318.312 549.776 318.312C549.213 318.312 548.739 318.432 548.353 318.67C547.966 318.903 547.773 319.216 547.773 319.608C547.773 319.92 547.898 320.185 548.148 320.401C548.398 320.616 548.827 320.79 549.435 320.92L551.804 321.398C553.077 321.659 554.026 322.08 554.651 322.659C555.276 323.239 555.588 324 555.588 324.943C555.588 325.801 555.336 326.554 554.83 327.202C554.33 327.849 553.642 328.355 552.767 328.719C551.898 329.077 550.895 329.256 549.759 329.256C548.026 329.256 546.645 328.895 545.617 328.173C544.594 327.446 543.995 326.457 543.819 325.207L547.39 325.02C547.498 325.548 547.759 325.952 548.174 326.23C548.588 326.503 549.12 326.639 549.767 326.639C550.404 326.639 550.915 326.517 551.301 326.273C551.694 326.023 551.892 325.702 551.898 325.31C551.892 324.98 551.753 324.71 551.48 324.5C551.208 324.284 550.787 324.119 550.219 324.006L547.952 323.554C546.674 323.298 545.722 322.855 545.097 322.224C544.478 321.594 544.168 320.79 544.168 319.812C544.168 318.972 544.395 318.247 544.85 317.639C545.31 317.031 545.955 316.562 546.784 316.233C547.62 315.903 548.597 315.739 549.716 315.739C551.37 315.739 552.671 316.088 553.62 316.787C554.574 317.486 555.131 318.437 555.29 319.642Z" fill="white"/>
<rect x="401" y="49" width="215" height="216" fill="#FECC1B"/>
</svg>
