<svg width="1212" height="248" viewBox="0 0 1212 248" fill="none" xmlns="http://www.w3.org/2000/svg">
<rect width="1212" height="248" fill="#121212"/>
<path d="M1182.06 222.811C1182.65 222.225 1182.65 221.275 1182.06 220.689L1172.52 211.143C1171.93 210.558 1170.98 210.558 1170.39 211.143C1169.81 211.729 1169.81 212.679 1170.39 213.265L1178.88 221.75L1170.39 230.235C1169.81 230.821 1169.81 231.771 1170.39 232.357C1170.98 232.942 1171.93 232.942 1172.52 232.357L1182.06 222.811ZM31.9895 223.25H1181V220.25H31.9895V223.25Z" fill="white"/>
<rect x="91.5" y="39.5" width="80" height="168" fill="#3DEFE9" stroke="black"/>
<rect x="1050.5" y="39.5" width="80" height="168" fill="#3DEFE9" stroke="black"/>
<rect x="251.5" y="39.5" width="80" height="168" fill="#3DEFE9" stroke="black"/>
<rect x="411.5" y="39.5" width="80" height="168" fill="#3DEFE9" stroke="black"/>
<rect x="571.5" y="39.5" width="80" height="168" fill="#3DEFE9" stroke="black"/>
<rect x="731.5" y="39.5" width="80" height="168" fill="#3DEFE9" stroke="black"/>
<rect x="891.5" y="39.5" width="80" height="168" fill="#3DEFE9" stroke="black"/>
<path d="M251 39H332V65H251V39Z" fill="#D83BD2"/>
<path d="M268.83 57.1648C268.273 57.1648 267.777 57.0682 267.341 56.875C266.905 56.678 266.561 56.3883 266.307 56.0057C266.057 55.6193 265.932 55.1383 265.932 54.5625C265.932 54.0777 266.021 53.6705 266.199 53.3409C266.377 53.0114 266.619 52.7462 266.926 52.5455C267.233 52.3447 267.581 52.1932 267.972 52.0909C268.366 51.9886 268.778 51.9167 269.21 51.875C269.718 51.822 270.127 51.7727 270.438 51.7273C270.748 51.678 270.973 51.6061 271.114 51.5114C271.254 51.4167 271.324 51.2765 271.324 51.0909V51.0568C271.324 50.697 271.21 50.4186 270.983 50.2216C270.759 50.0246 270.441 49.9261 270.028 49.9261C269.593 49.9261 269.246 50.0227 268.989 50.2159C268.731 50.4053 268.561 50.6439 268.477 50.9318L266.239 50.75C266.352 50.2197 266.576 49.7614 266.909 49.375C267.242 48.9848 267.672 48.6856 268.199 48.4773C268.729 48.2652 269.343 48.1591 270.04 48.1591C270.525 48.1591 270.989 48.2159 271.432 48.3295C271.879 48.4432 272.275 48.6193 272.619 48.858C272.968 49.0966 273.242 49.4034 273.443 49.7784C273.644 50.1496 273.744 50.5947 273.744 51.1136V57H271.449V55.7898H271.381C271.241 56.0625 271.053 56.303 270.818 56.5114C270.583 56.7159 270.301 56.8769 269.972 56.9943C269.642 57.108 269.261 57.1648 268.83 57.1648ZM269.523 55.4943C269.879 55.4943 270.193 55.4242 270.466 55.2841C270.739 55.1402 270.953 54.947 271.108 54.7045C271.263 54.4621 271.341 54.1875 271.341 53.8807V52.9545C271.265 53.0038 271.161 53.0492 271.028 53.0909C270.9 53.1288 270.754 53.1648 270.591 53.1989C270.428 53.2292 270.265 53.2576 270.102 53.2841C269.939 53.3068 269.792 53.3277 269.659 53.3466C269.375 53.3883 269.127 53.4545 268.915 53.5455C268.703 53.6364 268.538 53.7595 268.42 53.9148C268.303 54.0663 268.244 54.2557 268.244 54.483C268.244 54.8125 268.364 55.0644 268.602 55.2386C268.845 55.4091 269.152 55.4943 269.523 55.4943ZM279.871 50.3068V48.2841H287.717V50.3068H279.871ZM279.871 54.0795V52.0568H287.717V54.0795H279.871ZM298.943 45.3636V57H296.483V47.6989H296.415L293.75 49.3693V47.1875L296.631 45.3636H298.943ZM306.271 57.2557C305.294 57.2519 304.453 57.0114 303.749 56.5341C303.048 56.0568 302.508 55.3655 302.129 54.4602C301.754 53.5549 301.569 52.4659 301.572 51.1932C301.572 49.9242 301.76 48.8428 302.135 47.9489C302.514 47.0549 303.054 46.375 303.754 45.9091C304.459 45.4394 305.298 45.2045 306.271 45.2045C307.245 45.2045 308.082 45.4394 308.783 45.9091C309.487 46.3788 310.029 47.0606 310.408 47.9545C310.786 48.8447 310.974 49.9242 310.97 51.1932C310.97 52.4697 310.781 53.5606 310.402 54.4659C310.027 55.3712 309.489 56.0625 308.788 56.5398C308.088 57.017 307.249 57.2557 306.271 57.2557ZM306.271 55.2159C306.938 55.2159 307.47 54.8807 307.868 54.2102C308.266 53.5398 308.463 52.5341 308.459 51.1932C308.459 50.3106 308.368 49.5758 308.186 48.9886C308.008 48.4015 307.754 47.9602 307.425 47.6648C307.099 47.3693 306.714 47.2216 306.271 47.2216C305.608 47.2216 305.078 47.553 304.68 48.2159C304.283 48.8788 304.082 49.8712 304.078 51.1932C304.078 52.0871 304.167 52.8333 304.345 53.4318C304.527 54.0265 304.783 54.4735 305.112 54.7727C305.442 55.0682 305.828 55.2159 306.271 55.2159ZM315.378 55.4091L315.315 56.0341C315.266 56.5341 315.171 57.0322 315.031 57.5284C314.895 58.0284 314.751 58.4811 314.599 58.8864C314.452 59.2917 314.332 59.6098 314.241 59.8409H312.673C312.73 59.6174 312.808 59.3049 312.906 58.9034C313.005 58.5057 313.098 58.0587 313.185 57.5625C313.272 57.0663 313.327 56.5606 313.349 56.0455L313.378 55.4091H315.378ZM314.366 51.0341C313.991 51.0341 313.67 50.9015 313.401 50.6364C313.135 50.3712 313.003 50.0492 313.003 49.6705C313.003 49.2992 313.135 48.983 313.401 48.7216C313.67 48.4564 313.991 48.3239 314.366 48.3239C314.73 48.3239 315.048 48.4564 315.321 48.7216C315.594 48.983 315.73 49.2992 315.73 49.6705C315.73 49.9242 315.666 50.1553 315.537 50.3636C315.412 50.5682 315.247 50.7311 315.043 50.8523C314.838 50.9735 314.613 51.0341 314.366 51.0341Z" fill="white"/>
<path d="M891 39H972V65H891V39Z" fill="#D83BD2"/>
<path d="M908.83 57.1648C908.273 57.1648 907.777 57.0682 907.341 56.875C906.905 56.678 906.561 56.3883 906.307 56.0057C906.057 55.6193 905.932 55.1383 905.932 54.5625C905.932 54.0777 906.021 53.6705 906.199 53.3409C906.377 53.0114 906.619 52.7462 906.926 52.5455C907.233 52.3447 907.581 52.1932 907.972 52.0909C908.366 51.9886 908.778 51.9167 909.21 51.875C909.718 51.822 910.127 51.7727 910.438 51.7273C910.748 51.678 910.973 51.6061 911.114 51.5114C911.254 51.4167 911.324 51.2765 911.324 51.0909V51.0568C911.324 50.697 911.21 50.4186 910.983 50.2216C910.759 50.0246 910.441 49.9261 910.028 49.9261C909.593 49.9261 909.246 50.0227 908.989 50.2159C908.731 50.4053 908.561 50.6439 908.477 50.9318L906.239 50.75C906.352 50.2197 906.576 49.7614 906.909 49.375C907.242 48.9848 907.672 48.6856 908.199 48.4773C908.729 48.2652 909.343 48.1591 910.04 48.1591C910.525 48.1591 910.989 48.2159 911.432 48.3295C911.879 48.4432 912.275 48.6193 912.619 48.858C912.968 49.0966 913.242 49.4034 913.443 49.7784C913.644 50.1496 913.744 50.5947 913.744 51.1136V57H911.449V55.7898H911.381C911.241 56.0625 911.053 56.303 910.818 56.5114C910.583 56.7159 910.301 56.8769 909.972 56.9943C909.642 57.108 909.261 57.1648 908.83 57.1648ZM909.523 55.4943C909.879 55.4943 910.193 55.4242 910.466 55.2841C910.739 55.1402 910.953 54.947 911.108 54.7045C911.263 54.4621 911.341 54.1875 911.341 53.8807V52.9545C911.265 53.0038 911.161 53.0492 911.028 53.0909C910.9 53.1288 910.754 53.1648 910.591 53.1989C910.428 53.2292 910.265 53.2576 910.102 53.2841C909.939 53.3068 909.792 53.3277 909.659 53.3466C909.375 53.3883 909.127 53.4545 908.915 53.5455C908.703 53.6364 908.538 53.7595 908.42 53.9148C908.303 54.0663 908.244 54.2557 908.244 54.483C908.244 54.8125 908.364 55.0644 908.602 55.2386C908.845 55.4091 909.152 55.4943 909.523 55.4943ZM919.871 50.3068V48.2841H927.717V50.3068H919.871ZM919.871 54.0795V52.0568H927.717V54.0795H919.871ZM938.943 45.3636V57H936.483V47.6989H936.415L933.75 49.3693V47.1875L936.631 45.3636H938.943ZM946.271 57.2557C945.294 57.2519 944.453 57.0114 943.749 56.5341C943.048 56.0568 942.508 55.3655 942.129 54.4602C941.754 53.5549 941.569 52.4659 941.572 51.1932C941.572 49.9242 941.76 48.8428 942.135 47.9489C942.514 47.0549 943.054 46.375 943.754 45.9091C944.459 45.4394 945.298 45.2045 946.271 45.2045C947.245 45.2045 948.082 45.4394 948.783 45.9091C949.487 46.3788 950.029 47.0606 950.408 47.9545C950.786 48.8447 950.974 49.9242 950.97 51.1932C950.97 52.4697 950.781 53.5606 950.402 54.4659C950.027 55.3712 949.489 56.0625 948.788 56.5398C948.088 57.017 947.249 57.2557 946.271 57.2557ZM946.271 55.2159C946.938 55.2159 947.47 54.8807 947.868 54.2102C948.266 53.5398 948.463 52.5341 948.459 51.1932C948.459 50.3106 948.368 49.5758 948.186 48.9886C948.008 48.4015 947.754 47.9602 947.425 47.6648C947.099 47.3693 946.714 47.2216 946.271 47.2216C945.608 47.2216 945.078 47.553 944.68 48.2159C944.283 48.8788 944.082 49.8712 944.078 51.1932C944.078 52.0871 944.167 52.8333 944.345 53.4318C944.527 54.0265 944.783 54.4735 945.112 54.7727C945.442 55.0682 945.828 55.2159 946.271 55.2159ZM955.378 55.4091L955.315 56.0341C955.266 56.5341 955.171 57.0322 955.031 57.5284C954.895 58.0284 954.751 58.4811 954.599 58.8864C954.452 59.2917 954.332 59.6098 954.241 59.8409H952.673C952.73 59.6174 952.808 59.3049 952.906 58.9034C953.005 58.5057 953.098 58.0587 953.185 57.5625C953.272 57.0663 953.327 56.5606 953.349 56.0455L953.378 55.4091H955.378ZM954.366 51.0341C953.991 51.0341 953.67 50.9015 953.401 50.6364C953.135 50.3712 953.003 50.0492 953.003 49.6705C953.003 49.2992 953.135 48.983 953.401 48.7216C953.67 48.4564 953.991 48.3239 954.366 48.3239C954.73 48.3239 955.048 48.4564 955.321 48.7216C955.594 48.983 955.73 49.2992 955.73 49.6705C955.73 49.9242 955.666 50.1553 955.537 50.3636C955.412 50.5682 955.247 50.7311 955.043 50.8523C954.838 50.9735 954.613 51.0341 954.366 51.0341Z" fill="white"/>
<path d="M730 39H811V65H730V39Z" fill="#D83BD2"/>
<path d="M744.316 57V45.3636H746.737V49.7386H746.81C746.916 49.5038 747.07 49.2652 747.271 49.0227C747.475 48.7765 747.74 48.572 748.066 48.4091C748.396 48.2424 748.805 48.1591 749.293 48.1591C749.93 48.1591 750.517 48.3258 751.055 48.6591C751.593 48.9886 752.022 49.4867 752.344 50.1534C752.666 50.8163 752.827 51.6477 752.827 52.6477C752.827 53.6212 752.67 54.4432 752.356 55.1136C752.045 55.7803 751.621 56.286 751.083 56.6307C750.549 56.9716 749.951 57.142 749.288 57.142C748.818 57.142 748.418 57.0644 748.089 56.9091C747.763 56.7538 747.496 56.5587 747.288 56.3239C747.079 56.0852 746.92 55.8447 746.81 55.6023H746.702V57H744.316ZM746.685 52.6364C746.685 53.1553 746.757 53.608 746.901 53.9943C747.045 54.3807 747.254 54.6818 747.526 54.8977C747.799 55.1098 748.13 55.2159 748.521 55.2159C748.915 55.2159 749.248 55.108 749.521 54.892C749.793 54.6723 750 54.3693 750.14 53.983C750.284 53.5928 750.356 53.1439 750.356 52.6364C750.356 52.1326 750.286 51.6894 750.146 51.3068C750.005 50.9242 749.799 50.625 749.526 50.4091C749.254 50.1932 748.918 50.0852 748.521 50.0852C748.127 50.0852 747.793 50.1894 747.521 50.3977C747.252 50.6061 747.045 50.9015 746.901 51.2841C746.757 51.6667 746.685 52.1174 746.685 52.6364ZM758.691 50.3068V48.2841H766.538V50.3068H758.691ZM758.691 54.0795V52.0568H766.538V54.0795H758.691ZM772.701 57V55.2273L776.843 51.392C777.195 51.0511 777.491 50.7443 777.729 50.4716C777.972 50.1989 778.156 49.9318 778.281 49.6705C778.406 49.4053 778.468 49.1193 778.468 48.8125C778.468 48.4716 778.39 48.178 778.235 47.9318C778.08 47.6818 777.868 47.4905 777.599 47.358C777.33 47.2216 777.025 47.1534 776.684 47.1534C776.328 47.1534 776.017 47.2254 775.752 47.3693C775.487 47.5133 775.282 47.7197 775.138 47.9886C774.995 48.2576 774.923 48.5777 774.923 48.9489H772.587C772.587 48.1875 772.76 47.5265 773.104 46.9659C773.449 46.4053 773.932 45.9716 774.553 45.6648C775.174 45.358 775.89 45.2045 776.701 45.2045C777.534 45.2045 778.26 45.3523 778.877 45.6477C779.498 45.9394 779.981 46.3447 780.326 46.8636C780.671 47.3826 780.843 47.9773 780.843 48.6477C780.843 49.0871 780.756 49.5208 780.582 49.9489C780.411 50.3769 780.106 50.8523 779.667 51.375C779.228 51.8939 778.608 52.517 777.809 53.2443L776.11 54.9091V54.9886H780.996V57H772.701ZM787.342 57.2557C786.364 57.2519 785.523 57.0114 784.819 56.5341C784.118 56.0568 783.578 55.3655 783.2 54.4602C782.825 53.5549 782.639 52.4659 782.643 51.1932C782.643 49.9242 782.83 48.8428 783.205 47.9489C783.584 47.0549 784.124 46.375 784.825 45.9091C785.529 45.4394 786.368 45.2045 787.342 45.2045C788.315 45.2045 789.152 45.4394 789.853 45.9091C790.558 46.3788 791.099 47.0606 791.478 47.9545C791.857 48.8447 792.044 49.9242 792.04 51.1932C792.04 52.4697 791.851 53.5606 791.472 54.4659C791.097 55.3712 790.559 56.0625 789.859 56.5398C789.158 57.017 788.319 57.2557 787.342 57.2557ZM787.342 55.2159C788.008 55.2159 788.54 54.8807 788.938 54.2102C789.336 53.5398 789.533 52.5341 789.529 51.1932C789.529 50.3106 789.438 49.5758 789.256 48.9886C789.078 48.4015 788.825 47.9602 788.495 47.6648C788.169 47.3693 787.785 47.2216 787.342 47.2216C786.679 47.2216 786.148 47.553 785.751 48.2159C785.353 48.8788 785.152 49.8712 785.148 51.1932C785.148 52.0871 785.237 52.8333 785.415 53.4318C785.597 54.0265 785.853 54.4735 786.183 54.7727C786.512 55.0682 786.898 55.2159 787.342 55.2159ZM796.448 55.4091L796.386 56.0341C796.336 56.5341 796.242 57.0322 796.102 57.5284C795.965 58.0284 795.821 58.4811 795.67 58.8864C795.522 59.2917 795.403 59.6098 795.312 59.8409H793.744C793.8 59.6174 793.878 59.3049 793.977 58.9034C794.075 58.5057 794.168 58.0587 794.255 57.5625C794.342 57.0663 794.397 56.5606 794.42 56.0455L794.448 55.4091H796.448ZM795.437 51.0341C795.062 51.0341 794.74 50.9015 794.471 50.6364C794.206 50.3712 794.073 50.0492 794.073 49.6705C794.073 49.2992 794.206 48.983 794.471 48.7216C794.74 48.4564 795.062 48.3239 795.437 48.3239C795.8 48.3239 796.119 48.4564 796.391 48.7216C796.664 48.983 796.8 49.2992 796.8 49.6705C796.8 49.9242 796.736 50.1553 796.607 50.3636C796.482 50.5682 796.317 50.7311 796.113 50.8523C795.908 50.9735 795.683 51.0341 795.437 51.0341Z" fill="white"/>
<path d="M731 77H812V103H731V77Z" fill="#D83BD2"/>
<path d="M748.83 95.1648C748.273 95.1648 747.777 95.0682 747.341 94.875C746.905 94.678 746.561 94.3883 746.307 94.0057C746.057 93.6193 745.932 93.1383 745.932 92.5625C745.932 92.0777 746.021 91.6705 746.199 91.3409C746.377 91.0114 746.619 90.7462 746.926 90.5455C747.233 90.3447 747.581 90.1932 747.972 90.0909C748.366 89.9886 748.778 89.9167 749.21 89.875C749.718 89.822 750.127 89.7727 750.438 89.7273C750.748 89.678 750.973 89.6061 751.114 89.5114C751.254 89.4167 751.324 89.2765 751.324 89.0909V89.0568C751.324 88.697 751.21 88.4186 750.983 88.2216C750.759 88.0246 750.441 87.9261 750.028 87.9261C749.593 87.9261 749.246 88.0227 748.989 88.2159C748.731 88.4053 748.561 88.6439 748.477 88.9318L746.239 88.75C746.352 88.2197 746.576 87.7614 746.909 87.375C747.242 86.9848 747.672 86.6856 748.199 86.4773C748.729 86.2652 749.343 86.1591 750.04 86.1591C750.525 86.1591 750.989 86.2159 751.432 86.3295C751.879 86.4432 752.275 86.6193 752.619 86.858C752.968 87.0966 753.242 87.4034 753.443 87.7784C753.644 88.1496 753.744 88.5947 753.744 89.1136V95H751.449V93.7898H751.381C751.241 94.0625 751.053 94.303 750.818 94.5114C750.583 94.7159 750.301 94.8769 749.972 94.9943C749.642 95.108 749.261 95.1648 748.83 95.1648ZM749.523 93.4943C749.879 93.4943 750.193 93.4242 750.466 93.2841C750.739 93.1402 750.953 92.947 751.108 92.7045C751.263 92.4621 751.341 92.1875 751.341 91.8807V90.9545C751.265 91.0038 751.161 91.0492 751.028 91.0909C750.9 91.1288 750.754 91.1648 750.591 91.1989C750.428 91.2292 750.265 91.2576 750.102 91.2841C749.939 91.3068 749.792 91.3277 749.659 91.3466C749.375 91.3883 749.127 91.4545 748.915 91.5455C748.703 91.6364 748.538 91.7595 748.42 91.9148C748.303 92.0663 748.244 92.2557 748.244 92.483C748.244 92.8125 748.364 93.0644 748.602 93.2386C748.845 93.4091 749.152 93.4943 749.523 93.4943ZM759.871 88.3068V86.2841H767.717V88.3068H759.871ZM759.871 92.0795V90.0568H767.717V92.0795H759.871ZM778.943 83.3636V95H776.483V85.6989H776.415L773.75 87.3693V85.1875L776.631 83.3636H778.943ZM786.271 95.2557C785.294 95.2519 784.453 95.0114 783.749 94.5341C783.048 94.0568 782.508 93.3655 782.129 92.4602C781.754 91.5549 781.569 90.4659 781.572 89.1932C781.572 87.9242 781.76 86.8428 782.135 85.9489C782.514 85.0549 783.054 84.375 783.754 83.9091C784.459 83.4394 785.298 83.2045 786.271 83.2045C787.245 83.2045 788.082 83.4394 788.783 83.9091C789.487 84.3788 790.029 85.0606 790.408 85.9545C790.786 86.8447 790.974 87.9242 790.97 89.1932C790.97 90.4697 790.781 91.5606 790.402 92.4659C790.027 93.3712 789.489 94.0625 788.788 94.5398C788.088 95.017 787.249 95.2557 786.271 95.2557ZM786.271 93.2159C786.938 93.2159 787.47 92.8807 787.868 92.2102C788.266 91.5398 788.463 90.5341 788.459 89.1932C788.459 88.3106 788.368 87.5758 788.186 86.9886C788.008 86.4015 787.754 85.9602 787.425 85.6648C787.099 85.3693 786.714 85.2216 786.271 85.2216C785.608 85.2216 785.078 85.553 784.68 86.2159C784.283 86.8788 784.082 87.8712 784.078 89.1932C784.078 90.0871 784.167 90.8333 784.345 91.4318C784.527 92.0265 784.783 92.4735 785.112 92.7727C785.442 93.0682 785.828 93.2159 786.271 93.2159ZM795.378 93.4091L795.315 94.0341C795.266 94.5341 795.171 95.0322 795.031 95.5284C794.895 96.0284 794.751 96.4811 794.599 96.8864C794.452 97.2917 794.332 97.6098 794.241 97.8409H792.673C792.73 97.6174 792.808 97.3049 792.906 96.9034C793.005 96.5057 793.098 96.0587 793.185 95.5625C793.272 95.0663 793.327 94.5606 793.349 94.0455L793.378 93.4091H795.378ZM794.366 89.0341C793.991 89.0341 793.67 88.9015 793.401 88.6364C793.135 88.3712 793.003 88.0492 793.003 87.6705C793.003 87.2992 793.135 86.983 793.401 86.7216C793.67 86.4564 793.991 86.3239 794.366 86.3239C794.73 86.3239 795.048 86.4564 795.321 86.7216C795.594 86.983 795.73 87.2992 795.73 87.6705C795.73 87.9242 795.666 88.1553 795.537 88.3636C795.412 88.5682 795.247 88.7311 795.043 88.8523C794.838 88.9735 794.613 89.0341 794.366 89.0341Z" fill="white"/>
<path d="M571 39H652V65H571V39Z" fill="#D83BD2"/>
<path d="M589.37 57.1705C588.476 57.1705 587.707 56.9811 587.063 56.6023C586.423 56.2197 585.931 55.6894 585.586 55.0114C585.245 54.3333 585.075 53.553 585.075 52.6705C585.075 51.7765 585.247 50.9924 585.592 50.3182C585.94 49.6402 586.434 49.1117 587.075 48.733C587.715 48.3504 588.476 48.1591 589.359 48.1591C590.12 48.1591 590.787 48.2973 591.359 48.5739C591.931 48.8504 592.383 49.2386 592.717 49.7386C593.05 50.2386 593.234 50.8258 593.268 51.5H590.984C590.919 51.0644 590.749 50.714 590.472 50.4489C590.2 50.1799 589.842 50.0455 589.398 50.0455C589.023 50.0455 588.696 50.1477 588.415 50.3523C588.139 50.553 587.923 50.8466 587.768 51.233C587.612 51.6193 587.535 52.0871 587.535 52.6364C587.535 53.1932 587.611 53.6667 587.762 54.0568C587.917 54.447 588.135 54.7443 588.415 54.9489C588.696 55.1534 589.023 55.2557 589.398 55.2557C589.675 55.2557 589.923 55.1989 590.143 55.0852C590.366 54.9716 590.55 54.8068 590.694 54.5909C590.842 54.3712 590.938 54.108 590.984 53.8011H593.268C593.23 54.4678 593.048 55.0549 592.722 55.5625C592.4 56.0663 591.955 56.4602 591.387 56.7443C590.819 57.0284 590.147 57.1705 589.37 57.1705ZM599.066 50.3068V48.2841H606.913V50.3068H599.066ZM599.066 54.0795V52.0568H606.913V54.0795H599.066ZM617.377 57.1591C616.529 57.1591 615.773 57.0133 615.11 56.7216C614.451 56.4261 613.93 56.0208 613.548 55.5057C613.169 54.9867 612.974 54.3883 612.962 53.7102H615.44C615.455 53.9943 615.548 54.2443 615.718 54.4602C615.892 54.6723 616.123 54.8371 616.411 54.9545C616.699 55.072 617.023 55.1307 617.383 55.1307C617.758 55.1307 618.089 55.0644 618.377 54.9318C618.665 54.7992 618.89 54.6155 619.053 54.3807C619.216 54.1458 619.298 53.875 619.298 53.5682C619.298 53.2576 619.21 52.983 619.036 52.7443C618.866 52.5019 618.62 52.3125 618.298 52.1761C617.979 52.0398 617.601 51.9716 617.161 51.9716H616.076V50.1648H617.161C617.532 50.1648 617.86 50.1004 618.144 49.9716C618.432 49.8428 618.656 49.6648 618.815 49.4375C618.974 49.2064 619.053 48.9375 619.053 48.6307C619.053 48.339 618.983 48.0833 618.843 47.8636C618.707 47.6402 618.513 47.4659 618.263 47.3409C618.017 47.2159 617.729 47.1534 617.4 47.1534C617.067 47.1534 616.762 47.214 616.485 47.3352C616.209 47.4527 615.987 47.6212 615.82 47.8409C615.654 48.0606 615.565 48.3182 615.553 48.6136H613.195C613.207 47.9432 613.398 47.3523 613.769 46.8409C614.14 46.3295 614.64 45.9299 615.269 45.642C615.902 45.3504 616.616 45.2045 617.411 45.2045C618.214 45.2045 618.917 45.3504 619.519 45.642C620.121 45.9337 620.589 46.3277 620.923 46.8239C621.26 47.3163 621.426 47.8693 621.423 48.483C621.426 49.1345 621.224 49.678 620.815 50.1136C620.409 50.5492 619.881 50.8258 619.229 50.9432V51.0341C620.085 51.1439 620.737 51.4413 621.184 51.9261C621.635 52.4072 621.858 53.0095 621.854 53.733C621.858 54.3958 621.667 54.9848 621.281 55.5C620.898 56.0152 620.37 56.4205 619.695 56.7159C619.021 57.0114 618.248 57.1591 617.377 57.1591ZM628.185 57.2557C627.208 57.2519 626.367 57.0114 625.663 56.5341C624.962 56.0568 624.422 55.3655 624.043 54.4602C623.668 53.5549 623.483 52.4659 623.487 51.1932C623.487 49.9242 623.674 48.8428 624.049 47.9489C624.428 47.0549 624.968 46.375 625.668 45.9091C626.373 45.4394 627.212 45.2045 628.185 45.2045C629.159 45.2045 629.996 45.4394 630.697 45.9091C631.401 46.3788 631.943 47.0606 632.322 47.9545C632.701 48.8447 632.888 49.9242 632.884 51.1932C632.884 52.4697 632.695 53.5606 632.316 54.4659C631.941 55.3712 631.403 56.0625 630.702 56.5398C630.002 57.017 629.163 57.2557 628.185 57.2557ZM628.185 55.2159C628.852 55.2159 629.384 54.8807 629.782 54.2102C630.18 53.5398 630.377 52.5341 630.373 51.1932C630.373 50.3106 630.282 49.5758 630.1 48.9886C629.922 48.4015 629.668 47.9602 629.339 47.6648C629.013 47.3693 628.629 47.2216 628.185 47.2216C627.522 47.2216 626.992 47.553 626.594 48.2159C626.197 48.8788 625.996 49.8712 625.992 51.1932C625.992 52.0871 626.081 52.8333 626.259 53.4318C626.441 54.0265 626.697 54.4735 627.026 54.7727C627.356 55.0682 627.742 55.2159 628.185 55.2159ZM637.292 55.4091L637.229 56.0341C637.18 56.5341 637.085 57.0322 636.945 57.5284C636.809 58.0284 636.665 58.4811 636.513 58.8864C636.366 59.2917 636.246 59.6098 636.156 59.8409H634.587C634.644 59.6174 634.722 59.3049 634.82 58.9034C634.919 58.5057 635.012 58.0587 635.099 57.5625C635.186 57.0663 635.241 56.5606 635.263 56.0455L635.292 55.4091H637.292ZM636.281 51.0341C635.906 51.0341 635.584 50.9015 635.315 50.6364C635.049 50.3712 634.917 50.0492 634.917 49.6705C634.917 49.2992 635.049 48.983 635.315 48.7216C635.584 48.4564 635.906 48.3239 636.281 48.3239C636.644 48.3239 636.962 48.4564 637.235 48.7216C637.508 48.983 637.644 49.2992 637.644 49.6705C637.644 49.9242 637.58 50.1553 637.451 50.3636C637.326 50.5682 637.161 50.7311 636.957 50.8523C636.752 50.9735 636.527 51.0341 636.281 51.0341Z" fill="white"/>
<path d="M411 77H492V103H411V77Z" fill="#D83BD2"/>
<path d="M428.83 95.1648C428.273 95.1648 427.777 95.0682 427.341 94.875C426.905 94.678 426.561 94.3883 426.307 94.0057C426.057 93.6193 425.932 93.1383 425.932 92.5625C425.932 92.0777 426.021 91.6705 426.199 91.3409C426.377 91.0114 426.619 90.7462 426.926 90.5455C427.233 90.3447 427.581 90.1932 427.972 90.0909C428.366 89.9886 428.778 89.9167 429.21 89.875C429.718 89.822 430.127 89.7727 430.438 89.7273C430.748 89.678 430.973 89.6061 431.114 89.5114C431.254 89.4167 431.324 89.2765 431.324 89.0909V89.0568C431.324 88.697 431.21 88.4186 430.983 88.2216C430.759 88.0246 430.441 87.9261 430.028 87.9261C429.593 87.9261 429.246 88.0227 428.989 88.2159C428.731 88.4053 428.561 88.6439 428.477 88.9318L426.239 88.75C426.352 88.2197 426.576 87.7614 426.909 87.375C427.242 86.9848 427.672 86.6856 428.199 86.4773C428.729 86.2652 429.343 86.1591 430.04 86.1591C430.525 86.1591 430.989 86.2159 431.432 86.3295C431.879 86.4432 432.275 86.6193 432.619 86.858C432.968 87.0966 433.242 87.4034 433.443 87.7784C433.644 88.1496 433.744 88.5947 433.744 89.1136V95H431.449V93.7898H431.381C431.241 94.0625 431.053 94.303 430.818 94.5114C430.583 94.7159 430.301 94.8769 429.972 94.9943C429.642 95.108 429.261 95.1648 428.83 95.1648ZM429.523 93.4943C429.879 93.4943 430.193 93.4242 430.466 93.2841C430.739 93.1402 430.953 92.947 431.108 92.7045C431.263 92.4621 431.341 92.1875 431.341 91.8807V90.9545C431.265 91.0038 431.161 91.0492 431.028 91.0909C430.9 91.1288 430.754 91.1648 430.591 91.1989C430.428 91.2292 430.265 91.2576 430.102 91.2841C429.939 91.3068 429.792 91.3277 429.659 91.3466C429.375 91.3883 429.127 91.4545 428.915 91.5455C428.703 91.6364 428.538 91.7595 428.42 91.9148C428.303 92.0663 428.244 92.2557 428.244 92.483C428.244 92.8125 428.364 93.0644 428.602 93.2386C428.845 93.4091 429.152 93.4943 429.523 93.4943ZM439.871 88.3068V86.2841H447.717V88.3068H439.871ZM439.871 92.0795V90.0568H447.717V92.0795H439.871ZM458.943 83.3636V95H456.483V85.6989H456.415L453.75 87.3693V85.1875L456.631 83.3636H458.943ZM466.271 95.2557C465.294 95.2519 464.453 95.0114 463.749 94.5341C463.048 94.0568 462.508 93.3655 462.129 92.4602C461.754 91.5549 461.569 90.4659 461.572 89.1932C461.572 87.9242 461.76 86.8428 462.135 85.9489C462.514 85.0549 463.054 84.375 463.754 83.9091C464.459 83.4394 465.298 83.2045 466.271 83.2045C467.245 83.2045 468.082 83.4394 468.783 83.9091C469.487 84.3788 470.029 85.0606 470.408 85.9545C470.786 86.8447 470.974 87.9242 470.97 89.1932C470.97 90.4697 470.781 91.5606 470.402 92.4659C470.027 93.3712 469.489 94.0625 468.788 94.5398C468.088 95.017 467.249 95.2557 466.271 95.2557ZM466.271 93.2159C466.938 93.2159 467.47 92.8807 467.868 92.2102C468.266 91.5398 468.463 90.5341 468.459 89.1932C468.459 88.3106 468.368 87.5758 468.186 86.9886C468.008 86.4015 467.754 85.9602 467.425 85.6648C467.099 85.3693 466.714 85.2216 466.271 85.2216C465.608 85.2216 465.078 85.553 464.68 86.2159C464.283 86.8788 464.082 87.8712 464.078 89.1932C464.078 90.0871 464.167 90.8333 464.345 91.4318C464.527 92.0265 464.783 92.4735 465.112 92.7727C465.442 93.0682 465.828 93.2159 466.271 93.2159ZM475.378 93.4091L475.315 94.0341C475.266 94.5341 475.171 95.0322 475.031 95.5284C474.895 96.0284 474.751 96.4811 474.599 96.8864C474.452 97.2917 474.332 97.6098 474.241 97.8409H472.673C472.73 97.6174 472.808 97.3049 472.906 96.9034C473.005 96.5057 473.098 96.0587 473.185 95.5625C473.272 95.0663 473.327 94.5606 473.349 94.0455L473.378 93.4091H475.378ZM474.366 89.0341C473.991 89.0341 473.67 88.9015 473.401 88.6364C473.135 88.3712 473.003 88.0492 473.003 87.6705C473.003 87.2992 473.135 86.983 473.401 86.7216C473.67 86.4564 473.991 86.3239 474.366 86.3239C474.73 86.3239 475.048 86.4564 475.321 86.7216C475.594 86.983 475.73 87.2992 475.73 87.6705C475.73 87.9242 475.666 88.1553 475.537 88.3636C475.412 88.5682 475.247 88.7311 475.043 88.8523C474.838 88.9735 474.613 89.0341 474.366 89.0341Z" fill="white"/>
<path d="M411 39H492V65H411V39Z" fill="#D83BD2"/>
<path d="M425.316 57V45.3636H427.737V49.7386H427.81C427.916 49.5038 428.07 49.2652 428.271 49.0227C428.475 48.7765 428.74 48.572 429.066 48.4091C429.396 48.2424 429.805 48.1591 430.293 48.1591C430.93 48.1591 431.517 48.3258 432.055 48.6591C432.593 48.9886 433.022 49.4867 433.344 50.1534C433.666 50.8163 433.827 51.6477 433.827 52.6477C433.827 53.6212 433.67 54.4432 433.356 55.1136C433.045 55.7803 432.621 56.286 432.083 56.6307C431.549 56.9716 430.951 57.142 430.288 57.142C429.818 57.142 429.418 57.0644 429.089 56.9091C428.763 56.7538 428.496 56.5587 428.288 56.3239C428.079 56.0852 427.92 55.8447 427.81 55.6023H427.702V57H425.316ZM427.685 52.6364C427.685 53.1553 427.757 53.608 427.901 53.9943C428.045 54.3807 428.254 54.6818 428.526 54.8977C428.799 55.1098 429.13 55.2159 429.521 55.2159C429.915 55.2159 430.248 55.108 430.521 54.892C430.793 54.6723 431 54.3693 431.14 53.983C431.284 53.5928 431.356 53.1439 431.356 52.6364C431.356 52.1326 431.286 51.6894 431.146 51.3068C431.005 50.9242 430.799 50.625 430.526 50.4091C430.254 50.1932 429.918 50.0852 429.521 50.0852C429.127 50.0852 428.793 50.1894 428.521 50.3977C428.252 50.6061 428.045 50.9015 427.901 51.2841C427.757 51.6667 427.685 52.1174 427.685 52.6364ZM439.691 50.3068V48.2841H447.538V50.3068H439.691ZM439.691 54.0795V52.0568H447.538V54.0795H439.691ZM453.701 57V55.2273L457.843 51.392C458.195 51.0511 458.491 50.7443 458.729 50.4716C458.972 50.1989 459.156 49.9318 459.281 49.6705C459.406 49.4053 459.468 49.1193 459.468 48.8125C459.468 48.4716 459.39 48.178 459.235 47.9318C459.08 47.6818 458.868 47.4905 458.599 47.358C458.33 47.2216 458.025 47.1534 457.684 47.1534C457.328 47.1534 457.017 47.2254 456.752 47.3693C456.487 47.5133 456.282 47.7197 456.138 47.9886C455.995 48.2576 455.923 48.5777 455.923 48.9489H453.587C453.587 48.1875 453.76 47.5265 454.104 46.9659C454.449 46.4053 454.932 45.9716 455.553 45.6648C456.174 45.358 456.89 45.2045 457.701 45.2045C458.534 45.2045 459.26 45.3523 459.877 45.6477C460.498 45.9394 460.981 46.3447 461.326 46.8636C461.671 47.3826 461.843 47.9773 461.843 48.6477C461.843 49.0871 461.756 49.5208 461.582 49.9489C461.411 50.3769 461.106 50.8523 460.667 51.375C460.228 51.8939 459.608 52.517 458.809 53.2443L457.11 54.9091V54.9886H461.996V57H453.701ZM468.342 57.2557C467.364 57.2519 466.523 57.0114 465.819 56.5341C465.118 56.0568 464.578 55.3655 464.2 54.4602C463.825 53.5549 463.639 52.4659 463.643 51.1932C463.643 49.9242 463.83 48.8428 464.205 47.9489C464.584 47.0549 465.124 46.375 465.825 45.9091C466.529 45.4394 467.368 45.2045 468.342 45.2045C469.315 45.2045 470.152 45.4394 470.853 45.9091C471.558 46.3788 472.099 47.0606 472.478 47.9545C472.857 48.8447 473.044 49.9242 473.04 51.1932C473.04 52.4697 472.851 53.5606 472.472 54.4659C472.097 55.3712 471.559 56.0625 470.859 56.5398C470.158 57.017 469.319 57.2557 468.342 57.2557ZM468.342 55.2159C469.008 55.2159 469.54 54.8807 469.938 54.2102C470.336 53.5398 470.533 52.5341 470.529 51.1932C470.529 50.3106 470.438 49.5758 470.256 48.9886C470.078 48.4015 469.825 47.9602 469.495 47.6648C469.169 47.3693 468.785 47.2216 468.342 47.2216C467.679 47.2216 467.148 47.553 466.751 48.2159C466.353 48.8788 466.152 49.8712 466.148 51.1932C466.148 52.0871 466.237 52.8333 466.415 53.4318C466.597 54.0265 466.853 54.4735 467.183 54.7727C467.512 55.0682 467.898 55.2159 468.342 55.2159ZM477.448 55.4091L477.386 56.0341C477.336 56.5341 477.242 57.0322 477.102 57.5284C476.965 58.0284 476.821 58.4811 476.67 58.8864C476.522 59.2917 476.403 59.6098 476.312 59.8409H474.744C474.8 59.6174 474.878 59.3049 474.977 58.9034C475.075 58.5057 475.168 58.0587 475.255 57.5625C475.342 57.0663 475.397 56.5606 475.42 56.0455L475.448 55.4091H477.448ZM476.437 51.0341C476.062 51.0341 475.74 50.9015 475.471 50.6364C475.206 50.3712 475.073 50.0492 475.073 49.6705C475.073 49.2992 475.206 48.983 475.471 48.7216C475.74 48.4564 476.062 48.3239 476.437 48.3239C476.8 48.3239 477.119 48.4564 477.391 48.7216C477.664 48.983 477.8 49.2992 477.8 49.6705C477.8 49.9242 477.736 50.1553 477.607 50.3636C477.482 50.5682 477.317 50.7311 477.113 50.8523C476.908 50.9735 476.683 51.0341 476.437 51.0341Z" fill="white"/>
<path d="M571 115H652V141H571V115Z" fill="#D83BD2"/>
<path d="M588.83 133.165C588.273 133.165 587.777 133.068 587.341 132.875C586.905 132.678 586.561 132.388 586.307 132.006C586.057 131.619 585.932 131.138 585.932 130.562C585.932 130.078 586.021 129.67 586.199 129.341C586.377 129.011 586.619 128.746 586.926 128.545C587.233 128.345 587.581 128.193 587.972 128.091C588.366 127.989 588.778 127.917 589.21 127.875C589.718 127.822 590.127 127.773 590.438 127.727C590.748 127.678 590.973 127.606 591.114 127.511C591.254 127.417 591.324 127.277 591.324 127.091V127.057C591.324 126.697 591.21 126.419 590.983 126.222C590.759 126.025 590.441 125.926 590.028 125.926C589.593 125.926 589.246 126.023 588.989 126.216C588.731 126.405 588.561 126.644 588.477 126.932L586.239 126.75C586.352 126.22 586.576 125.761 586.909 125.375C587.242 124.985 587.672 124.686 588.199 124.477C588.729 124.265 589.343 124.159 590.04 124.159C590.525 124.159 590.989 124.216 591.432 124.33C591.879 124.443 592.275 124.619 592.619 124.858C592.968 125.097 593.242 125.403 593.443 125.778C593.644 126.15 593.744 126.595 593.744 127.114V133H591.449V131.79H591.381C591.241 132.062 591.053 132.303 590.818 132.511C590.583 132.716 590.301 132.877 589.972 132.994C589.642 133.108 589.261 133.165 588.83 133.165ZM589.523 131.494C589.879 131.494 590.193 131.424 590.466 131.284C590.739 131.14 590.953 130.947 591.108 130.705C591.263 130.462 591.341 130.187 591.341 129.881V128.955C591.265 129.004 591.161 129.049 591.028 129.091C590.9 129.129 590.754 129.165 590.591 129.199C590.428 129.229 590.265 129.258 590.102 129.284C589.939 129.307 589.792 129.328 589.659 129.347C589.375 129.388 589.127 129.455 588.915 129.545C588.703 129.636 588.538 129.759 588.42 129.915C588.303 130.066 588.244 130.256 588.244 130.483C588.244 130.812 588.364 131.064 588.602 131.239C588.845 131.409 589.152 131.494 589.523 131.494ZM599.871 126.307V124.284H607.717V126.307H599.871ZM599.871 130.08V128.057H607.717V130.08H599.871ZM618.943 121.364V133H616.483V123.699H616.415L613.75 125.369V123.188L616.631 121.364H618.943ZM626.271 133.256C625.294 133.252 624.453 133.011 623.749 132.534C623.048 132.057 622.508 131.366 622.129 130.46C621.754 129.555 621.569 128.466 621.572 127.193C621.572 125.924 621.76 124.843 622.135 123.949C622.514 123.055 623.054 122.375 623.754 121.909C624.459 121.439 625.298 121.205 626.271 121.205C627.245 121.205 628.082 121.439 628.783 121.909C629.487 122.379 630.029 123.061 630.408 123.955C630.786 124.845 630.974 125.924 630.97 127.193C630.97 128.47 630.781 129.561 630.402 130.466C630.027 131.371 629.489 132.062 628.788 132.54C628.088 133.017 627.249 133.256 626.271 133.256ZM626.271 131.216C626.938 131.216 627.47 130.881 627.868 130.21C628.266 129.54 628.463 128.534 628.459 127.193C628.459 126.311 628.368 125.576 628.186 124.989C628.008 124.402 627.754 123.96 627.425 123.665C627.099 123.369 626.714 123.222 626.271 123.222C625.608 123.222 625.078 123.553 624.68 124.216C624.283 124.879 624.082 125.871 624.078 127.193C624.078 128.087 624.167 128.833 624.345 129.432C624.527 130.027 624.783 130.473 625.112 130.773C625.442 131.068 625.828 131.216 626.271 131.216ZM635.378 131.409L635.315 132.034C635.266 132.534 635.171 133.032 635.031 133.528C634.895 134.028 634.751 134.481 634.599 134.886C634.452 135.292 634.332 135.61 634.241 135.841H632.673C632.73 135.617 632.808 135.305 632.906 134.903C633.005 134.506 633.098 134.059 633.185 133.562C633.272 133.066 633.327 132.561 633.349 132.045L633.378 131.409H635.378ZM634.366 127.034C633.991 127.034 633.67 126.902 633.401 126.636C633.135 126.371 633.003 126.049 633.003 125.67C633.003 125.299 633.135 124.983 633.401 124.722C633.67 124.456 633.991 124.324 634.366 124.324C634.73 124.324 635.048 124.456 635.321 124.722C635.594 124.983 635.73 125.299 635.73 125.67C635.73 125.924 635.666 126.155 635.537 126.364C635.412 126.568 635.247 126.731 635.043 126.852C634.838 126.973 634.613 127.034 634.366 127.034Z" fill="white"/>
<path d="M570 77H651V103H570V77Z" fill="#D83BD2"/>
<path d="M584.316 95V83.3636H586.737V87.7386H586.81C586.916 87.5038 587.07 87.2652 587.271 87.0227C587.475 86.7765 587.74 86.572 588.066 86.4091C588.396 86.2424 588.805 86.1591 589.293 86.1591C589.93 86.1591 590.517 86.3258 591.055 86.6591C591.593 86.9886 592.022 87.4867 592.344 88.1534C592.666 88.8163 592.827 89.6477 592.827 90.6477C592.827 91.6212 592.67 92.4432 592.356 93.1136C592.045 93.7803 591.621 94.286 591.083 94.6307C590.549 94.9716 589.951 95.142 589.288 95.142C588.818 95.142 588.418 95.0644 588.089 94.9091C587.763 94.7538 587.496 94.5587 587.288 94.3239C587.079 94.0852 586.92 93.8447 586.81 93.6023H586.702V95H584.316ZM586.685 90.6364C586.685 91.1553 586.757 91.608 586.901 91.9943C587.045 92.3807 587.254 92.6818 587.526 92.8977C587.799 93.1098 588.13 93.2159 588.521 93.2159C588.915 93.2159 589.248 93.108 589.521 92.892C589.793 92.6723 590 92.3693 590.14 91.983C590.284 91.5928 590.356 91.1439 590.356 90.6364C590.356 90.1326 590.286 89.6894 590.146 89.3068C590.005 88.9242 589.799 88.625 589.526 88.4091C589.254 88.1932 588.918 88.0852 588.521 88.0852C588.127 88.0852 587.793 88.1894 587.521 88.3977C587.252 88.6061 587.045 88.9015 586.901 89.2841C586.757 89.6667 586.685 90.1174 586.685 90.6364ZM598.691 88.3068V86.2841H606.538V88.3068H598.691ZM598.691 92.0795V90.0568H606.538V92.0795H598.691ZM612.701 95V93.2273L616.843 89.392C617.195 89.0511 617.491 88.7443 617.729 88.4716C617.972 88.1989 618.156 87.9318 618.281 87.6705C618.406 87.4053 618.468 87.1193 618.468 86.8125C618.468 86.4716 618.39 86.178 618.235 85.9318C618.08 85.6818 617.868 85.4905 617.599 85.358C617.33 85.2216 617.025 85.1534 616.684 85.1534C616.328 85.1534 616.017 85.2254 615.752 85.3693C615.487 85.5133 615.282 85.7197 615.138 85.9886C614.995 86.2576 614.923 86.5777 614.923 86.9489H612.587C612.587 86.1875 612.76 85.5265 613.104 84.9659C613.449 84.4053 613.932 83.9716 614.553 83.6648C615.174 83.358 615.89 83.2045 616.701 83.2045C617.534 83.2045 618.26 83.3523 618.877 83.6477C619.498 83.9394 619.981 84.3447 620.326 84.8636C620.671 85.3826 620.843 85.9773 620.843 86.6477C620.843 87.0871 620.756 87.5208 620.582 87.9489C620.411 88.3769 620.106 88.8523 619.667 89.375C619.228 89.8939 618.608 90.517 617.809 91.2443L616.11 92.9091V92.9886H620.996V95H612.701ZM627.342 95.2557C626.364 95.2519 625.523 95.0114 624.819 94.5341C624.118 94.0568 623.578 93.3655 623.2 92.4602C622.825 91.5549 622.639 90.4659 622.643 89.1932C622.643 87.9242 622.83 86.8428 623.205 85.9489C623.584 85.0549 624.124 84.375 624.825 83.9091C625.529 83.4394 626.368 83.2045 627.342 83.2045C628.315 83.2045 629.152 83.4394 629.853 83.9091C630.558 84.3788 631.099 85.0606 631.478 85.9545C631.857 86.8447 632.044 87.9242 632.04 89.1932C632.04 90.4697 631.851 91.5606 631.472 92.4659C631.097 93.3712 630.559 94.0625 629.859 94.5398C629.158 95.017 628.319 95.2557 627.342 95.2557ZM627.342 93.2159C628.008 93.2159 628.54 92.8807 628.938 92.2102C629.336 91.5398 629.533 90.5341 629.529 89.1932C629.529 88.3106 629.438 87.5758 629.256 86.9886C629.078 86.4015 628.825 85.9602 628.495 85.6648C628.169 85.3693 627.785 85.2216 627.342 85.2216C626.679 85.2216 626.148 85.553 625.751 86.2159C625.353 86.8788 625.152 87.8712 625.148 89.1932C625.148 90.0871 625.237 90.8333 625.415 91.4318C625.597 92.0265 625.853 92.4735 626.183 92.7727C626.512 93.0682 626.898 93.2159 627.342 93.2159ZM636.448 93.4091L636.386 94.0341C636.336 94.5341 636.242 95.0322 636.102 95.5284C635.965 96.0284 635.821 96.4811 635.67 96.8864C635.522 97.2917 635.403 97.6098 635.312 97.8409H633.744C633.8 97.6174 633.878 97.3049 633.977 96.9034C634.075 96.5057 634.168 96.0587 634.255 95.5625C634.342 95.0663 634.397 94.5606 634.42 94.0455L634.448 93.4091H636.448ZM635.437 89.0341C635.062 89.0341 634.74 88.9015 634.471 88.6364C634.206 88.3712 634.073 88.0492 634.073 87.6705C634.073 87.2992 634.206 86.983 634.471 86.7216C634.74 86.4564 635.062 86.3239 635.437 86.3239C635.8 86.3239 636.119 86.4564 636.391 86.7216C636.664 86.983 636.8 87.2992 636.8 87.6705C636.8 87.9242 636.736 88.1553 636.607 88.3636C636.482 88.5682 636.317 88.7311 636.113 88.8523C635.908 88.9735 635.683 89.0341 635.437 89.0341Z" fill="white"/>
</svg>
